<svg xmlns="http://www.w3.org/2000/svg" viewBox="-468.94423346013093 -611.32581759845903 1247.4947147431421 1188.0018271493352" width="1400" height="1000">
<rect x="-468.94423346013093" y="-611.32581759845903" width="1247.4947147431421" height="1188.0018271493352" fill="white"/>
<text x="-453.94423346013093" y="-583.32581759845903" font-family="sans-serif" font-size="18">IAMP global planar-region inventory — geometry unchanged</text>
<polygon points="467.00395328344604,24.472202393688125 215.89934926061301,20.919909972173492 0,0 198.45941914361211,17.741686325829395 470.42463172536304,19.452588376757035 625.35532804910622,165.17030988602511" fill="#bbdefb" fill-opacity=".25" stroke="#aaa" stroke-width=".6"/>
<polygon points="467.00395328344604,24.472202393688125 625.35532804910622,165.17030988602511 379.91045563556071,27.254042980442794 215.89934926061301,20.919909972173492" fill="#c8e6c9" fill-opacity=".25" stroke="#aaa" stroke-width=".6"/>
<polygon points="283.81982446582094,31.487618863674726 35.544945163644023,20.9199099721735 379.91045563556071,27.254042980442794 625.35532804910622,165.17030988602511" fill="#ffe0b2" fill-opacity=".25" stroke="#aaa" stroke-width=".6"/>
<polygon points="283.81982446582094,31.487618863674726 625.35532804910622,165.17030988602511 249.63007822328049,152.01388547886967 18.105015046643143,17.741686325829406 0,0 35.544945163644023,20.9199099721735" fill="#e1bee7" fill-opacity=".25" stroke="#aaa" stroke-width=".6"/>
<polygon points="470.42463172536304,19.452588376757035 198.45941914361211,17.741686325829395 0,0 -3.5542412344025549,-237.88823673916076 102.84623517626561,-377.7214602506761 404.88025218730104,-446.15262780238589 678.55048128301132,-205.02668566046128 625.35532804910622,165.17030988602511" fill="#b2dfdb" fill-opacity=".25" stroke="#aaa" stroke-width=".6"/>
<polygon points="249.63007822328049,152.01388547886967 625.35532804910622,165.17030988602511 340.34248355870938,210.03637591471818 80.857407319521869,157.27332591022918 0,0 18.105015046643143,17.741686325829406" fill="#f8bbd0" fill-opacity=".25" stroke="#aaa" stroke-width=".6"/>
<polygon points="379.91045563556071,27.254042980442794 35.544945163644023,20.9199099721735 0,0 215.89934926061301,20.919909972173492" fill="#dcedc8" fill-opacity=".25" stroke="#aaa" stroke-width=".6"/>
<polygon points="44.637539564004882,327.56388864450702 -190.2794989274509,476.67600955087613 -281.60156205833124,236.64617273530189 -164.80431705291707,68.187760339236831 0,0 80.857407319521869,157.27332591022918" fill="#fff9c4" fill-opacity=".25" stroke="#aaa" stroke-width=".6"/>
<polygon points="-86.666005599870203,-311.02611059267178 -3.5542412344025549,-237.88823673916076 0,0 -63.988629947444132,12.592263277480884" fill="#d1c4e9" fill-opacity=".25" stroke="#aaa" stroke-width=".6"/>
<polygon points="-297.0910668648412,95.475265711029579 -63.988629947444132,12.592263277480884 0,0 -164.80431705291707,68.187760339236831" fill="#b3e5fc" fill-opacity=".25" stroke="#aaa" stroke-width=".6"/>
<line x1="467.00395328344604" y1="24.472202393688125" x2="215.89934926061301" y2="20.919909972173492" stroke="#666" stroke-width="1.5"/>
<line x1="467.00395328344604" y1="24.472202393688125" x2="625.35532804910622" y2="165.17030988602511" stroke="#666" stroke-width="1.5"/>
<line x1="283.81982446582094" y1="31.487618863674726" x2="35.544945163644023" y2="20.9199099721735" stroke="#666" stroke-width="1.5"/>
<line x1="283.81982446582094" y1="31.487618863674726" x2="625.35532804910622" y2="165.17030988602511" stroke="#666" stroke-width="1.5"/>
<line x1="-334.42997578032566" y1="111.11344837967394" x2="-164.80431705291707" y2="68.187760339236831" stroke="#666" stroke-width="1.5"/>
<line x1="-334.42997578032566" y1="111.11344837967394" x2="-368.94423346013093" y2="-356.42904717108132" stroke="#666" stroke-width="1.5"/>
<line x1="470.42463172536304" y1="19.452588376757035" x2="198.45941914361211" y2="17.741686325829395" stroke="#666" stroke-width="1.5"/>
<line x1="470.42463172536304" y1="19.452588376757035" x2="625.35532804910622" y2="165.17030988602511" stroke="#666" stroke-width="1.5"/>
<line x1="249.63007822328049" y1="152.01388547886967" x2="18.105015046643143" y2="17.741686325829406" stroke="#666" stroke-width="1.5"/>
<line x1="249.63007822328049" y1="152.01388547886967" x2="625.35532804910622" y2="165.17030988602511" stroke="#666" stroke-width="1.5"/>
<line x1="340.34248355870938" y1="210.03637591471818" x2="80.857407319521869" y2="157.27332591022918" stroke="#666" stroke-width="1.5"/>
<line x1="340.34248355870938" y1="210.03637591471818" x2="625.35532804910622" y2="165.17030988602511" stroke="#666" stroke-width="1.5"/>
<line x1="379.91045563556071" y1="27.254042980442794" x2="215.89934926061301" y2="20.919909972173492" stroke="#666" stroke-width="1.5"/>
<line x1="379.91045563556071" y1="27.254042980442794" x2="35.544945163644023" y2="20.9199099721735" stroke="#666" stroke-width="1.5"/>
<line x1="379.91045563556071" y1="27.254042980442794" x2="625.35532804910622" y2="165.17030988602511" stroke="#666" stroke-width="1.5"/>
<line x1="102.84623517626561" y1="-377.7214602506761" x2="-3.5542412344025549" y2="-237.88823673916076" stroke="#666" stroke-width="1.5"/>
<line x1="102.84623517626561" y1="-377.7214602506761" x2="404.88025218730104" y2="-446.15262780238589" stroke="#666" stroke-width="1.5"/>
<line x1="102.84623517626561" y1="-377.7214602506761" x2="121.34719516059535" y2="-511.32581759845903" stroke="#666" stroke-width="1.5"/>
<line x1="44.637539564004882" y1="327.56388864450702" x2="80.857407319521869" y2="157.27332591022918" stroke="#666" stroke-width="1.5"/>
<line x1="44.637539564004882" y1="327.56388864450702" x2="-190.2794989274509" y2="476.67600955087613" stroke="#666" stroke-width="1.5"/>
<line x1="44.637539564004882" y1="327.56388864450702" x2="34.854449249566208" y2="467.65915348121752" stroke="#666" stroke-width="1.5"/>
<line x1="-104.4544567673898" y1="-376.02476810571767" x2="-3.5542412344025549" y2="-237.88823673916076" stroke="#666" stroke-width="1.5"/>
<line x1="-104.4544567673898" y1="-376.02476810571767" x2="-368.94423346013093" y2="-356.42904717108132" stroke="#666" stroke-width="1.5"/>
<line x1="-104.4544567673898" y1="-376.02476810571767" x2="-171.52009353958951" y2="-506.07559884134531" stroke="#666" stroke-width="1.5"/>
<line x1="-86.666005599870203" y1="-311.02611059267178" x2="-3.5542412344025549" y2="-237.88823673916076" stroke="#666" stroke-width="1.5"/>
<line x1="-86.666005599870203" y1="-311.02611059267178" x2="-63.988629947444132" y2="12.592263277480884" stroke="#666" stroke-width="1.5"/>
<line x1="-297.0910668648412" y1="95.475265711029579" x2="-63.988629947444132" y2="12.592263277480884" stroke="#666" stroke-width="1.5"/>
<line x1="-297.0910668648412" y1="95.475265711029579" x2="-164.80431705291707" y2="68.187760339236831" stroke="#666" stroke-width="1.5"/>
<line x1="678.55048128301132" y1="-205.02668566046128" x2="625.35532804910622" y2="165.17030988602511" stroke="#666" stroke-width="1.5"/>
<line x1="678.55048128301132" y1="-205.02668566046128" x2="404.88025218730104" y2="-446.15262780238589" stroke="#666" stroke-width="1.5"/>
<line x1="-281.60156205833124" y1="236.64617273530189" x2="-164.80431705291707" y2="68.187760339236831" stroke="#666" stroke-width="1.5"/>
<line x1="-281.60156205833124" y1="236.64617273530189" x2="-190.2794989274509" y2="476.67600955087613" stroke="#666" stroke-width="1.5"/>
<line x1="-32.448557027307608" y1="-329.27268152947534" x2="-3.5542412344025549" y2="-237.88823673916076" stroke="#666" stroke-width="1.5"/>
<line x1="-113.59679859782972" y1="30.069813575719142" x2="-63.988629947444132" y2="12.592263277480884" stroke="#666" stroke-width="1.5"/>
<line x1="-260.63187081133981" y1="114.25798046913104" x2="-164.80431705291707" y2="68.187760339236831" stroke="#666" stroke-width="1.5"/>
<line x1="91.110644326457589" y1="243.36924518783795" x2="80.857407319521869" y2="157.27332591022918" stroke="#666" stroke-width="1.5"/>
<line x1="0" y1="0" x2="215.89934926061301" y2="20.919909972173492" stroke="#666" stroke-width="1.5"/>
<line x1="0" y1="0" x2="35.544945163644023" y2="20.9199099721735" stroke="#666" stroke-width="1.5"/>
<line x1="0" y1="0" x2="198.45941914361211" y2="17.741686325829395" stroke="#666" stroke-width="1.5"/>
<line x1="0" y1="0" x2="18.105015046643143" y2="17.741686325829406" stroke="#666" stroke-width="1.5"/>
<line x1="0" y1="0" x2="80.857407319521869" y2="157.27332591022918" stroke="#666" stroke-width="1.5"/>
<line x1="0" y1="0" x2="-3.5542412344025549" y2="-237.88823673916076" stroke="#666" stroke-width="1.5"/>
<line x1="0" y1="0" x2="-63.988629947444132" y2="12.592263277480884" stroke="#666" stroke-width="1.5"/>
<line x1="0" y1="0" x2="-164.80431705291707" y2="68.187760339236831" stroke="#666" stroke-width="1.5"/>
<text x="470.92058996124979" y="23.987644038518006" text-anchor="middle" font-family="sans-serif" font-size="13" font-weight="bold" fill="#222">face:001</text>
<text x="458.99293170302809" y="46.607097881920048" text-anchor="middle" font-family="sans-serif" font-size="13" font-weight="bold" fill="#222">face:002</text>
<text x="375.2825746605161" y="46.673044915346615" text-anchor="middle" font-family="sans-serif" font-size="13" font-weight="bold" fill="#222">face:003</text>
<text x="260.83856451249289" y="114.75622037265249" text-anchor="middle" font-family="sans-serif" font-size="13" font-weight="bold" fill="#222">face:004</text>
<text x="-164.79978703198074" y="-239.59138667272535" text-anchor="middle" font-family="sans-serif" font-size="13" font-weight="bold" fill="#222">face:006 (RA_SW)</text>
<text x="330.15790646078585" y="-309.67565812304127" text-anchor="middle" font-family="sans-serif" font-size="13" font-weight="bold" fill="#222">face:007 (RMIN1)</text>
<text x="109.96429661687543" y="120.86295458706863" text-anchor="middle" font-family="sans-serif" font-size="13" font-weight="bold" fill="#222">face:008</text>
<text x="37.889000029779332" y="12.315761164543076" text-anchor="middle" font-family="sans-serif" font-size="13" font-weight="bold" fill="#222">face:009</text>
<text x="7.0788512450710837" y="148.78977126448606" text-anchor="middle" font-family="sans-serif" font-size="13" font-weight="bold" fill="#222">face:010 (RMIN4)</text>
<text x="-44.123440992955544" y="-225.06267920604438" text-anchor="middle" font-family="sans-serif" font-size="13" font-weight="bold" fill="#222">face:011</text>
<text x="-168.04521519172897" y="59.410016904715974" text-anchor="middle" font-family="sans-serif" font-size="13" font-weight="bold" fill="#222">face:012</text>
<circle cx="467.00395328344604" cy="24.472202393688125" r="6" fill="#1565c0" stroke="white"/>
<circle cx="467.00395328344604" cy="24.472202393688125" r="10" fill="none" stroke="#2e7d32" stroke-width="2.5"/>
<text x="477.00395328344604" y="16.472202393688125" font-family="sans-serif" font-size="11">C1</text>
<circle cx="283.81982446582094" cy="31.487618863674726" r="6" fill="#1565c0" stroke="white"/>
<circle cx="283.81982446582094" cy="31.487618863674726" r="10" fill="none" stroke="#2e7d32" stroke-width="2.5"/>
<text x="293.81982446582094" y="23.487618863674726" font-family="sans-serif" font-size="11">C2</text>
<circle cx="-334.42997578032566" cy="111.11344837967394" r="6" fill="#1565c0" stroke="white"/>
<circle cx="-334.42997578032566" cy="111.11344837967394" r="10" fill="none" stroke="#2e7d32" stroke-width="2.5"/>
<text x="-324.42997578032566" y="103.11344837967394" font-family="sans-serif" font-size="11">JP1</text>
<circle cx="470.42463172536304" cy="19.452588376757035" r="6" fill="#1565c0" stroke="white"/>
<circle cx="470.42463172536304" cy="19.452588376757035" r="10" fill="none" stroke="#2e7d32" stroke-width="2.5"/>
<text x="480.42463172536304" y="11.452588376757035" font-family="sans-serif" font-size="11">J_EA</text>
<circle cx="249.63007822328049" cy="152.01388547886967" r="6" fill="#1565c0" stroke="white"/>
<circle cx="249.63007822328049" cy="152.01388547886967" r="10" fill="none" stroke="#2e7d32" stroke-width="2.5"/>
<text x="259.63007822328052" y="144.01388547886967" font-family="sans-serif" font-size="11">J_EB</text>
<circle cx="340.34248355870938" cy="210.03637591471818" r="6" fill="#1565c0" stroke="white"/>
<circle cx="340.34248355870938" cy="210.03637591471818" r="10" fill="none" stroke="#2e7d32" stroke-width="2.5"/>
<text x="350.34248355870938" y="202.03637591471818" font-family="sans-serif" font-size="11">J_OUT</text>
<circle cx="379.91045563556071" cy="27.254042980442794" r="6" fill="#1565c0" stroke="white"/>
<rect x="370.91045563556071" y="18.254042980442794" width="18" height="18" fill="none" stroke="#ef6c00" stroke-width="2"/>
<text x="389.91045563556071" y="19.254042980442794" font-family="sans-serif" font-size="11">J_PWR</text>
<circle cx="102.84623517626561" cy="-377.7214602506761" r="6" fill="#1565c0" stroke="white"/>
<rect x="93.846235176265608" y="-386.7214602506761" width="18" height="18" fill="none" stroke="#ef6c00" stroke-width="2"/>
<text x="112.84623517626561" y="-385.7214602506761" font-family="sans-serif" font-size="11">J_R1</text>
<circle cx="44.637539564004882" cy="327.56388864450702" r="6" fill="#1565c0" stroke="white"/>
<rect x="35.637539564004882" y="318.56388864450702" width="18" height="18" fill="none" stroke="#ef6c00" stroke-width="2"/>
<text x="54.637539564004882" y="319.56388864450702" font-family="sans-serif" font-size="11">J_R4</text>
<circle cx="-104.4544567673898" cy="-376.02476810571767" r="6" fill="#1565c0" stroke="white"/>
<rect x="-113.4544567673898" y="-385.02476810571767" width="18" height="18" fill="none" stroke="#ef6c00" stroke-width="2"/>
<text x="-94.4544567673898" y="-384.02476810571767" font-family="sans-serif" font-size="11">J_RA</text>
<circle cx="-86.666005599870203" cy="-311.02611059267178" r="6" fill="#1565c0" stroke="white"/>
<circle cx="-86.666005599870203" cy="-311.02611059267178" r="10" fill="none" stroke="#2e7d32" stroke-width="2.5"/>
<text x="-76.666005599870203" y="-319.02611059267178" font-family="sans-serif" font-size="11">R2</text>
<circle cx="-297.0910668648412" cy="95.475265711029579" r="6" fill="#1565c0" stroke="white"/>
<circle cx="-297.0910668648412" cy="95.475265711029579" r="10" fill="none" stroke="#2e7d32" stroke-width="2.5"/>
<text x="-287.0910668648412" y="87.475265711029579" font-family="sans-serif" font-size="11">R3</text>
<circle cx="678.55048128301132" cy="-205.02668566046128" r="6" fill="#1565c0" stroke="white"/>
<circle cx="678.55048128301132" cy="-205.02668566046128" r="10" fill="none" stroke="#2e7d32" stroke-width="2.5"/>
<text x="688.55048128301132" y="-213.02668566046128" font-family="sans-serif" font-size="11">RMIN1</text>
<circle cx="-281.60156205833124" cy="236.64617273530189" r="6" fill="#1565c0" stroke="white"/>
<circle cx="-281.60156205833124" cy="236.64617273530189" r="10" fill="none" stroke="#2e7d32" stroke-width="2.5"/>
<text x="-271.60156205833124" y="228.64617273530189" font-family="sans-serif" font-size="11">RMIN4</text>
<circle cx="-32.448557027307608" cy="-329.27268152947534" r="6" fill="#1565c0" stroke="white"/>
<text x="-22.448557027307608" y="-337.27268152947534" font-family="sans-serif" font-size="11">TPA</text>
<circle cx="-113.59679859782972" cy="30.069813575719142" r="6" fill="#1565c0" stroke="white"/>
<rect x="-122.59679859782972" y="21.069813575719142" width="18" height="18" fill="none" stroke="#ef6c00" stroke-width="2"/>
<text x="-103.59679859782972" y="22.069813575719142" font-family="sans-serif" font-size="11">TPB</text>
<circle cx="-260.63187081133981" cy="114.25798046913104" r="6" fill="#1565c0" stroke="white"/>
<text x="-250.63187081133981" y="106.25798046913104" font-family="sans-serif" font-size="11">TPC</text>
<circle cx="91.110644326457589" cy="243.36924518783795" r="6" fill="#1565c0" stroke="white"/>
<text x="101.11064432645759" y="235.36924518783795" font-family="sans-serif" font-size="11">TPO</text>
<circle cx="0" cy="0" r="6" fill="#1565c0" stroke="white"/>
<rect x="-9" y="-9" width="18" height="18" fill="none" stroke="#ef6c00" stroke-width="2"/>
<text x="10" y="-8" font-family="sans-serif" font-size="11">U1</text>
<circle cx="215.89934926061301" cy="20.919909972173492" r="6" fill="#d84315" stroke="white"/>
<rect x="206.89934926061301" y="11.919909972173492" width="18" height="18" fill="none" stroke="#ef6c00" stroke-width="2"/>
<text x="225.89934926061301" y="12.919909972173492" font-family="sans-serif" font-size="11">+9V</text>
<circle cx="35.544945163644023" cy="20.9199099721735" r="6" fill="#d84315" stroke="white"/>
<rect x="26.544945163644023" y="11.9199099721735" width="18" height="18" fill="none" stroke="#ef6c00" stroke-width="2"/>
<text x="45.544945163644023" y="12.9199099721735" font-family="sans-serif" font-size="11">-9V</text>
<circle cx="198.45941914361211" cy="17.741686325829395" r="6" fill="#d84315" stroke="white"/>
<circle cx="198.45941914361211" cy="17.741686325829395" r="10" fill="none" stroke="#2e7d32" stroke-width="2.5"/>
<text x="208.45941914361211" y="9.7416863258293951" font-family="sans-serif" font-size="11">EA</text>
<circle cx="18.105015046643143" cy="17.741686325829406" r="6" fill="#d84315" stroke="white"/>
<circle cx="18.105015046643143" cy="17.741686325829406" r="10" fill="none" stroke="#2e7d32" stroke-width="2.5"/>
<text x="28.105015046643143" y="9.7416863258294057" font-family="sans-serif" font-size="11">EB</text>
<circle cx="80.857407319521869" cy="157.27332591022918" r="6" fill="#d84315" stroke="white"/>
<rect x="71.857407319521869" y="148.27332591022918" width="18" height="18" fill="none" stroke="#ef6c00" stroke-width="2"/>
<text x="90.857407319521869" y="149.27332591022918" font-family="sans-serif" font-size="11">EOUT</text>
<circle cx="625.35532804910622" cy="165.17030988602511" r="6" fill="#d84315" stroke="white"/>
<rect x="616.35532804910622" y="156.17030988602511" width="18" height="18" fill="none" stroke="#ef6c00" stroke-width="2"/>
<text x="635.35532804910622" y="157.17030988602511" font-family="sans-serif" font-size="11">GND</text>
<circle cx="-3.5542412344025549" cy="-237.88823673916076" r="6" fill="#d84315" stroke="white"/>
<rect x="-12.554241234402555" y="-246.88823673916076" width="18" height="18" fill="none" stroke="#ef6c00" stroke-width="2"/>
<text x="6.4457587655974447" y="-245.88823673916076" font-family="sans-serif" font-size="11">NODE_A</text>
<circle cx="-63.988629947444132" cy="12.592263277480884" r="6" fill="#d84315" stroke="white"/>
<rect x="-72.988629947444139" y="3.5922632774808836" width="18" height="18" fill="none" stroke="#ef6c00" stroke-width="2"/>
<text x="-53.988629947444132" y="4.5922632774808836" font-family="sans-serif" font-size="11">NODE_B</text>
<circle cx="-164.80431705291707" cy="68.187760339236831" r="6" fill="#d84315" stroke="white"/>
<rect x="-173.80431705291707" y="59.187760339236831" width="18" height="18" fill="none" stroke="#ef6c00" stroke-width="2"/>
<text x="-154.80431705291707" y="60.187760339236831" font-family="sans-serif" font-size="11">NODE_C</text>
<circle cx="404.88025218730104" cy="-446.15262780238589" r="6" fill="#d84315" stroke="white"/>
<circle cx="404.88025218730104" cy="-446.15262780238589" r="10" fill="none" stroke="#2e7d32" stroke-width="2.5"/>
<text x="414.88025218730104" y="-454.15262780238589" font-family="sans-serif" font-size="11">R1_EXT</text>
<circle cx="121.34719516059535" cy="-511.32581759845903" r="6" fill="#d84315" stroke="white"/>
<text x="131.34719516059533" y="-519.32581759845903" font-family="sans-serif" font-size="11">R1_W</text>
<circle cx="-190.2794989274509" cy="476.67600955087613" r="6" fill="#d84315" stroke="white"/>
<circle cx="-190.2794989274509" cy="476.67600955087613" r="10" fill="none" stroke="#2e7d32" stroke-width="2.5"/>
<text x="-180.2794989274509" y="468.67600955087613" font-family="sans-serif" font-size="11">R4_EXT</text>
<circle cx="34.854449249566208" cy="467.65915348121752" r="6" fill="#d84315" stroke="white"/>
<text x="44.854449249566208" y="459.65915348121752" font-family="sans-serif" font-size="11">R4_W</text>
<circle cx="-368.94423346013093" cy="-356.42904717108132" r="6" fill="#d84315" stroke="white"/>
<circle cx="-368.94423346013093" cy="-356.42904717108132" r="10" fill="none" stroke="#2e7d32" stroke-width="2.5"/>
<text x="-358.94423346013093" y="-364.42904717108132" font-family="sans-serif" font-size="11">RA_SW</text>
<circle cx="-171.52009353958951" cy="-506.07559884134531" r="6" fill="#d84315" stroke="white"/>
<text x="-161.52009353958951" y="-514.07559884134525" font-family="sans-serif" font-size="11">RA_W</text>
<circle cx="-113.57133069483731" cy="30.141440206951067" r="4" fill="#d50000" stroke="white"/><text x="-108.57133069483731" y="42.141440206951067" font-family="sans-serif" font-size="9" fill="#d50000">V01</text>
<circle cx="198.38798165789436" cy="18.478941251868434" r="4" fill="#d50000" stroke="white"/><text x="203.38798165789436" y="30.478941251868434" font-family="sans-serif" font-size="9" fill="#d50000">V02</text>
<circle cx="198.38798165789436" cy="18.478941251868434" r="4" fill="#d50000" stroke="white"/><text x="203.38798165789436" y="30.478941251868434" font-family="sans-serif" font-size="9" fill="#d50000">V03</text>
<circle cx="215.90900070467774" cy="19.38571516811675" r="4" fill="#d50000" stroke="white"/><text x="220.90900070467774" y="31.38571516811675" font-family="sans-serif" font-size="9" fill="#d50000">V04</text>
<circle cx="215.90900070467774" cy="19.38571516811675" r="4" fill="#d50000" stroke="white"/><text x="220.90900070467774" y="31.38571516811675" font-family="sans-serif" font-size="9" fill="#d50000">V05</text>
<circle cx="215.90900070467774" cy="19.38571516811675" r="4" fill="#d50000" stroke="white"/><text x="220.90900070467774" y="31.38571516811675" font-family="sans-serif" font-size="9" fill="#d50000">V06</text>
<circle cx="215.86885030919808" cy="22.578035395045557" r="4" fill="#d50000" stroke="white"/><text x="220.86885030919808" y="34.578035395045561" font-family="sans-serif" font-size="9" fill="#d50000">V07</text>
<circle cx="215.86885030919808" cy="22.578035395045557" r="4" fill="#d50000" stroke="white"/><text x="220.86885030919808" y="34.578035395045561" font-family="sans-serif" font-size="9" fill="#d50000">V08</text>
<circle cx="215.86885030919808" cy="22.578035395045557" r="4" fill="#d50000" stroke="white"/><text x="220.86885030919808" y="34.578035395045561" font-family="sans-serif" font-size="9" fill="#d50000">V09</text>
<circle cx="379.93884176452207" cy="25.247483039199622" r="4" fill="#d50000" stroke="white"/><text x="384.93884176452207" y="37.247483039199622" font-family="sans-serif" font-size="9" fill="#d50000">V10</text>
<circle cx="379.93884176452207" cy="25.247483039199622" r="4" fill="#d50000" stroke="white"/><text x="384.93884176452207" y="37.247483039199622" font-family="sans-serif" font-size="9" fill="#d50000">V11</text>
<circle cx="467.01980925190458" cy="21.951735584858984" r="4" fill="#d50000" stroke="white"/><text x="472.01980925190458" y="33.95173558485898" font-family="sans-serif" font-size="9" fill="#d50000">V12</text>
<circle cx="467.01980925190458" cy="21.951735584858984" r="4" fill="#d50000" stroke="white"/><text x="472.01980925190458" y="33.95173558485898" font-family="sans-serif" font-size="9" fill="#d50000">V13</text>
<text x="-450.94423346013093" y="-556.32581759845903" font-family="sans-serif" font-size="14" font-weight="bold">face:005 — EXTERIOR</text>
</svg>
