<svg xmlns="http://www.w3.org/2000/svg" viewBox="-433.94423346013093 -696.0023878811212 1177.4947147431421 1297.6423136668732" width="1500" height="1100">
<rect x="-433.94423346013093" y="-696.0023878811212" width="1177.4947147431421" height="1297.6423136668732" fill="white"/>
<text x="-421.94423346013093" y="-671.0023878811212" font-size="18" font-weight="bold">IAMP COMMON-METRIC GUARD — NODES</text>
<line x1="467.003953283" y1="24.472202394" x2="215.899349261" y2="20.919909972" stroke="#777" stroke-width="1.35"/>
<line x1="467.003953283" y1="24.472202394" x2="625.355328049" y2="165.170309886" stroke="#777" stroke-width="1.35"/>
<line x1="283.819824466" y1="31.487618864" x2="35.544945164" y2="20.919909972" stroke="#777" stroke-width="1.35"/>
<line x1="283.819824466" y1="31.487618864" x2="625.355328049" y2="165.170309886" stroke="#777" stroke-width="1.35"/>
<line x1="-334.429975780" y1="111.113448380" x2="-164.804317053" y2="68.187760339" stroke="#777" stroke-width="1.35"/>
<line x1="-334.429975780" y1="111.113448380" x2="-368.944233460" y2="-356.429047171" stroke="#777" stroke-width="1.35"/>
<line x1="470.424631725" y1="19.452588377" x2="199.349316443" y2="-65.641767449" stroke="#777" stroke-width="1.35"/>
<line x1="470.424631725" y1="19.452588377" x2="625.355328049" y2="165.170309886" stroke="#777" stroke-width="1.35"/>
<line x1="249.630078223" y1="152.013885479" x2="18.105015047" y2="17.741686326" stroke="#777" stroke-width="1.35"/>
<line x1="249.630078223" y1="152.013885479" x2="625.355328049" y2="165.170309886" stroke="#777" stroke-width="1.35"/>
<line x1="340.342483559" y1="210.036375915" x2="80.857407320" y2="157.273325910" stroke="#777" stroke-width="1.35"/>
<line x1="340.342483559" y1="210.036375915" x2="625.355328049" y2="165.170309886" stroke="#777" stroke-width="1.35"/>
<line x1="379.910455636" y1="27.254042980" x2="215.899349261" y2="20.919909972" stroke="#777" stroke-width="1.35"/>
<line x1="379.910455636" y1="27.254042980" x2="35.544945164" y2="20.919909972" stroke="#777" stroke-width="1.35"/>
<line x1="379.910455636" y1="27.254042980" x2="625.355328049" y2="165.170309886" stroke="#777" stroke-width="1.35"/>
<line x1="102.846235176" y1="-377.721460251" x2="-3.554241234" y2="-237.888236739" stroke="#777" stroke-width="1.35"/>
<line x1="102.846235176" y1="-377.721460251" x2="404.880252187" y2="-446.152627802" stroke="#777" stroke-width="1.35"/>
<line x1="102.846235176" y1="-377.721460251" x2="94.232343946" y2="-631.002387881" stroke="#777" stroke-width="1.35"/>
<line x1="44.637539564" y1="327.563888645" x2="80.857407320" y2="157.273325910" stroke="#777" stroke-width="1.35"/>
<line x1="44.637539564" y1="327.563888645" x2="-190.279498927" y2="476.676009551" stroke="#777" stroke-width="1.35"/>
<line x1="44.637539564" y1="327.563888645" x2="78.639563033" y2="536.639925786" stroke="#777" stroke-width="1.35"/>
<line x1="-104.454456767" y1="-376.024768106" x2="-3.554241234" y2="-237.888236739" stroke="#777" stroke-width="1.35"/>
<line x1="-104.454456767" y1="-376.024768106" x2="-368.944233460" y2="-356.429047171" stroke="#777" stroke-width="1.35"/>
<line x1="-104.454456767" y1="-376.024768106" x2="-175.511206893" y2="-559.944945267" stroke="#777" stroke-width="1.35"/>
<line x1="-86.666005600" y1="-311.026110593" x2="-3.554241234" y2="-237.888236739" stroke="#777" stroke-width="1.35"/>
<line x1="-86.666005600" y1="-311.026110593" x2="-63.988629947" y2="12.592263277" stroke="#777" stroke-width="1.35"/>
<line x1="-297.091066865" y1="95.475265711" x2="-63.988629947" y2="12.592263277" stroke="#777" stroke-width="1.35"/>
<line x1="-297.091066865" y1="95.475265711" x2="-164.804317053" y2="68.187760339" stroke="#777" stroke-width="1.35"/>
<line x1="678.550481283" y1="-205.026685660" x2="625.355328049" y2="165.170309886" stroke="#777" stroke-width="1.35"/>
<line x1="678.550481283" y1="-205.026685660" x2="404.880252187" y2="-446.152627802" stroke="#777" stroke-width="1.35"/>
<line x1="-281.601562058" y1="236.646172735" x2="-164.804317053" y2="68.187760339" stroke="#777" stroke-width="1.35"/>
<line x1="-281.601562058" y1="236.646172735" x2="-190.279498927" y2="476.676009551" stroke="#777" stroke-width="1.35"/>
<line x1="-32.448557027" y1="-329.272681529" x2="-3.554241234" y2="-237.888236739" stroke="#777" stroke-width="1.35"/>
<line x1="-135.846397255" y1="-24.784725086" x2="-63.988629947" y2="12.592263277" stroke="#777" stroke-width="1.35"/>
<line x1="-260.631870811" y1="114.257980469" x2="-164.804317053" y2="68.187760339" stroke="#777" stroke-width="1.35"/>
<line x1="91.110644326" y1="243.369245188" x2="80.857407320" y2="157.273325910" stroke="#777" stroke-width="1.35"/>
<line x1="0.000000000" y1="0.000000000" x2="215.899349261" y2="20.919909972" stroke="#777" stroke-width="1.35"/>
<line x1="0.000000000" y1="0.000000000" x2="35.544945164" y2="20.919909972" stroke="#777" stroke-width="1.35"/>
<line x1="0.000000000" y1="0.000000000" x2="199.349316443" y2="-65.641767449" stroke="#777" stroke-width="1.35"/>
<line x1="0.000000000" y1="0.000000000" x2="18.105015047" y2="17.741686326" stroke="#777" stroke-width="1.35"/>
<line x1="0.000000000" y1="0.000000000" x2="80.857407320" y2="157.273325910" stroke="#777" stroke-width="1.35"/>
<line x1="0.000000000" y1="0.000000000" x2="-3.554241234" y2="-237.888236739" stroke="#777" stroke-width="1.35"/>
<line x1="0.000000000" y1="0.000000000" x2="-63.988629947" y2="12.592263277" stroke="#777" stroke-width="1.35"/>
<line x1="0.000000000" y1="0.000000000" x2="-164.804317053" y2="68.187760339" stroke="#777" stroke-width="1.35"/>
<circle cx="467.003953283" cy="24.472202394" r="4.3" fill="#1565c0" stroke="white" stroke-width="1"/>
<text x="479.904263273" y="26.079063359" font-size="13" font-weight="600" text-anchor="start" dominant-baseline="middle" fill="#111">C1</text>
<circle cx="283.819824466" cy="31.487618864" r="4.3" fill="#1565c0" stroke="white" stroke-width="1"/>
<text x="296.390061557" y="34.802605965" font-size="13" font-weight="600" text-anchor="start" dominant-baseline="middle" fill="#111">C2</text>
<circle cx="-334.429975780" cy="111.113448380" r="4.3" fill="#1565c0" stroke="white" stroke-width="1"/>
<text x="-346.748699807" y="115.266644541" font-size="13" font-weight="600" text-anchor="end" dominant-baseline="middle" fill="#111">JP1</text>
<circle cx="470.424631725" cy="19.452588377" r="4.3" fill="#1565c0" stroke="white" stroke-width="1"/>
<text x="483.345307316" y="20.886513858" font-size="13" font-weight="600" text-anchor="start" dominant-baseline="middle" fill="#111">J_EA</text>
<circle cx="249.630078223" cy="152.013885479" r="4.3" fill="#1565c0" stroke="white" stroke-width="1"/>
<text x="258.902640706" y="161.125393861" font-size="13" font-weight="600" text-anchor="start" dominant-baseline="middle" fill="#111">J_EB</text>
<circle cx="340.342483559" cy="210.036375915" r="4.3" fill="#1565c0" stroke="white" stroke-width="1"/>
<text x="350.161041074" y="218.556700341" font-size="13" font-weight="600" text-anchor="start" dominant-baseline="middle" fill="#111">J_OUT</text>
<circle cx="379.910455636" cy="27.254042980" r="4.3" fill="#1565c0" stroke="white" stroke-width="1"/>
<text x="392.729826353" y="29.413611088" font-size="13" font-weight="600" text-anchor="start" dominant-baseline="middle" fill="#111">J_PWR</text>
<circle cx="102.846235176" cy="-377.721460251" r="4.3" fill="#1565c0" stroke="white" stroke-width="1"/>
<text x="104.072224010" y="-390.663521577" font-size="13" font-weight="600" text-anchor="start" dominant-baseline="middle" fill="#111">J_R1</text>
<circle cx="44.637539564" cy="327.563888645" r="4.3" fill="#1565c0" stroke="white" stroke-width="1"/>
<text x="43.725462025" y="340.531853580" font-size="13" font-weight="600" text-anchor="end" dominant-baseline="middle" fill="#111">J_R4</text>
<circle cx="-104.454456767" cy="-376.024768106" r="4.3" fill="#1565c0" stroke="white" stroke-width="1"/>
<text x="-110.225825123" y="-387.673429286" font-size="13" font-weight="600" text-anchor="end" dominant-baseline="middle" fill="#111">J_RA</text>
<circle cx="-86.666005600" cy="-311.026110593" r="4.3" fill="#1565c0" stroke="white" stroke-width="1"/>
<text x="-92.894654391" y="-322.436804447" font-size="13" font-weight="600" text-anchor="end" dominant-baseline="middle" fill="#111">R2</text>
<circle cx="-297.091066865" cy="95.475265711" r="4.3" fill="#1565c0" stroke="white" stroke-width="1"/>
<text x="-309.440550993" y="99.536083580" font-size="13" font-weight="600" text-anchor="end" dominant-baseline="middle" fill="#111">R3</text>
<circle cx="678.550481283" cy="-205.026685660" r="4.3" fill="#1565c0" stroke="white" stroke-width="1"/>
<text x="691.017639066" y="-208.710430604" font-size="13" font-weight="600" text-anchor="start" dominant-baseline="middle" fill="#111">RMIN1</text>
<circle cx="-281.601562058" cy="236.646172735" r="4.3" fill="#1565c0" stroke="white" stroke-width="1"/>
<text x="-292.024104573" y="244.416025214" font-size="13" font-weight="600" text-anchor="end" dominant-baseline="middle" fill="#111">RMIN4</text>
<circle cx="-32.448557027" cy="-329.272681529" r="4.3" fill="#1565c0" stroke="white" stroke-width="1"/>
<text x="-36.576959998" y="-341.599736689" font-size="13" font-weight="600" text-anchor="end" dominant-baseline="middle" fill="#111">TPA</text>
<circle cx="-135.846397255" cy="-24.784725086" r="4.3" fill="#1565c0" stroke="white" stroke-width="1"/>
<text x="-148.846386517" y="-24.768016180" font-size="13" font-weight="600" text-anchor="end" dominant-baseline="middle" fill="#111">TPB</text>
<circle cx="-260.631870811" cy="114.257980469" r="4.3" fill="#1565c0" stroke="white" stroke-width="1"/>
<text x="-272.608846065" y="119.312885392" font-size="13" font-weight="600" text-anchor="end" dominant-baseline="middle" fill="#111">TPC</text>
<circle cx="91.110644326" cy="243.369245188" r="4.3" fill="#1565c0" stroke="white" stroke-width="1"/>
<text x="92.156893906" y="256.327075323" font-size="13" font-weight="600" text-anchor="start" dominant-baseline="middle" fill="#111">TPO</text>
<circle cx="0.000000000" cy="0.000000000" r="4.3" fill="#1565c0" stroke="white" stroke-width="1"/>
<text x="-12.228674658" y="4.411294154" font-size="13" font-weight="600" text-anchor="end" dominant-baseline="middle" fill="#111">U1</text>
<circle cx="215.899349261" cy="20.919909972" r="4.3" fill="#1565c0" stroke="white" stroke-width="1"/>
<text x="228.302774823" y="24.812856712" font-size="13" font-weight="600" text-anchor="start" dominant-baseline="middle" fill="#111">+9V</text>
<circle cx="35.544945164" cy="20.919909972" r="4.3" fill="#1565c0" stroke="white" stroke-width="1"/>
<text x="27.830198749" y="31.383307497" font-size="13" font-weight="600" text-anchor="end" dominant-baseline="middle" fill="#111">-9V</text>
<circle cx="199.349316443" cy="-65.641767449" r="4.3" fill="#1565c0" stroke="white" stroke-width="1"/>
<text x="211.757668582" y="-69.518982584" font-size="13" font-weight="600" text-anchor="start" dominant-baseline="middle" fill="#111">EA</text>
<circle cx="18.105015047" cy="17.741686326" r="4.3" fill="#1565c0" stroke="white" stroke-width="1"/>
<text x="8.119370587" y="26.065561909" font-size="13" font-weight="600" text-anchor="end" dominant-baseline="middle" fill="#111">EB</text>
<circle cx="80.857407320" cy="157.273325910" r="4.3" fill="#1565c0" stroke="white" stroke-width="1"/>
<text x="81.670055439" y="170.247901165" font-size="13" font-weight="600" text-anchor="start" dominant-baseline="middle" fill="#111">EOUT</text>
<circle cx="625.355328049" cy="165.170309886" r="4.3" fill="#1565c0" stroke="white" stroke-width="1"/>
<text x="637.655211816" y="169.378974678" font-size="13" font-weight="600" text-anchor="start" dominant-baseline="middle" fill="#111">GND</text>
<circle cx="-3.554241234" cy="-237.888236739" r="4.3" fill="#1565c0" stroke="white" stroke-width="1"/>
<text x="-7.771414946" y="-250.185205711" font-size="13" font-weight="600" text-anchor="end" dominant-baseline="middle" fill="#111">NODE_A</text>
<circle cx="-63.988629947" cy="12.592263277" r="4.3" fill="#1565c0" stroke="white" stroke-width="1"/>
<text x="-76.500286505" y="16.121916262" font-size="13" font-weight="600" text-anchor="end" dominant-baseline="middle" fill="#111">NODE_B</text>
<circle cx="-164.804317053" cy="68.187760339" r="4.3" fill="#1565c0" stroke="white" stroke-width="1"/>
<text x="-176.882685330" y="72.995360548" font-size="13" font-weight="600" text-anchor="end" dominant-baseline="middle" fill="#111">NODE_C</text>
<circle cx="404.880252187" cy="-446.152627802" r="4.3" fill="#1565c0" stroke="white" stroke-width="1"/>
<text x="412.980055408" y="-456.320871888" font-size="13" font-weight="600" text-anchor="start" dominant-baseline="middle" fill="#111">R1_EXT</text>
<circle cx="94.232343946" cy="-631.002387881" r="4.3" fill="#1565c0" stroke="white" stroke-width="1"/>
<text x="94.763834241" y="-643.991518648" font-size="13" font-weight="600" text-anchor="start" dominant-baseline="middle" fill="#111">R1_W</text>
<circle cx="-190.279498927" cy="476.676009551" r="4.3" fill="#1565c0" stroke="white" stroke-width="1"/>
<text x="-196.255711869" y="488.220916605" font-size="13" font-weight="600" text-anchor="end" dominant-baseline="middle" fill="#111">R4_EXT</text>
<circle cx="78.639563033" cy="536.639925786" r="4.3" fill="#1565c0" stroke="white" stroke-width="1"/>
<text x="78.852502884" y="549.638181693" font-size="13" font-weight="600" text-anchor="start" dominant-baseline="middle" fill="#111">R4_W</text>
<circle cx="-368.944233460" cy="-356.429047171" r="4.3" fill="#1565c0" stroke="white" stroke-width="1"/>
<text x="-379.314705741" y="-364.268262991" font-size="13" font-weight="600" text-anchor="end" dominant-baseline="middle" fill="#111">RA_SW</text>
<circle cx="-175.511206893" cy="-559.944945267" r="4.3" fill="#1565c0" stroke="white" stroke-width="1"/>
<text x="-180.923851062" y="-571.764559605" font-size="13" font-weight="600" text-anchor="end" dominant-baseline="middle" fill="#111">RA_W</text>
</svg>
