<svg xmlns="http://www.w3.org/2000/svg" viewBox="-653.13722711548633 -654.66412035035239 2943.3754167969955 1270.4883768812051" width="2200" height="1000">
<g transform="translate(0 0)"><rect x="-653.13722711548633" y="-654.66412035035239" width="1431.6877083984978" height="1270.4883768812051" fill="white" stroke="#aaa"/>
<text x="-635.13722711548633" y="-622.66412035035239" font-family="sans-serif" font-size="22" font-weight="bold">A. AUTHORITATIVE 150-SEPARATED START</text>
<line x1="585.15314450045014" y1="44.10513786943131" x2="305.35336659748407" y2="-130.16410912949607" stroke="#777" stroke-width="2"/>
<line x1="585.15314450045014" y1="44.10513786943131" x2="636.64526753581492" y2="185.44048918135084" stroke="#777" stroke-width="2"/>
<line x1="217.20145153963011" y1="136.70224862724646" x2="77.664577101820043" y2="81.66171200080332" stroke="#777" stroke-width="2"/>
<line x1="217.20145153963011" y1="136.70224862724646" x2="636.64526753581492" y2="185.44048918135084" stroke="#777" stroke-width="2"/>
<line x1="-351.13281761469773" y1="-49.783825147788058" x2="-128.69913541577563" y2="167.91357523641804" stroke="#777" stroke-width="2"/>
<line x1="-351.13281761469773" y1="-49.783825147788058" x2="-368.94423346013093" y2="-356.42904717108132" stroke="#777" stroke-width="2"/>
<line x1="466.3201052222451" y1="-60.809958958478411" x2="193.05955077749798" y2="-30.715132621001828" stroke="#777" stroke-width="2"/>
<line x1="466.3201052222451" y1="-60.809958958478411" x2="636.64526753581492" y2="185.44048918135084" stroke="#777" stroke-width="2"/>
<line x1="329.75056995433863" y1="31.055129450617855" x2="47.626318824293641" y2="-67.44625081314868" stroke="#777" stroke-width="2"/>
<line x1="329.75056995433863" y1="31.055129450617855" x2="636.64526753581492" y2="185.44048918135084" stroke="#777" stroke-width="2"/>
<line x1="343.0952347607232" y1="218.25441197243572" x2="13.033717109884497" y2="217.02364142227256" stroke="#777" stroke-width="2"/>
<line x1="343.0952347607232" y1="218.25441197243572" x2="636.64526753581492" y2="185.44048918135084" stroke="#777" stroke-width="2"/>
<line x1="453.45010654968121" y1="115.89865982328391" x2="305.35336659748407" y2="-130.16410912949607" stroke="#777" stroke-width="2"/>
<line x1="453.45010654968121" y1="115.89865982328391" x2="77.664577101820043" y2="81.66171200080332" stroke="#777" stroke-width="2"/>
<line x1="453.45010654968121" y1="115.89865982328391" x2="636.64526753581492" y2="185.44048918135084" stroke="#777" stroke-width="2"/>
<line x1="147.22735220650199" y1="-371.87601849766691" x2="47.378461841342308" y2="-223.34901690180956" stroke="#777" stroke-width="2"/>
<line x1="147.22735220650199" y1="-371.87601849766691" x2="404.88025218730104" y2="-446.15262780238589" stroke="#777" stroke-width="2"/>
<line x1="147.22735220650199" y1="-371.87601849766691" x2="122.26060462706238" y2="-520.69219128663667" stroke="#777" stroke-width="2"/>
<line x1="21.661080190710411" y1="366.77533125003913" x2="13.033717109884497" y2="217.02364142227256" stroke="#777" stroke-width="2"/>
<line x1="21.661080190710411" y1="366.77533125003913" x2="-190.2794989274509" y2="476.67600955087613" stroke="#777" stroke-width="2"/>
<line x1="21.661080190710411" y1="366.77533125003913" x2="38.52577326928462" y2="515.82425653085261" stroke="#777" stroke-width="2"/>
<line x1="-144.7727416651307" y1="-413.33025815890562" x2="47.378461841342308" y2="-223.34901690180956" stroke="#777" stroke-width="2"/>
<line x1="-144.7727416651307" y1="-413.33025815890562" x2="-368.94423346013093" y2="-356.42904717108132" stroke="#777" stroke-width="2"/>
<line x1="-144.7727416651307" y1="-413.33025815890562" x2="-195.01952661749493" y2="-554.66412035035239" stroke="#777" stroke-width="2"/>
<line x1="-145.37618202525488" y1="-263.33147196471072" x2="47.378461841342308" y2="-223.34901690180956" stroke="#777" stroke-width="2"/>
<line x1="-145.37618202525488" y1="-263.33147196471072" x2="-64.261077591642959" y2="32.459757631103841" stroke="#777" stroke-width="2"/>
<line x1="-416.83059005780092" y1="85.063505919661068" x2="-64.261077591642959" y2="32.459757631103841" stroke="#777" stroke-width="2"/>
<line x1="-416.83059005780092" y1="85.063505919661068" x2="-128.69913541577563" y2="167.91357523641804" stroke="#777" stroke-width="2"/>
<line x1="678.55048128301132" y1="-205.02668566046128" x2="636.64526753581492" y2="185.44048918135084" stroke="#777" stroke-width="2"/>
<line x1="678.55048128301132" y1="-205.02668566046128" x2="404.88025218730104" y2="-446.15262780238589" stroke="#777" stroke-width="2"/>
<line x1="-293.16840900557713" y1="280.57036651175036" x2="-128.69913541577563" y2="167.91357523641804" stroke="#777" stroke-width="2"/>
<line x1="-293.16840900557713" y1="280.57036651175036" x2="-190.2794989274509" y2="476.67600955087613" stroke="#777" stroke-width="2"/>
<line x1="-2.6086619026403626" y1="-364.86396630983387" x2="47.378461841342308" y2="-223.34901690180956" stroke="#777" stroke-width="2"/>
<line x1="-203.47090245069998" y1="-23.40279389235123" x2="-64.261077591642959" y2="32.459757631103841" stroke="#777" stroke-width="2"/>
<line x1="-274.25386659235079" y1="131.66691701645325" x2="-128.69913541577563" y2="167.91357523641804" stroke="#777" stroke-width="2"/>
<line x1="152.57059154975272" y1="272.06417804976417" x2="13.033717109884497" y2="217.02364142227256" stroke="#777" stroke-width="2"/>
<line x1="-91.583506034763374" y1="-123.30880233660373" x2="305.35336659748407" y2="-130.16410912949607" stroke="#777" stroke-width="2"/>
<line x1="-91.583506034763374" y1="-123.30880233660373" x2="77.664577101820043" y2="81.66171200080332" stroke="#777" stroke-width="2"/>
<line x1="-91.583506034763374" y1="-123.30880233660373" x2="193.05955077749798" y2="-30.715132621001828" stroke="#777" stroke-width="2"/>
<line x1="-91.583506034763374" y1="-123.30880233660373" x2="47.626318824293641" y2="-67.44625081314868" stroke="#777" stroke-width="2"/>
<line x1="-91.583506034763374" y1="-123.30880233660373" x2="13.033717109884497" y2="217.02364142227256" stroke="#777" stroke-width="2"/>
<line x1="-91.583506034763374" y1="-123.30880233660373" x2="47.378461841342308" y2="-223.34901690180956" stroke="#777" stroke-width="2"/>
<line x1="-91.583506034763374" y1="-123.30880233660373" x2="-64.261077591642959" y2="32.459757631103841" stroke="#777" stroke-width="2"/>
<line x1="-91.583506034763374" y1="-123.30880233660373" x2="-128.69913541577563" y2="167.91357523641804" stroke="#777" stroke-width="2"/>
<circle cx="585.15314450045014" cy="44.10513786943131" r="8" fill="#1565c0" stroke="white"/><text x="596.15314450045014" y="33.10513786943131" font-family="sans-serif" font-size="14">C1</text>
<circle cx="217.20145153963011" cy="136.70224862724646" r="8" fill="#1565c0" stroke="white"/><text x="228.20145153963011" y="125.70224862724646" font-family="sans-serif" font-size="14">C2</text>
<circle cx="-351.13281761469773" cy="-49.783825147788058" r="8" fill="#1565c0" stroke="white"/><text x="-340.13281761469773" y="-60.783825147788058" font-family="sans-serif" font-size="14">JP1</text>
<circle cx="466.3201052222451" cy="-60.809958958478411" r="8" fill="#1565c0" stroke="white"/><text x="477.3201052222451" y="-71.809958958478404" font-family="sans-serif" font-size="14">J_EA</text>
<circle cx="329.75056995433863" cy="31.055129450617855" r="8" fill="#1565c0" stroke="white"/><text x="340.75056995433863" y="20.055129450617855" font-family="sans-serif" font-size="14">J_EB</text>
<circle cx="343.0952347607232" cy="218.25441197243572" r="8" fill="#1565c0" stroke="white"/><text x="354.0952347607232" y="207.25441197243572" font-family="sans-serif" font-size="14">J_OUT</text>
<circle cx="453.45010654968121" cy="115.89865982328391" r="8" fill="#1565c0" stroke="white"/><text x="464.45010654968121" y="104.89865982328391" font-family="sans-serif" font-size="14">J_PWR</text>
<circle cx="147.22735220650199" cy="-371.87601849766691" r="8" fill="#1565c0" stroke="white"/><text x="158.22735220650199" y="-382.87601849766691" font-family="sans-serif" font-size="14">J_R1</text>
<circle cx="21.661080190710411" cy="366.77533125003913" r="8" fill="#1565c0" stroke="white"/><text x="32.661080190710408" y="355.77533125003913" font-family="sans-serif" font-size="14">J_R4</text>
<circle cx="-144.7727416651307" cy="-413.33025815890562" r="8" fill="#1565c0" stroke="white"/><text x="-133.7727416651307" y="-424.33025815890562" font-family="sans-serif" font-size="14">J_RA</text>
<circle cx="-145.37618202525488" cy="-263.33147196471072" r="8" fill="#1565c0" stroke="white"/><text x="-134.37618202525488" y="-274.33147196471072" font-family="sans-serif" font-size="14">R2</text>
<circle cx="-416.83059005780092" cy="85.063505919661068" r="8" fill="#1565c0" stroke="white"/><text x="-405.83059005780092" y="74.063505919661068" font-family="sans-serif" font-size="14">R3</text>
<circle cx="678.55048128301132" cy="-205.02668566046128" r="8" fill="#1565c0" stroke="white"/><text x="689.55048128301132" y="-216.02668566046128" font-family="sans-serif" font-size="14">RMIN1</text>
<circle cx="-293.16840900557713" cy="280.57036651175036" r="8" fill="#1565c0" stroke="white"/><text x="-282.16840900557713" y="269.57036651175036" font-family="sans-serif" font-size="14">RMIN4</text>
<circle cx="-2.6086619026403626" cy="-364.86396630983387" r="8" fill="#1565c0" stroke="white"/><text x="8.3913380973596379" y="-375.86396630983387" font-family="sans-serif" font-size="14">TPA</text>
<circle cx="-203.47090245069998" cy="-23.40279389235123" r="8" fill="#1565c0" stroke="white"/><text x="-192.47090245069998" y="-34.402793892351227" font-family="sans-serif" font-size="14">TPB</text>
<circle cx="-274.25386659235079" cy="131.66691701645325" r="8" fill="#1565c0" stroke="white"/><text x="-263.25386659235079" y="120.66691701645325" font-family="sans-serif" font-size="14">TPC</text>
<circle cx="152.57059154975272" cy="272.06417804976417" r="8" fill="#1565c0" stroke="white"/><text x="163.57059154975272" y="261.06417804976417" font-family="sans-serif" font-size="14">TPO</text>
<circle cx="-91.583506034763374" cy="-123.30880233660373" r="8" fill="#1565c0" stroke="white"/><text x="-80.583506034763374" y="-134.30880233660372" font-family="sans-serif" font-size="14">U1</text>
<circle cx="305.35336659748407" cy="-130.16410912949607" r="8" fill="#d84315" stroke="white"/><text x="316.35336659748407" y="-141.16410912949607" font-family="sans-serif" font-size="14">+9V</text>
<circle cx="77.664577101820043" cy="81.66171200080332" r="8" fill="#d84315" stroke="white"/><text x="88.664577101820043" y="70.66171200080332" font-family="sans-serif" font-size="14">-9V</text>
<circle cx="193.05955077749798" cy="-30.715132621001828" r="8" fill="#d84315" stroke="white"/><text x="204.05955077749798" y="-41.715132621001828" font-family="sans-serif" font-size="14">EA</text>
<circle cx="47.626318824293641" cy="-67.44625081314868" r="8" fill="#d84315" stroke="white"/><text x="58.626318824293641" y="-78.44625081314868" font-family="sans-serif" font-size="14">EB</text>
<circle cx="13.033717109884497" cy="217.02364142227256" r="8" fill="#d84315" stroke="white"/><text x="24.033717109884499" y="206.02364142227256" font-family="sans-serif" font-size="14">EOUT</text>
<circle cx="636.64526753581492" cy="185.44048918135084" r="8" fill="#d84315" stroke="white"/><text x="647.64526753581492" y="174.44048918135084" font-family="sans-serif" font-size="14">GND</text>
<circle cx="47.378461841342308" cy="-223.34901690180956" r="8" fill="#d84315" stroke="white"/><text x="58.378461841342308" y="-234.34901690180956" font-family="sans-serif" font-size="14">NODE_A</text>
<circle cx="-64.261077591642959" cy="32.459757631103841" r="8" fill="#d84315" stroke="white"/><text x="-53.261077591642959" y="21.459757631103841" font-family="sans-serif" font-size="14">NODE_B</text>
<circle cx="-128.69913541577563" cy="167.91357523641804" r="8" fill="#d84315" stroke="white"/><text x="-117.69913541577563" y="156.91357523641804" font-family="sans-serif" font-size="14">NODE_C</text>
<circle cx="404.88025218730104" cy="-446.15262780238589" r="8" fill="#d84315" stroke="white"/><text x="415.88025218730104" y="-457.15262780238589" font-family="sans-serif" font-size="14">R1_EXT</text>
<circle cx="122.26060462706238" cy="-520.69219128663667" r="8" fill="#d84315" stroke="white"/><text x="133.26060462706238" y="-531.69219128663667" font-family="sans-serif" font-size="14">R1_W</text>
<circle cx="-190.2794989274509" cy="476.67600955087613" r="8" fill="#d84315" stroke="white"/><text x="-179.2794989274509" y="465.67600955087613" font-family="sans-serif" font-size="14">R4_EXT</text>
<circle cx="38.52577326928462" cy="515.82425653085261" r="8" fill="#d84315" stroke="white"/><text x="49.52577326928462" y="504.82425653085261" font-family="sans-serif" font-size="14">R4_W</text>
<circle cx="-368.94423346013093" cy="-356.42904717108132" r="8" fill="#d84315" stroke="white"/><text x="-357.94423346013093" y="-367.42904717108132" font-family="sans-serif" font-size="14">RA_SW</text>
<circle cx="-195.01952661749493" cy="-554.66412035035239" r="8" fill="#d84315" stroke="white"/><text x="-184.01952661749493" y="-565.66412035035239" font-family="sans-serif" font-size="14">RA_W</text>
</g>
<g transform="translate(1511.6877083984978 0)"><rect x="-653.13722711548633" y="-654.66412035035239" width="1431.6877083984978" height="1270.4883768812051" fill="white" stroke="#aaa"/>
<text x="-635.13722711548633" y="-622.66412035035239" font-family="sans-serif" font-size="22" font-weight="bold">B. FINAL — TARGET-SPACING ANALYTIC UNCROSSING</text>
<line x1="612.36980228872289" y1="-10.169966024219164" x2="305.35336659748407" y2="-130.16410912949607" stroke="#777" stroke-width="2"/>
<line x1="612.36980228872289" y1="-10.169966024219164" x2="636.64526753581492" y2="185.44048918135084" stroke="#777" stroke-width="2"/>
<line x1="217.20145153963011" y1="136.70224862724646" x2="77.664577101820043" y2="81.66171200080332" stroke="#777" stroke-width="2"/>
<line x1="217.20145153963011" y1="136.70224862724646" x2="636.64526753581492" y2="185.44048918135084" stroke="#777" stroke-width="2"/>
<line x1="-351.13281761469773" y1="-49.783825147788058" x2="-553.13722711548633" y2="147.67741071824832" stroke="#777" stroke-width="2"/>
<line x1="-351.13281761469773" y1="-49.783825147788058" x2="-368.94423346013093" y2="-356.42904717108132" stroke="#777" stroke-width="2"/>
<line x1="466.3201052222451" y1="-60.809958958478411" x2="193.05955077749798" y2="-30.715132621001828" stroke="#777" stroke-width="2"/>
<line x1="466.3201052222451" y1="-60.809958958478411" x2="636.64526753581492" y2="185.44048918135084" stroke="#777" stroke-width="2"/>
<line x1="329.75056995433863" y1="31.055129450617855" x2="47.626318824293641" y2="-67.44625081314868" stroke="#777" stroke-width="2"/>
<line x1="329.75056995433863" y1="31.055129450617855" x2="636.64526753581492" y2="185.44048918135084" stroke="#777" stroke-width="2"/>
<line x1="343.0952347607232" y1="218.25441197243572" x2="13.033717109884497" y2="217.02364142227256" stroke="#777" stroke-width="2"/>
<line x1="343.0952347607232" y1="218.25441197243572" x2="636.64526753581492" y2="185.44048918135084" stroke="#777" stroke-width="2"/>
<line x1="453.45010654968121" y1="115.89865982328391" x2="305.35336659748407" y2="-130.16410912949607" stroke="#777" stroke-width="2"/>
<line x1="453.45010654968121" y1="115.89865982328391" x2="77.664577101820043" y2="81.66171200080332" stroke="#777" stroke-width="2"/>
<line x1="453.45010654968121" y1="115.89865982328391" x2="636.64526753581492" y2="185.44048918135084" stroke="#777" stroke-width="2"/>
<line x1="147.22735220650199" y1="-371.87601849766691" x2="47.378461841342308" y2="-223.34901690180956" stroke="#777" stroke-width="2"/>
<line x1="147.22735220650199" y1="-371.87601849766691" x2="404.88025218730104" y2="-446.15262780238589" stroke="#777" stroke-width="2"/>
<line x1="147.22735220650199" y1="-371.87601849766691" x2="122.26060462706238" y2="-520.69219128663667" stroke="#777" stroke-width="2"/>
<line x1="21.661080190710411" y1="366.77533125003913" x2="13.033717109884497" y2="217.02364142227256" stroke="#777" stroke-width="2"/>
<line x1="21.661080190710411" y1="366.77533125003913" x2="-190.2794989274509" y2="476.67600955087613" stroke="#777" stroke-width="2"/>
<line x1="21.661080190710411" y1="366.77533125003913" x2="38.52577326928462" y2="515.82425653085261" stroke="#777" stroke-width="2"/>
<line x1="-144.7727416651307" y1="-413.33025815890562" x2="47.378461841342308" y2="-223.34901690180956" stroke="#777" stroke-width="2"/>
<line x1="-144.7727416651307" y1="-413.33025815890562" x2="-368.94423346013093" y2="-356.42904717108132" stroke="#777" stroke-width="2"/>
<line x1="-144.7727416651307" y1="-413.33025815890562" x2="-195.01952661749493" y2="-554.66412035035239" stroke="#777" stroke-width="2"/>
<line x1="-145.37618202525488" y1="-263.33147196471072" x2="47.378461841342308" y2="-223.34901690180956" stroke="#777" stroke-width="2"/>
<line x1="-145.37618202525488" y1="-263.33147196471072" x2="-64.261077591642959" y2="32.459757631103841" stroke="#777" stroke-width="2"/>
<line x1="-416.83059005780092" y1="85.063505919661068" x2="-64.261077591642959" y2="32.459757631103841" stroke="#777" stroke-width="2"/>
<line x1="-416.83059005780092" y1="85.063505919661068" x2="-553.13722711548633" y2="147.67741071824832" stroke="#777" stroke-width="2"/>
<line x1="678.55048128301132" y1="-205.02668566046128" x2="636.64526753581492" y2="185.44048918135084" stroke="#777" stroke-width="2"/>
<line x1="678.55048128301132" y1="-205.02668566046128" x2="404.88025218730104" y2="-446.15262780238589" stroke="#777" stroke-width="2"/>
<line x1="-293.16840900557713" y1="280.57036651175036" x2="-553.13722711548633" y2="147.67741071824832" stroke="#777" stroke-width="2"/>
<line x1="-293.16840900557713" y1="280.57036651175036" x2="-190.2794989274509" y2="476.67600955087613" stroke="#777" stroke-width="2"/>
<line x1="-2.6086619026403626" y1="-364.86396630983387" x2="47.378461841342308" y2="-223.34901690180956" stroke="#777" stroke-width="2"/>
<line x1="-203.47090245069998" y1="-23.40279389235123" x2="-64.261077591642959" y2="32.459757631103841" stroke="#777" stroke-width="2"/>
<line x1="-274.25386659235079" y1="131.66691701645325" x2="-553.13722711548633" y2="147.67741071824832" stroke="#777" stroke-width="2"/>
<line x1="152.57059154975272" y1="272.06417804976417" x2="13.033717109884497" y2="217.02364142227256" stroke="#777" stroke-width="2"/>
<line x1="-91.583506034763374" y1="-123.30880233660373" x2="305.35336659748407" y2="-130.16410912949607" stroke="#777" stroke-width="2"/>
<line x1="-91.583506034763374" y1="-123.30880233660373" x2="77.664577101820043" y2="81.66171200080332" stroke="#777" stroke-width="2"/>
<line x1="-91.583506034763374" y1="-123.30880233660373" x2="193.05955077749798" y2="-30.715132621001828" stroke="#777" stroke-width="2"/>
<line x1="-91.583506034763374" y1="-123.30880233660373" x2="47.626318824293641" y2="-67.44625081314868" stroke="#777" stroke-width="2"/>
<line x1="-91.583506034763374" y1="-123.30880233660373" x2="13.033717109884497" y2="217.02364142227256" stroke="#777" stroke-width="2"/>
<line x1="-91.583506034763374" y1="-123.30880233660373" x2="47.378461841342308" y2="-223.34901690180956" stroke="#777" stroke-width="2"/>
<line x1="-91.583506034763374" y1="-123.30880233660373" x2="-64.261077591642959" y2="32.459757631103841" stroke="#777" stroke-width="2"/>
<line x1="-91.583506034763374" y1="-123.30880233660373" x2="-553.13722711548633" y2="147.67741071824832" stroke="#777" stroke-width="2"/>
<circle cx="612.36980228872289" cy="-10.169966024219164" r="8" fill="#1565c0" stroke="white"/><text x="623.36980228872289" y="-21.169966024219164" font-family="sans-serif" font-size="14">C1</text>
<circle cx="217.20145153963011" cy="136.70224862724646" r="8" fill="#1565c0" stroke="white"/><text x="228.20145153963011" y="125.70224862724646" font-family="sans-serif" font-size="14">C2</text>
<circle cx="-351.13281761469773" cy="-49.783825147788058" r="8" fill="#1565c0" stroke="white"/><text x="-340.13281761469773" y="-60.783825147788058" font-family="sans-serif" font-size="14">JP1</text>
<circle cx="466.3201052222451" cy="-60.809958958478411" r="8" fill="#1565c0" stroke="white"/><text x="477.3201052222451" y="-71.809958958478404" font-family="sans-serif" font-size="14">J_EA</text>
<circle cx="329.75056995433863" cy="31.055129450617855" r="8" fill="#1565c0" stroke="white"/><text x="340.75056995433863" y="20.055129450617855" font-family="sans-serif" font-size="14">J_EB</text>
<circle cx="343.0952347607232" cy="218.25441197243572" r="8" fill="#1565c0" stroke="white"/><text x="354.0952347607232" y="207.25441197243572" font-family="sans-serif" font-size="14">J_OUT</text>
<circle cx="453.45010654968121" cy="115.89865982328391" r="8" fill="#1565c0" stroke="white"/><text x="464.45010654968121" y="104.89865982328391" font-family="sans-serif" font-size="14">J_PWR</text>
<circle cx="147.22735220650199" cy="-371.87601849766691" r="8" fill="#1565c0" stroke="white"/><text x="158.22735220650199" y="-382.87601849766691" font-family="sans-serif" font-size="14">J_R1</text>
<circle cx="21.661080190710411" cy="366.77533125003913" r="8" fill="#1565c0" stroke="white"/><text x="32.661080190710408" y="355.77533125003913" font-family="sans-serif" font-size="14">J_R4</text>
<circle cx="-144.7727416651307" cy="-413.33025815890562" r="8" fill="#1565c0" stroke="white"/><text x="-133.7727416651307" y="-424.33025815890562" font-family="sans-serif" font-size="14">J_RA</text>
<circle cx="-145.37618202525488" cy="-263.33147196471072" r="8" fill="#1565c0" stroke="white"/><text x="-134.37618202525488" y="-274.33147196471072" font-family="sans-serif" font-size="14">R2</text>
<circle cx="-416.83059005780092" cy="85.063505919661068" r="8" fill="#1565c0" stroke="white"/><text x="-405.83059005780092" y="74.063505919661068" font-family="sans-serif" font-size="14">R3</text>
<circle cx="678.55048128301132" cy="-205.02668566046128" r="8" fill="#1565c0" stroke="white"/><text x="689.55048128301132" y="-216.02668566046128" font-family="sans-serif" font-size="14">RMIN1</text>
<circle cx="-293.16840900557713" cy="280.57036651175036" r="8" fill="#1565c0" stroke="white"/><text x="-282.16840900557713" y="269.57036651175036" font-family="sans-serif" font-size="14">RMIN4</text>
<circle cx="-2.6086619026403626" cy="-364.86396630983387" r="8" fill="#1565c0" stroke="white"/><text x="8.3913380973596379" y="-375.86396630983387" font-family="sans-serif" font-size="14">TPA</text>
<circle cx="-203.47090245069998" cy="-23.40279389235123" r="8" fill="#1565c0" stroke="white"/><text x="-192.47090245069998" y="-34.402793892351227" font-family="sans-serif" font-size="14">TPB</text>
<circle cx="-274.25386659235079" cy="131.66691701645325" r="8" fill="#1565c0" stroke="white"/><text x="-263.25386659235079" y="120.66691701645325" font-family="sans-serif" font-size="14">TPC</text>
<circle cx="152.57059154975272" cy="272.06417804976417" r="8" fill="#1565c0" stroke="white"/><text x="163.57059154975272" y="261.06417804976417" font-family="sans-serif" font-size="14">TPO</text>
<circle cx="-91.583506034763374" cy="-123.30880233660373" r="8" fill="#1565c0" stroke="white"/><text x="-80.583506034763374" y="-134.30880233660372" font-family="sans-serif" font-size="14">U1</text>
<circle cx="305.35336659748407" cy="-130.16410912949607" r="8" fill="#d84315" stroke="white"/><text x="316.35336659748407" y="-141.16410912949607" font-family="sans-serif" font-size="14">+9V</text>
<circle cx="77.664577101820043" cy="81.66171200080332" r="8" fill="#d84315" stroke="white"/><text x="88.664577101820043" y="70.66171200080332" font-family="sans-serif" font-size="14">-9V</text>
<circle cx="193.05955077749798" cy="-30.715132621001828" r="8" fill="#d84315" stroke="white"/><text x="204.05955077749798" y="-41.715132621001828" font-family="sans-serif" font-size="14">EA</text>
<circle cx="47.626318824293641" cy="-67.44625081314868" r="8" fill="#d84315" stroke="white"/><text x="58.626318824293641" y="-78.44625081314868" font-family="sans-serif" font-size="14">EB</text>
<circle cx="13.033717109884497" cy="217.02364142227256" r="8" fill="#d84315" stroke="white"/><text x="24.033717109884499" y="206.02364142227256" font-family="sans-serif" font-size="14">EOUT</text>
<circle cx="636.64526753581492" cy="185.44048918135084" r="8" fill="#d84315" stroke="white"/><text x="647.64526753581492" y="174.44048918135084" font-family="sans-serif" font-size="14">GND</text>
<circle cx="47.378461841342308" cy="-223.34901690180956" r="8" fill="#d84315" stroke="white"/><text x="58.378461841342308" y="-234.34901690180956" font-family="sans-serif" font-size="14">NODE_A</text>
<circle cx="-64.261077591642959" cy="32.459757631103841" r="8" fill="#d84315" stroke="white"/><text x="-53.261077591642959" y="21.459757631103841" font-family="sans-serif" font-size="14">NODE_B</text>
<circle cx="-553.13722711548633" cy="147.67741071824832" r="8" fill="#d84315" stroke="white"/><text x="-542.13722711548633" y="136.67741071824832" font-family="sans-serif" font-size="14">NODE_C</text>
<circle cx="404.88025218730104" cy="-446.15262780238589" r="8" fill="#d84315" stroke="white"/><text x="415.88025218730104" y="-457.15262780238589" font-family="sans-serif" font-size="14">R1_EXT</text>
<circle cx="122.26060462706238" cy="-520.69219128663667" r="8" fill="#d84315" stroke="white"/><text x="133.26060462706238" y="-531.69219128663667" font-family="sans-serif" font-size="14">R1_W</text>
<circle cx="-190.2794989274509" cy="476.67600955087613" r="8" fill="#d84315" stroke="white"/><text x="-179.2794989274509" y="465.67600955087613" font-family="sans-serif" font-size="14">R4_EXT</text>
<circle cx="38.52577326928462" cy="515.82425653085261" r="8" fill="#d84315" stroke="white"/><text x="49.52577326928462" y="504.82425653085261" font-family="sans-serif" font-size="14">R4_W</text>
<circle cx="-368.94423346013093" cy="-356.42904717108132" r="8" fill="#d84315" stroke="white"/><text x="-357.94423346013093" y="-367.42904717108132" font-family="sans-serif" font-size="14">RA_SW</text>
<circle cx="-195.01952661749493" cy="-554.66412035035239" r="8" fill="#d84315" stroke="white"/><text x="-184.01952661749493" y="-565.66412035035239" font-family="sans-serif" font-size="14">RA_W</text>
</g>
</svg>
