<svg xmlns="http://www.w3.org/2000/svg" width="1476" height="1138" viewBox="0 0 1476 1138">
<rect width="1476" height="1138" fill="white"/>
<text x="10" y="26" font-size="18" font-family="DejaVu Sans, sans-serif">HRNG - closeness + density placement, orbit rule (preview: straight closeness-graph edges, not routed wires; density target 256 q^2/device, target distance 16q)</text>
<line x1="934.0" y1="296.0" x2="864.0" y2="576.0" stroke="#1f77b4" stroke-width="2.00" stroke-opacity="0.50"/>
<line x1="934.0" y1="296.0" x2="948.0" y2="786.0" stroke="#1f77b4" stroke-width="2.00" stroke-opacity="0.50"/>
<line x1="934.0" y1="296.0" x2="640.0" y2="590.0" stroke="#1f77b4" stroke-width="2.00" stroke-opacity="0.50"/>
<line x1="934.0" y1="296.0" x2="857.0" y2="513.0" stroke="#1f77b4" stroke-width="2.00" stroke-opacity="0.50"/>
<line x1="682.0" y1="660.0" x2="808.0" y2="282.0" stroke="#1f77b4" stroke-width="2.00" stroke-opacity="0.50"/>
<line x1="682.0" y1="660.0" x2="857.0" y2="513.0" stroke="#1f77b4" stroke-width="3.00" stroke-opacity="0.85"/>
<line x1="682.0" y1="660.0" x2="934.0" y2="716.0" stroke="#1f77b4" stroke-width="2.00" stroke-opacity="0.50"/>
<line x1="626.0" y1="506.0" x2="1004.0" y2="338.0" stroke="#1f77b4" stroke-width="2.00" stroke-opacity="0.50"/>
<line x1="626.0" y1="506.0" x2="857.0" y2="513.0" stroke="#1f77b4" stroke-width="2.00" stroke-opacity="0.50"/>
<line x1="626.0" y1="506.0" x2="290.0" y2="436.0" stroke="#1f77b4" stroke-width="2.00" stroke-opacity="0.50"/>
<line x1="626.0" y1="506.0" x2="493.0" y2="345.0" stroke="#1f77b4" stroke-width="2.00" stroke-opacity="0.50"/>
<line x1="864.0" y1="576.0" x2="948.0" y2="786.0" stroke="#1f77b4" stroke-width="2.00" stroke-opacity="0.50"/>
<line x1="780.0" y1="632.0" x2="696.0" y2="422.0" stroke="#1f77b4" stroke-width="3.00" stroke-opacity="0.85"/>
<line x1="780.0" y1="632.0" x2="416.0" y2="268.0" stroke="#1f77b4" stroke-width="2.00" stroke-opacity="0.50"/>
<line x1="780.0" y1="632.0" x2="584.0" y2="422.0" stroke="#1f77b4" stroke-width="2.00" stroke-opacity="0.50"/>
<line x1="248.0" y1="114.0" x2="213.0" y2="345.0" stroke="#1f77b4" stroke-width="3.10" stroke-opacity="0.88"/>
<line x1="248.0" y1="114.0" x2="276.0" y2="338.0" stroke="#1f77b4" stroke-width="3.00" stroke-opacity="0.85"/>
<line x1="416.0" y1="268.0" x2="584.0" y2="422.0" stroke="#1f77b4" stroke-width="2.10" stroke-opacity="0.53"/>
<line x1="416.0" y1="268.0" x2="213.0" y2="345.0" stroke="#1f77b4" stroke-width="2.10" stroke-opacity="0.53"/>
<line x1="416.0" y1="268.0" x2="360.0" y2="506.0" stroke="#1f77b4" stroke-width="2.00" stroke-opacity="0.50"/>
<line x1="430.0" y1="562.0" x2="696.0" y2="422.0" stroke="#1f77b4" stroke-width="2.00" stroke-opacity="0.50"/>
<line x1="430.0" y1="562.0" x2="493.0" y2="345.0" stroke="#1f77b4" stroke-width="3.00" stroke-opacity="0.85"/>
<line x1="430.0" y1="562.0" x2="710.0" y2="296.0" stroke="#1f77b4" stroke-width="2.00" stroke-opacity="0.50"/>
<line x1="696.0" y1="422.0" x2="493.0" y2="345.0" stroke="#1f77b4" stroke-width="2.00" stroke-opacity="0.50"/>
<line x1="360.0" y1="506.0" x2="213.0" y2="345.0" stroke="#1f77b4" stroke-width="2.40" stroke-opacity="0.64"/>
<line x1="276.0" y1="338.0" x2="472.0" y2="268.0" stroke="#1f77b4" stroke-width="2.00" stroke-opacity="0.50"/>
<line x1="276.0" y1="338.0" x2="213.0" y2="345.0" stroke="#1f77b4" stroke-width="2.00" stroke-opacity="0.50"/>
<line x1="472.0" y1="268.0" x2="213.0" y2="345.0" stroke="#1f77b4" stroke-width="2.10" stroke-opacity="0.53"/>
<line x1="640.0" y1="590.0" x2="857.0" y2="513.0" stroke="#1f77b4" stroke-width="2.00" stroke-opacity="0.50"/>
<line x1="640.0" y1="422.0" x2="808.0" y2="282.0" stroke="#1f77b4" stroke-width="2.00" stroke-opacity="0.50"/>
<line x1="640.0" y1="422.0" x2="857.0" y2="513.0" stroke="#1f77b4" stroke-width="2.00" stroke-opacity="0.50"/>
<line x1="808.0" y1="282.0" x2="857.0" y2="513.0" stroke="#1f77b4" stroke-width="3.00" stroke-opacity="0.85"/>
<line x1="934.0" y1="716.0" x2="857.0" y2="513.0" stroke="#1f77b4" stroke-width="2.00" stroke-opacity="0.50"/>
<line x1="1074.0" y1="562.0" x2="1004.0" y2="338.0" stroke="#1f77b4" stroke-width="2.00" stroke-opacity="0.50"/>
<line x1="1074.0" y1="562.0" x2="857.0" y2="513.0" stroke="#1f77b4" stroke-width="2.00" stroke-opacity="0.50"/>
<line x1="1004.0" y1="338.0" x2="857.0" y2="513.0" stroke="#1f77b4" stroke-width="3.00" stroke-opacity="0.85"/>
<line x1="290.0" y1="436.0" x2="493.0" y2="345.0" stroke="#1f77b4" stroke-width="2.00" stroke-opacity="0.50"/>
<line x1="710.0" y1="296.0" x2="493.0" y2="345.0" stroke="#1f77b4" stroke-width="2.00" stroke-opacity="0.50"/>
<rect x="920" y="282" width="28" height="28" fill="#f4f4f4" stroke="black" stroke-width="1.3"/>
<text x="934.0" y="300.0" font-size="11" font-family="DejaVu Sans, sans-serif" text-anchor="middle">C1</text>
<rect x="1368" y="814" width="28" height="28" fill="#f4f4f4" stroke="black" stroke-width="1.3"/>
<text x="1382.0" y="832.0" font-size="11" font-family="DejaVu Sans, sans-serif" text-anchor="middle">C13</text>
<rect x="780" y="506" width="28" height="28" fill="#f4f4f4" stroke="black" stroke-width="1.3"/>
<text x="794.0" y="524.0" font-size="11" font-family="DejaVu Sans, sans-serif" text-anchor="middle">C14</text>
<rect x="976" y="968" width="28" height="28" fill="#f4f4f4" stroke="black" stroke-width="1.3"/>
<text x="990.0" y="986.0" font-size="11" font-family="DejaVu Sans, sans-serif" text-anchor="middle">C15</text>
<rect x="1130" y="478" width="28" height="28" fill="#f4f4f4" stroke="black" stroke-width="1.3"/>
<text x="1144.0" y="496.0" font-size="11" font-family="DejaVu Sans, sans-serif" text-anchor="middle">C16</text>
<rect x="416" y="352" width="28" height="28" fill="#f4f4f4" stroke="black" stroke-width="1.3"/>
<text x="430.0" y="370.0" font-size="11" font-family="DejaVu Sans, sans-serif" text-anchor="middle">C17</text>
<rect x="668" y="646" width="28" height="28" fill="#f4f4f4" stroke="black" stroke-width="1.3"/>
<text x="682.0" y="664.0" font-size="11" font-family="DejaVu Sans, sans-serif" text-anchor="middle">C2</text>
<rect x="612" y="492" width="28" height="28" fill="#f4f4f4" stroke="black" stroke-width="1.3"/>
<text x="626.0" y="510.0" font-size="11" font-family="DejaVu Sans, sans-serif" text-anchor="middle">C3</text>
<rect x="1228" y="1024" width="28" height="28" fill="#f4f4f4" stroke="black" stroke-width="1.3"/>
<text x="1242.0" y="1042.0" font-size="11" font-family="DejaVu Sans, sans-serif" text-anchor="middle">C4</text>
<rect x="178" y="548" width="28" height="28" fill="#f4f4f4" stroke="black" stroke-width="1.3"/>
<text x="192.0" y="566.0" font-size="11" font-family="DejaVu Sans, sans-serif" text-anchor="middle">C5</text>
<rect x="66" y="506" width="28" height="28" fill="#f4f4f4" stroke="black" stroke-width="1.3"/>
<text x="80.0" y="524.0" font-size="11" font-family="DejaVu Sans, sans-serif" text-anchor="middle">C6</text>
<rect x="850" y="562" width="28" height="28" fill="#f4f4f4" stroke="black" stroke-width="1.3"/>
<text x="864.0" y="580.0" font-size="11" font-family="DejaVu Sans, sans-serif" text-anchor="middle">D1</text>
<rect x="766" y="618" width="28" height="28" fill="#f4f4f4" stroke="black" stroke-width="1.3"/>
<text x="780.0" y="636.0" font-size="11" font-family="DejaVu Sans, sans-serif" text-anchor="middle">D2</text>
<rect x="990" y="646" width="28" height="28" fill="#f4f4f4" stroke="black" stroke-width="1.3"/>
<text x="1004.0" y="664.0" font-size="11" font-family="DejaVu Sans, sans-serif" text-anchor="middle">J1</text>
<rect x="234" y="100" width="28" height="28" fill="#f4f4f4" stroke="black" stroke-width="1.3"/>
<text x="248.0" y="118.0" font-size="11" font-family="DejaVu Sans, sans-serif" text-anchor="middle">J2</text>
<rect x="402" y="254" width="28" height="28" fill="#f4f4f4" stroke="black" stroke-width="1.3"/>
<text x="416.0" y="272.0" font-size="11" font-family="DejaVu Sans, sans-serif" text-anchor="middle">Q1</text>
<rect x="934" y="772" width="28" height="28" fill="#f4f4f4" stroke="black" stroke-width="1.3"/>
<text x="948.0" y="790.0" font-size="11" font-family="DejaVu Sans, sans-serif" text-anchor="middle">R1</text>
<rect x="416" y="548" width="28" height="28" fill="#f4f4f4" stroke="black" stroke-width="1.3"/>
<text x="430.0" y="566.0" font-size="11" font-family="DejaVu Sans, sans-serif" text-anchor="middle">R10</text>
<rect x="682" y="408" width="28" height="28" fill="#f4f4f4" stroke="black" stroke-width="1.3"/>
<text x="696.0" y="426.0" font-size="11" font-family="DejaVu Sans, sans-serif" text-anchor="middle">R11</text>
<rect x="570" y="408" width="28" height="28" fill="#f4f4f4" stroke="black" stroke-width="1.3"/>
<text x="584.0" y="426.0" font-size="11" font-family="DejaVu Sans, sans-serif" text-anchor="middle">R12</text>
<rect x="346" y="492" width="28" height="28" fill="#f4f4f4" stroke="black" stroke-width="1.3"/>
<text x="360.0" y="510.0" font-size="11" font-family="DejaVu Sans, sans-serif" text-anchor="middle">R13</text>
<rect x="262" y="324" width="28" height="28" fill="#f4f4f4" stroke="black" stroke-width="1.3"/>
<text x="276.0" y="342.0" font-size="11" font-family="DejaVu Sans, sans-serif" text-anchor="middle">R14</text>
<rect x="458" y="254" width="28" height="28" fill="#f4f4f4" stroke="black" stroke-width="1.3"/>
<text x="472.0" y="272.0" font-size="11" font-family="DejaVu Sans, sans-serif" text-anchor="middle">R15</text>
<rect x="626" y="576" width="28" height="28" fill="#f4f4f4" stroke="black" stroke-width="1.3"/>
<text x="640.0" y="594.0" font-size="11" font-family="DejaVu Sans, sans-serif" text-anchor="middle">R2</text>
<rect x="626" y="408" width="28" height="28" fill="#f4f4f4" stroke="black" stroke-width="1.3"/>
<text x="640.0" y="426.0" font-size="11" font-family="DejaVu Sans, sans-serif" text-anchor="middle">R3</text>
<rect x="794" y="268" width="28" height="28" fill="#f4f4f4" stroke="black" stroke-width="1.3"/>
<text x="808.0" y="286.0" font-size="11" font-family="DejaVu Sans, sans-serif" text-anchor="middle">R4</text>
<rect x="920" y="702" width="28" height="28" fill="#f4f4f4" stroke="black" stroke-width="1.3"/>
<text x="934.0" y="720.0" font-size="11" font-family="DejaVu Sans, sans-serif" text-anchor="middle">R5</text>
<rect x="1060" y="548" width="28" height="28" fill="#f4f4f4" stroke="black" stroke-width="1.3"/>
<text x="1074.0" y="566.0" font-size="11" font-family="DejaVu Sans, sans-serif" text-anchor="middle">R6</text>
<rect x="990" y="324" width="28" height="28" fill="#f4f4f4" stroke="black" stroke-width="1.3"/>
<text x="1004.0" y="342.0" font-size="11" font-family="DejaVu Sans, sans-serif" text-anchor="middle">R7</text>
<rect x="276" y="422" width="28" height="28" fill="#f4f4f4" stroke="black" stroke-width="1.3"/>
<text x="290.0" y="440.0" font-size="11" font-family="DejaVu Sans, sans-serif" text-anchor="middle">R8</text>
<rect x="696" y="282" width="28" height="28" fill="#f4f4f4" stroke="black" stroke-width="1.3"/>
<text x="710.0" y="300.0" font-size="11" font-family="DejaVu Sans, sans-serif" text-anchor="middle">R9</text>
<rect x="836" y="492" width="42" height="42" fill="#f4f4f4" stroke="black" stroke-width="1.3"/>
<text x="857.0" y="517.0" font-size="11" font-family="DejaVu Sans, sans-serif" text-anchor="middle">U1</text>
<rect x="472" y="324" width="42" height="42" fill="#f4f4f4" stroke="black" stroke-width="1.3"/>
<text x="493.0" y="349.0" font-size="11" font-family="DejaVu Sans, sans-serif" text-anchor="middle">U2</text>
<rect x="1144" y="814" width="28" height="28" fill="#f4f4f4" stroke="black" stroke-width="1.3"/>
<text x="1158.0" y="832.0" font-size="11" font-family="DejaVu Sans, sans-serif" text-anchor="middle">U3</text>
<rect x="192" y="324" width="42" height="42" fill="#f4f4f4" stroke="black" stroke-width="1.3"/>
<text x="213.0" y="349.0" font-size="11" font-family="DejaVu Sans, sans-serif" text-anchor="middle">U4</text>
</svg>