%TF.GenerationSoftware,KiCad,Pcbnew,10.0.5*%
%TF.CreationDate,2026-09-24T17:49:10-05:00*%
%TF.ProjectId,cpo,63706f2e-6b69-4636-9164-5f7063625858,rev?*%
%TF.SameCoordinates,Original*%
%TF.FileFunction,Legend,Top*%
%TF.FilePolarity,Positive*%
%FSLAX46Y46*%
G04 Gerber Fmt 4.6, Leading zero omitted, Abs format (unit mm)*
G04 Created by KiCad (PCBNEW 10.0.5) date 2026-09-24 17:49:10*
%MOMM*%
%LPD*%
G01*
G04 APERTURE LIST*
%ADD10C,0.150000*%
%ADD11C,0.120000*%
G04 APERTURE END LIST*
D10*
X35408333Y-70577780D02*
X35360714Y-70625400D01*
X35360714Y-70625400D02*
X35217857Y-70673019D01*
X35217857Y-70673019D02*
X35122619Y-70673019D01*
X35122619Y-70673019D02*
X34979762Y-70625400D01*
X34979762Y-70625400D02*
X34884524Y-70530161D01*
X34884524Y-70530161D02*
X34836905Y-70434923D01*
X34836905Y-70434923D02*
X34789286Y-70244447D01*
X34789286Y-70244447D02*
X34789286Y-70101590D01*
X34789286Y-70101590D02*
X34836905Y-69911114D01*
X34836905Y-69911114D02*
X34884524Y-69815876D01*
X34884524Y-69815876D02*
X34979762Y-69720638D01*
X34979762Y-69720638D02*
X35122619Y-69673019D01*
X35122619Y-69673019D02*
X35217857Y-69673019D01*
X35217857Y-69673019D02*
X35360714Y-69720638D01*
X35360714Y-69720638D02*
X35408333Y-69768257D01*
X35741667Y-69673019D02*
X36360714Y-69673019D01*
X36360714Y-69673019D02*
X36027381Y-70053971D01*
X36027381Y-70053971D02*
X36170238Y-70053971D01*
X36170238Y-70053971D02*
X36265476Y-70101590D01*
X36265476Y-70101590D02*
X36313095Y-70149209D01*
X36313095Y-70149209D02*
X36360714Y-70244447D01*
X36360714Y-70244447D02*
X36360714Y-70482542D01*
X36360714Y-70482542D02*
X36313095Y-70577780D01*
X36313095Y-70577780D02*
X36265476Y-70625400D01*
X36265476Y-70625400D02*
X36170238Y-70673019D01*
X36170238Y-70673019D02*
X35884524Y-70673019D01*
X35884524Y-70673019D02*
X35789286Y-70625400D01*
X35789286Y-70625400D02*
X35741667Y-70577780D01*
X34027380Y-75673019D02*
X33455952Y-75673019D01*
X33741666Y-75673019D02*
X33741666Y-74673019D01*
X33741666Y-74673019D02*
X33646428Y-74815876D01*
X33646428Y-74815876D02*
X33551190Y-74911114D01*
X33551190Y-74911114D02*
X33455952Y-74958733D01*
X34646428Y-74673019D02*
X34741666Y-74673019D01*
X34741666Y-74673019D02*
X34836904Y-74720638D01*
X34836904Y-74720638D02*
X34884523Y-74768257D01*
X34884523Y-74768257D02*
X34932142Y-74863495D01*
X34932142Y-74863495D02*
X34979761Y-75053971D01*
X34979761Y-75053971D02*
X34979761Y-75292066D01*
X34979761Y-75292066D02*
X34932142Y-75482542D01*
X34932142Y-75482542D02*
X34884523Y-75577780D01*
X34884523Y-75577780D02*
X34836904Y-75625400D01*
X34836904Y-75625400D02*
X34741666Y-75673019D01*
X34741666Y-75673019D02*
X34646428Y-75673019D01*
X34646428Y-75673019D02*
X34551190Y-75625400D01*
X34551190Y-75625400D02*
X34503571Y-75577780D01*
X34503571Y-75577780D02*
X34455952Y-75482542D01*
X34455952Y-75482542D02*
X34408333Y-75292066D01*
X34408333Y-75292066D02*
X34408333Y-75053971D01*
X34408333Y-75053971D02*
X34455952Y-74863495D01*
X34455952Y-74863495D02*
X34503571Y-74768257D01*
X34503571Y-74768257D02*
X34551190Y-74720638D01*
X34551190Y-74720638D02*
X34646428Y-74673019D01*
X35598809Y-74673019D02*
X35694047Y-74673019D01*
X35694047Y-74673019D02*
X35789285Y-74720638D01*
X35789285Y-74720638D02*
X35836904Y-74768257D01*
X35836904Y-74768257D02*
X35884523Y-74863495D01*
X35884523Y-74863495D02*
X35932142Y-75053971D01*
X35932142Y-75053971D02*
X35932142Y-75292066D01*
X35932142Y-75292066D02*
X35884523Y-75482542D01*
X35884523Y-75482542D02*
X35836904Y-75577780D01*
X35836904Y-75577780D02*
X35789285Y-75625400D01*
X35789285Y-75625400D02*
X35694047Y-75673019D01*
X35694047Y-75673019D02*
X35598809Y-75673019D01*
X35598809Y-75673019D02*
X35503571Y-75625400D01*
X35503571Y-75625400D02*
X35455952Y-75577780D01*
X35455952Y-75577780D02*
X35408333Y-75482542D01*
X35408333Y-75482542D02*
X35360714Y-75292066D01*
X35360714Y-75292066D02*
X35360714Y-75053971D01*
X35360714Y-75053971D02*
X35408333Y-74863495D01*
X35408333Y-74863495D02*
X35455952Y-74768257D01*
X35455952Y-74768257D02*
X35503571Y-74720638D01*
X35503571Y-74720638D02*
X35598809Y-74673019D01*
X36360714Y-75006352D02*
X36360714Y-75673019D01*
X36360714Y-75101590D02*
X36408333Y-75053971D01*
X36408333Y-75053971D02*
X36503571Y-75006352D01*
X36503571Y-75006352D02*
X36646428Y-75006352D01*
X36646428Y-75006352D02*
X36741666Y-75053971D01*
X36741666Y-75053971D02*
X36789285Y-75149209D01*
X36789285Y-75149209D02*
X36789285Y-75673019D01*
X37598809Y-75149209D02*
X37265476Y-75149209D01*
X37265476Y-75673019D02*
X37265476Y-74673019D01*
X37265476Y-74673019D02*
X37741666Y-74673019D01*
X31241666Y-6793019D02*
X31241666Y-7507304D01*
X31241666Y-7507304D02*
X31194047Y-7650161D01*
X31194047Y-7650161D02*
X31098809Y-7745400D01*
X31098809Y-7745400D02*
X30955952Y-7793019D01*
X30955952Y-7793019D02*
X30860714Y-7793019D01*
X32241666Y-7793019D02*
X31670238Y-7793019D01*
X31955952Y-7793019D02*
X31955952Y-6793019D01*
X31955952Y-6793019D02*
X31860714Y-6935876D01*
X31860714Y-6935876D02*
X31765476Y-7031114D01*
X31765476Y-7031114D02*
X31670238Y-7078733D01*
X28027381Y-15093019D02*
X28217857Y-15093019D01*
X28217857Y-15093019D02*
X28313095Y-15045400D01*
X28313095Y-15045400D02*
X28360714Y-14997780D01*
X28360714Y-14997780D02*
X28455952Y-14854923D01*
X28455952Y-14854923D02*
X28503571Y-14664447D01*
X28503571Y-14664447D02*
X28503571Y-14283495D01*
X28503571Y-14283495D02*
X28455952Y-14188257D01*
X28455952Y-14188257D02*
X28408333Y-14140638D01*
X28408333Y-14140638D02*
X28313095Y-14093019D01*
X28313095Y-14093019D02*
X28122619Y-14093019D01*
X28122619Y-14093019D02*
X28027381Y-14140638D01*
X28027381Y-14140638D02*
X27979762Y-14188257D01*
X27979762Y-14188257D02*
X27932143Y-14283495D01*
X27932143Y-14283495D02*
X27932143Y-14521590D01*
X27932143Y-14521590D02*
X27979762Y-14616828D01*
X27979762Y-14616828D02*
X28027381Y-14664447D01*
X28027381Y-14664447D02*
X28122619Y-14712066D01*
X28122619Y-14712066D02*
X28313095Y-14712066D01*
X28313095Y-14712066D02*
X28408333Y-14664447D01*
X28408333Y-14664447D02*
X28455952Y-14616828D01*
X28455952Y-14616828D02*
X28503571Y-14521590D01*
X28789286Y-14093019D02*
X29122619Y-15093019D01*
X29122619Y-15093019D02*
X29455952Y-14093019D01*
X30551191Y-15093019D02*
X30551191Y-14093019D01*
X30551191Y-14093019D02*
X30932143Y-14093019D01*
X30932143Y-14093019D02*
X31027381Y-14140638D01*
X31027381Y-14140638D02*
X31075000Y-14188257D01*
X31075000Y-14188257D02*
X31122619Y-14283495D01*
X31122619Y-14283495D02*
X31122619Y-14426352D01*
X31122619Y-14426352D02*
X31075000Y-14521590D01*
X31075000Y-14521590D02*
X31027381Y-14569209D01*
X31027381Y-14569209D02*
X30932143Y-14616828D01*
X30932143Y-14616828D02*
X30551191Y-14616828D01*
X31741667Y-14093019D02*
X31932143Y-14093019D01*
X31932143Y-14093019D02*
X32027381Y-14140638D01*
X32027381Y-14140638D02*
X32122619Y-14235876D01*
X32122619Y-14235876D02*
X32170238Y-14426352D01*
X32170238Y-14426352D02*
X32170238Y-14759685D01*
X32170238Y-14759685D02*
X32122619Y-14950161D01*
X32122619Y-14950161D02*
X32027381Y-15045400D01*
X32027381Y-15045400D02*
X31932143Y-15093019D01*
X31932143Y-15093019D02*
X31741667Y-15093019D01*
X31741667Y-15093019D02*
X31646429Y-15045400D01*
X31646429Y-15045400D02*
X31551191Y-14950161D01*
X31551191Y-14950161D02*
X31503572Y-14759685D01*
X31503572Y-14759685D02*
X31503572Y-14426352D01*
X31503572Y-14426352D02*
X31551191Y-14235876D01*
X31551191Y-14235876D02*
X31646429Y-14140638D01*
X31646429Y-14140638D02*
X31741667Y-14093019D01*
X32503572Y-14093019D02*
X32741667Y-15093019D01*
X32741667Y-15093019D02*
X32932143Y-14378733D01*
X32932143Y-14378733D02*
X33122619Y-15093019D01*
X33122619Y-15093019D02*
X33360715Y-14093019D01*
X33741667Y-14569209D02*
X34075000Y-14569209D01*
X34217857Y-15093019D02*
X33741667Y-15093019D01*
X33741667Y-15093019D02*
X33741667Y-14093019D01*
X33741667Y-14093019D02*
X34217857Y-14093019D01*
X35217857Y-15093019D02*
X34884524Y-14616828D01*
X34646429Y-15093019D02*
X34646429Y-14093019D01*
X34646429Y-14093019D02*
X35027381Y-14093019D01*
X35027381Y-14093019D02*
X35122619Y-14140638D01*
X35122619Y-14140638D02*
X35170238Y-14188257D01*
X35170238Y-14188257D02*
X35217857Y-14283495D01*
X35217857Y-14283495D02*
X35217857Y-14426352D01*
X35217857Y-14426352D02*
X35170238Y-14521590D01*
X35170238Y-14521590D02*
X35122619Y-14569209D01*
X35122619Y-14569209D02*
X35027381Y-14616828D01*
X35027381Y-14616828D02*
X34646429Y-14616828D01*
X34741666Y-58293019D02*
X34741666Y-59007304D01*
X34741666Y-59007304D02*
X34694047Y-59150161D01*
X34694047Y-59150161D02*
X34598809Y-59245400D01*
X34598809Y-59245400D02*
X34455952Y-59293019D01*
X34455952Y-59293019D02*
X34360714Y-59293019D01*
X35170238Y-58388257D02*
X35217857Y-58340638D01*
X35217857Y-58340638D02*
X35313095Y-58293019D01*
X35313095Y-58293019D02*
X35551190Y-58293019D01*
X35551190Y-58293019D02*
X35646428Y-58340638D01*
X35646428Y-58340638D02*
X35694047Y-58388257D01*
X35694047Y-58388257D02*
X35741666Y-58483495D01*
X35741666Y-58483495D02*
X35741666Y-58578733D01*
X35741666Y-58578733D02*
X35694047Y-58721590D01*
X35694047Y-58721590D02*
X35122619Y-59293019D01*
X35122619Y-59293019D02*
X35741666Y-59293019D01*
X31027381Y-66593019D02*
X31027381Y-65593019D01*
X31027381Y-65593019D02*
X31360714Y-66307304D01*
X31360714Y-66307304D02*
X31694047Y-65593019D01*
X31694047Y-65593019D02*
X31694047Y-66593019D01*
X32360714Y-65593019D02*
X32551190Y-65593019D01*
X32551190Y-65593019D02*
X32646428Y-65640638D01*
X32646428Y-65640638D02*
X32741666Y-65735876D01*
X32741666Y-65735876D02*
X32789285Y-65926352D01*
X32789285Y-65926352D02*
X32789285Y-66259685D01*
X32789285Y-66259685D02*
X32741666Y-66450161D01*
X32741666Y-66450161D02*
X32646428Y-66545400D01*
X32646428Y-66545400D02*
X32551190Y-66593019D01*
X32551190Y-66593019D02*
X32360714Y-66593019D01*
X32360714Y-66593019D02*
X32265476Y-66545400D01*
X32265476Y-66545400D02*
X32170238Y-66450161D01*
X32170238Y-66450161D02*
X32122619Y-66259685D01*
X32122619Y-66259685D02*
X32122619Y-65926352D01*
X32122619Y-65926352D02*
X32170238Y-65735876D01*
X32170238Y-65735876D02*
X32265476Y-65640638D01*
X32265476Y-65640638D02*
X32360714Y-65593019D01*
X33789285Y-66593019D02*
X33455952Y-66116828D01*
X33217857Y-66593019D02*
X33217857Y-65593019D01*
X33217857Y-65593019D02*
X33598809Y-65593019D01*
X33598809Y-65593019D02*
X33694047Y-65640638D01*
X33694047Y-65640638D02*
X33741666Y-65688257D01*
X33741666Y-65688257D02*
X33789285Y-65783495D01*
X33789285Y-65783495D02*
X33789285Y-65926352D01*
X33789285Y-65926352D02*
X33741666Y-66021590D01*
X33741666Y-66021590D02*
X33694047Y-66069209D01*
X33694047Y-66069209D02*
X33598809Y-66116828D01*
X33598809Y-66116828D02*
X33217857Y-66116828D01*
X34170238Y-66545400D02*
X34313095Y-66593019D01*
X34313095Y-66593019D02*
X34551190Y-66593019D01*
X34551190Y-66593019D02*
X34646428Y-66545400D01*
X34646428Y-66545400D02*
X34694047Y-66497780D01*
X34694047Y-66497780D02*
X34741666Y-66402542D01*
X34741666Y-66402542D02*
X34741666Y-66307304D01*
X34741666Y-66307304D02*
X34694047Y-66212066D01*
X34694047Y-66212066D02*
X34646428Y-66164447D01*
X34646428Y-66164447D02*
X34551190Y-66116828D01*
X34551190Y-66116828D02*
X34360714Y-66069209D01*
X34360714Y-66069209D02*
X34265476Y-66021590D01*
X34265476Y-66021590D02*
X34217857Y-65973971D01*
X34217857Y-65973971D02*
X34170238Y-65878733D01*
X34170238Y-65878733D02*
X34170238Y-65783495D01*
X34170238Y-65783495D02*
X34217857Y-65688257D01*
X34217857Y-65688257D02*
X34265476Y-65640638D01*
X34265476Y-65640638D02*
X34360714Y-65593019D01*
X34360714Y-65593019D02*
X34598809Y-65593019D01*
X34598809Y-65593019D02*
X34741666Y-65640638D01*
X35170238Y-66069209D02*
X35503571Y-66069209D01*
X35646428Y-66593019D02*
X35170238Y-66593019D01*
X35170238Y-66593019D02*
X35170238Y-65593019D01*
X35170238Y-65593019D02*
X35646428Y-65593019D01*
X36836905Y-66593019D02*
X36836905Y-65593019D01*
X37408333Y-66593019D02*
X36979762Y-66021590D01*
X37408333Y-65593019D02*
X36836905Y-66164447D01*
X37836905Y-66069209D02*
X38170238Y-66069209D01*
X38313095Y-66593019D02*
X37836905Y-66593019D01*
X37836905Y-66593019D02*
X37836905Y-65593019D01*
X37836905Y-65593019D02*
X38313095Y-65593019D01*
X38932143Y-66116828D02*
X38932143Y-66593019D01*
X38598810Y-65593019D02*
X38932143Y-66116828D01*
X38932143Y-66116828D02*
X39265476Y-65593019D01*
X16158333Y-36827780D02*
X16110714Y-36875400D01*
X16110714Y-36875400D02*
X15967857Y-36923019D01*
X15967857Y-36923019D02*
X15872619Y-36923019D01*
X15872619Y-36923019D02*
X15729762Y-36875400D01*
X15729762Y-36875400D02*
X15634524Y-36780161D01*
X15634524Y-36780161D02*
X15586905Y-36684923D01*
X15586905Y-36684923D02*
X15539286Y-36494447D01*
X15539286Y-36494447D02*
X15539286Y-36351590D01*
X15539286Y-36351590D02*
X15586905Y-36161114D01*
X15586905Y-36161114D02*
X15634524Y-36065876D01*
X15634524Y-36065876D02*
X15729762Y-35970638D01*
X15729762Y-35970638D02*
X15872619Y-35923019D01*
X15872619Y-35923019D02*
X15967857Y-35923019D01*
X15967857Y-35923019D02*
X16110714Y-35970638D01*
X16110714Y-35970638D02*
X16158333Y-36018257D01*
X17015476Y-36256352D02*
X17015476Y-36923019D01*
X16777381Y-35875400D02*
X16539286Y-36589685D01*
X16539286Y-36589685D02*
X17158333Y-36589685D01*
X15253571Y-44423019D02*
X14682143Y-44423019D01*
X14967857Y-44423019D02*
X14967857Y-43423019D01*
X14967857Y-43423019D02*
X14872619Y-43565876D01*
X14872619Y-43565876D02*
X14777381Y-43661114D01*
X14777381Y-43661114D02*
X14682143Y-43708733D01*
X15872619Y-43423019D02*
X15967857Y-43423019D01*
X15967857Y-43423019D02*
X16063095Y-43470638D01*
X16063095Y-43470638D02*
X16110714Y-43518257D01*
X16110714Y-43518257D02*
X16158333Y-43613495D01*
X16158333Y-43613495D02*
X16205952Y-43803971D01*
X16205952Y-43803971D02*
X16205952Y-44042066D01*
X16205952Y-44042066D02*
X16158333Y-44232542D01*
X16158333Y-44232542D02*
X16110714Y-44327780D01*
X16110714Y-44327780D02*
X16063095Y-44375400D01*
X16063095Y-44375400D02*
X15967857Y-44423019D01*
X15967857Y-44423019D02*
X15872619Y-44423019D01*
X15872619Y-44423019D02*
X15777381Y-44375400D01*
X15777381Y-44375400D02*
X15729762Y-44327780D01*
X15729762Y-44327780D02*
X15682143Y-44232542D01*
X15682143Y-44232542D02*
X15634524Y-44042066D01*
X15634524Y-44042066D02*
X15634524Y-43803971D01*
X15634524Y-43803971D02*
X15682143Y-43613495D01*
X15682143Y-43613495D02*
X15729762Y-43518257D01*
X15729762Y-43518257D02*
X15777381Y-43470638D01*
X15777381Y-43470638D02*
X15872619Y-43423019D01*
X17063095Y-43756352D02*
X17063095Y-44423019D01*
X16634524Y-43756352D02*
X16634524Y-44280161D01*
X16634524Y-44280161D02*
X16682143Y-44375400D01*
X16682143Y-44375400D02*
X16777381Y-44423019D01*
X16777381Y-44423019D02*
X16920238Y-44423019D01*
X16920238Y-44423019D02*
X17015476Y-44375400D01*
X17015476Y-44375400D02*
X17063095Y-44327780D01*
X17872619Y-43899209D02*
X17539286Y-43899209D01*
X17539286Y-44423019D02*
X17539286Y-43423019D01*
X17539286Y-43423019D02*
X18015476Y-43423019D01*
X56488333Y-14303019D02*
X56155000Y-13826828D01*
X55916905Y-14303019D02*
X55916905Y-13303019D01*
X55916905Y-13303019D02*
X56297857Y-13303019D01*
X56297857Y-13303019D02*
X56393095Y-13350638D01*
X56393095Y-13350638D02*
X56440714Y-13398257D01*
X56440714Y-13398257D02*
X56488333Y-13493495D01*
X56488333Y-13493495D02*
X56488333Y-13636352D01*
X56488333Y-13636352D02*
X56440714Y-13731590D01*
X56440714Y-13731590D02*
X56393095Y-13779209D01*
X56393095Y-13779209D02*
X56297857Y-13826828D01*
X56297857Y-13826828D02*
X55916905Y-13826828D01*
X56821667Y-13303019D02*
X57488333Y-13303019D01*
X57488333Y-13303019D02*
X57059762Y-14303019D01*
X56059761Y-19043019D02*
X55488333Y-19043019D01*
X55774047Y-19043019D02*
X55774047Y-18043019D01*
X55774047Y-18043019D02*
X55678809Y-18185876D01*
X55678809Y-18185876D02*
X55583571Y-18281114D01*
X55583571Y-18281114D02*
X55488333Y-18328733D01*
X56678809Y-18043019D02*
X56774047Y-18043019D01*
X56774047Y-18043019D02*
X56869285Y-18090638D01*
X56869285Y-18090638D02*
X56916904Y-18138257D01*
X56916904Y-18138257D02*
X56964523Y-18233495D01*
X56964523Y-18233495D02*
X57012142Y-18423971D01*
X57012142Y-18423971D02*
X57012142Y-18662066D01*
X57012142Y-18662066D02*
X56964523Y-18852542D01*
X56964523Y-18852542D02*
X56916904Y-18947780D01*
X56916904Y-18947780D02*
X56869285Y-18995400D01*
X56869285Y-18995400D02*
X56774047Y-19043019D01*
X56774047Y-19043019D02*
X56678809Y-19043019D01*
X56678809Y-19043019D02*
X56583571Y-18995400D01*
X56583571Y-18995400D02*
X56535952Y-18947780D01*
X56535952Y-18947780D02*
X56488333Y-18852542D01*
X56488333Y-18852542D02*
X56440714Y-18662066D01*
X56440714Y-18662066D02*
X56440714Y-18423971D01*
X56440714Y-18423971D02*
X56488333Y-18233495D01*
X56488333Y-18233495D02*
X56535952Y-18138257D01*
X56535952Y-18138257D02*
X56583571Y-18090638D01*
X56583571Y-18090638D02*
X56678809Y-18043019D01*
X57440714Y-19043019D02*
X57440714Y-18043019D01*
X57535952Y-18662066D02*
X57821666Y-19043019D01*
X57821666Y-18376352D02*
X57440714Y-18757304D01*
X26741666Y-46293019D02*
X26741666Y-47007304D01*
X26741666Y-47007304D02*
X26694047Y-47150161D01*
X26694047Y-47150161D02*
X26598809Y-47245400D01*
X26598809Y-47245400D02*
X26455952Y-47293019D01*
X26455952Y-47293019D02*
X26360714Y-47293019D01*
X27122619Y-46293019D02*
X27741666Y-46293019D01*
X27741666Y-46293019D02*
X27408333Y-46673971D01*
X27408333Y-46673971D02*
X27551190Y-46673971D01*
X27551190Y-46673971D02*
X27646428Y-46721590D01*
X27646428Y-46721590D02*
X27694047Y-46769209D01*
X27694047Y-46769209D02*
X27741666Y-46864447D01*
X27741666Y-46864447D02*
X27741666Y-47102542D01*
X27741666Y-47102542D02*
X27694047Y-47197780D01*
X27694047Y-47197780D02*
X27646428Y-47245400D01*
X27646428Y-47245400D02*
X27551190Y-47293019D01*
X27551190Y-47293019D02*
X27265476Y-47293019D01*
X27265476Y-47293019D02*
X27170238Y-47245400D01*
X27170238Y-47245400D02*
X27122619Y-47197780D01*
X21741667Y-54593019D02*
X21741667Y-53593019D01*
X21741667Y-53593019D02*
X22122619Y-53593019D01*
X22122619Y-53593019D02*
X22217857Y-53640638D01*
X22217857Y-53640638D02*
X22265476Y-53688257D01*
X22265476Y-53688257D02*
X22313095Y-53783495D01*
X22313095Y-53783495D02*
X22313095Y-53926352D01*
X22313095Y-53926352D02*
X22265476Y-54021590D01*
X22265476Y-54021590D02*
X22217857Y-54069209D01*
X22217857Y-54069209D02*
X22122619Y-54116828D01*
X22122619Y-54116828D02*
X21741667Y-54116828D01*
X22694048Y-54307304D02*
X23170238Y-54307304D01*
X22598810Y-54593019D02*
X22932143Y-53593019D01*
X22932143Y-53593019D02*
X23265476Y-54593019D01*
X23551191Y-54545400D02*
X23694048Y-54593019D01*
X23694048Y-54593019D02*
X23932143Y-54593019D01*
X23932143Y-54593019D02*
X24027381Y-54545400D01*
X24027381Y-54545400D02*
X24075000Y-54497780D01*
X24075000Y-54497780D02*
X24122619Y-54402542D01*
X24122619Y-54402542D02*
X24122619Y-54307304D01*
X24122619Y-54307304D02*
X24075000Y-54212066D01*
X24075000Y-54212066D02*
X24027381Y-54164447D01*
X24027381Y-54164447D02*
X23932143Y-54116828D01*
X23932143Y-54116828D02*
X23741667Y-54069209D01*
X23741667Y-54069209D02*
X23646429Y-54021590D01*
X23646429Y-54021590D02*
X23598810Y-53973971D01*
X23598810Y-53973971D02*
X23551191Y-53878733D01*
X23551191Y-53878733D02*
X23551191Y-53783495D01*
X23551191Y-53783495D02*
X23598810Y-53688257D01*
X23598810Y-53688257D02*
X23646429Y-53640638D01*
X23646429Y-53640638D02*
X23741667Y-53593019D01*
X23741667Y-53593019D02*
X23979762Y-53593019D01*
X23979762Y-53593019D02*
X24122619Y-53640638D01*
X24503572Y-54545400D02*
X24646429Y-54593019D01*
X24646429Y-54593019D02*
X24884524Y-54593019D01*
X24884524Y-54593019D02*
X24979762Y-54545400D01*
X24979762Y-54545400D02*
X25027381Y-54497780D01*
X25027381Y-54497780D02*
X25075000Y-54402542D01*
X25075000Y-54402542D02*
X25075000Y-54307304D01*
X25075000Y-54307304D02*
X25027381Y-54212066D01*
X25027381Y-54212066D02*
X24979762Y-54164447D01*
X24979762Y-54164447D02*
X24884524Y-54116828D01*
X24884524Y-54116828D02*
X24694048Y-54069209D01*
X24694048Y-54069209D02*
X24598810Y-54021590D01*
X24598810Y-54021590D02*
X24551191Y-53973971D01*
X24551191Y-53973971D02*
X24503572Y-53878733D01*
X24503572Y-53878733D02*
X24503572Y-53783495D01*
X24503572Y-53783495D02*
X24551191Y-53688257D01*
X24551191Y-53688257D02*
X24598810Y-53640638D01*
X24598810Y-53640638D02*
X24694048Y-53593019D01*
X24694048Y-53593019D02*
X24932143Y-53593019D01*
X24932143Y-53593019D02*
X25075000Y-53640638D01*
X25503572Y-54593019D02*
X25503572Y-53593019D01*
X25836905Y-53593019D02*
X26170238Y-54593019D01*
X26170238Y-54593019D02*
X26503571Y-53593019D01*
X26836905Y-54069209D02*
X27170238Y-54069209D01*
X27313095Y-54593019D02*
X26836905Y-54593019D01*
X26836905Y-54593019D02*
X26836905Y-53593019D01*
X26836905Y-53593019D02*
X27313095Y-53593019D01*
X28503572Y-54593019D02*
X28503572Y-53593019D01*
X28503572Y-53593019D02*
X28884524Y-53593019D01*
X28884524Y-53593019D02*
X28979762Y-53640638D01*
X28979762Y-53640638D02*
X29027381Y-53688257D01*
X29027381Y-53688257D02*
X29075000Y-53783495D01*
X29075000Y-53783495D02*
X29075000Y-53926352D01*
X29075000Y-53926352D02*
X29027381Y-54021590D01*
X29027381Y-54021590D02*
X28979762Y-54069209D01*
X28979762Y-54069209D02*
X28884524Y-54116828D01*
X28884524Y-54116828D02*
X28503572Y-54116828D01*
X29503572Y-54593019D02*
X29503572Y-53593019D01*
X29979762Y-54069209D02*
X30313095Y-54069209D01*
X30455952Y-54593019D02*
X29979762Y-54593019D01*
X29979762Y-54593019D02*
X29979762Y-53593019D01*
X29979762Y-53593019D02*
X30455952Y-53593019D01*
X30789286Y-53593019D02*
X31455952Y-53593019D01*
X31455952Y-53593019D02*
X30789286Y-54593019D01*
X30789286Y-54593019D02*
X31455952Y-54593019D01*
X32027381Y-53593019D02*
X32217857Y-53593019D01*
X32217857Y-53593019D02*
X32313095Y-53640638D01*
X32313095Y-53640638D02*
X32408333Y-53735876D01*
X32408333Y-53735876D02*
X32455952Y-53926352D01*
X32455952Y-53926352D02*
X32455952Y-54259685D01*
X32455952Y-54259685D02*
X32408333Y-54450161D01*
X32408333Y-54450161D02*
X32313095Y-54545400D01*
X32313095Y-54545400D02*
X32217857Y-54593019D01*
X32217857Y-54593019D02*
X32027381Y-54593019D01*
X32027381Y-54593019D02*
X31932143Y-54545400D01*
X31932143Y-54545400D02*
X31836905Y-54450161D01*
X31836905Y-54450161D02*
X31789286Y-54259685D01*
X31789286Y-54259685D02*
X31789286Y-53926352D01*
X31789286Y-53926352D02*
X31836905Y-53735876D01*
X31836905Y-53735876D02*
X31932143Y-53640638D01*
X31932143Y-53640638D02*
X32027381Y-53593019D01*
X53908333Y-23577780D02*
X53860714Y-23625400D01*
X53860714Y-23625400D02*
X53717857Y-23673019D01*
X53717857Y-23673019D02*
X53622619Y-23673019D01*
X53622619Y-23673019D02*
X53479762Y-23625400D01*
X53479762Y-23625400D02*
X53384524Y-23530161D01*
X53384524Y-23530161D02*
X53336905Y-23434923D01*
X53336905Y-23434923D02*
X53289286Y-23244447D01*
X53289286Y-23244447D02*
X53289286Y-23101590D01*
X53289286Y-23101590D02*
X53336905Y-22911114D01*
X53336905Y-22911114D02*
X53384524Y-22815876D01*
X53384524Y-22815876D02*
X53479762Y-22720638D01*
X53479762Y-22720638D02*
X53622619Y-22673019D01*
X53622619Y-22673019D02*
X53717857Y-22673019D01*
X53717857Y-22673019D02*
X53860714Y-22720638D01*
X53860714Y-22720638D02*
X53908333Y-22768257D01*
X54860714Y-23673019D02*
X54289286Y-23673019D01*
X54575000Y-23673019D02*
X54575000Y-22673019D01*
X54575000Y-22673019D02*
X54479762Y-22815876D01*
X54479762Y-22815876D02*
X54384524Y-22911114D01*
X54384524Y-22911114D02*
X54289286Y-22958733D01*
X53003571Y-28673019D02*
X52432143Y-28673019D01*
X52717857Y-28673019D02*
X52717857Y-27673019D01*
X52717857Y-27673019D02*
X52622619Y-27815876D01*
X52622619Y-27815876D02*
X52527381Y-27911114D01*
X52527381Y-27911114D02*
X52432143Y-27958733D01*
X53622619Y-27673019D02*
X53717857Y-27673019D01*
X53717857Y-27673019D02*
X53813095Y-27720638D01*
X53813095Y-27720638D02*
X53860714Y-27768257D01*
X53860714Y-27768257D02*
X53908333Y-27863495D01*
X53908333Y-27863495D02*
X53955952Y-28053971D01*
X53955952Y-28053971D02*
X53955952Y-28292066D01*
X53955952Y-28292066D02*
X53908333Y-28482542D01*
X53908333Y-28482542D02*
X53860714Y-28577780D01*
X53860714Y-28577780D02*
X53813095Y-28625400D01*
X53813095Y-28625400D02*
X53717857Y-28673019D01*
X53717857Y-28673019D02*
X53622619Y-28673019D01*
X53622619Y-28673019D02*
X53527381Y-28625400D01*
X53527381Y-28625400D02*
X53479762Y-28577780D01*
X53479762Y-28577780D02*
X53432143Y-28482542D01*
X53432143Y-28482542D02*
X53384524Y-28292066D01*
X53384524Y-28292066D02*
X53384524Y-28053971D01*
X53384524Y-28053971D02*
X53432143Y-27863495D01*
X53432143Y-27863495D02*
X53479762Y-27768257D01*
X53479762Y-27768257D02*
X53527381Y-27720638D01*
X53527381Y-27720638D02*
X53622619Y-27673019D01*
X54384524Y-28006352D02*
X54384524Y-28673019D01*
X54384524Y-28101590D02*
X54432143Y-28053971D01*
X54432143Y-28053971D02*
X54527381Y-28006352D01*
X54527381Y-28006352D02*
X54670238Y-28006352D01*
X54670238Y-28006352D02*
X54765476Y-28053971D01*
X54765476Y-28053971D02*
X54813095Y-28149209D01*
X54813095Y-28149209D02*
X54813095Y-28673019D01*
X55622619Y-28149209D02*
X55289286Y-28149209D01*
X55289286Y-28673019D02*
X55289286Y-27673019D01*
X55289286Y-27673019D02*
X55765476Y-27673019D01*
X65488333Y-43303019D02*
X65155000Y-42826828D01*
X64916905Y-43303019D02*
X64916905Y-42303019D01*
X64916905Y-42303019D02*
X65297857Y-42303019D01*
X65297857Y-42303019D02*
X65393095Y-42350638D01*
X65393095Y-42350638D02*
X65440714Y-42398257D01*
X65440714Y-42398257D02*
X65488333Y-42493495D01*
X65488333Y-42493495D02*
X65488333Y-42636352D01*
X65488333Y-42636352D02*
X65440714Y-42731590D01*
X65440714Y-42731590D02*
X65393095Y-42779209D01*
X65393095Y-42779209D02*
X65297857Y-42826828D01*
X65297857Y-42826828D02*
X64916905Y-42826828D01*
X66440714Y-43303019D02*
X65869286Y-43303019D01*
X66155000Y-43303019D02*
X66155000Y-42303019D01*
X66155000Y-42303019D02*
X66059762Y-42445876D01*
X66059762Y-42445876D02*
X65964524Y-42541114D01*
X65964524Y-42541114D02*
X65869286Y-42588733D01*
X65059761Y-48043019D02*
X64488333Y-48043019D01*
X64774047Y-48043019D02*
X64774047Y-47043019D01*
X64774047Y-47043019D02*
X64678809Y-47185876D01*
X64678809Y-47185876D02*
X64583571Y-47281114D01*
X64583571Y-47281114D02*
X64488333Y-47328733D01*
X65678809Y-47043019D02*
X65774047Y-47043019D01*
X65774047Y-47043019D02*
X65869285Y-47090638D01*
X65869285Y-47090638D02*
X65916904Y-47138257D01*
X65916904Y-47138257D02*
X65964523Y-47233495D01*
X65964523Y-47233495D02*
X66012142Y-47423971D01*
X66012142Y-47423971D02*
X66012142Y-47662066D01*
X66012142Y-47662066D02*
X65964523Y-47852542D01*
X65964523Y-47852542D02*
X65916904Y-47947780D01*
X65916904Y-47947780D02*
X65869285Y-47995400D01*
X65869285Y-47995400D02*
X65774047Y-48043019D01*
X65774047Y-48043019D02*
X65678809Y-48043019D01*
X65678809Y-48043019D02*
X65583571Y-47995400D01*
X65583571Y-47995400D02*
X65535952Y-47947780D01*
X65535952Y-47947780D02*
X65488333Y-47852542D01*
X65488333Y-47852542D02*
X65440714Y-47662066D01*
X65440714Y-47662066D02*
X65440714Y-47423971D01*
X65440714Y-47423971D02*
X65488333Y-47233495D01*
X65488333Y-47233495D02*
X65535952Y-47138257D01*
X65535952Y-47138257D02*
X65583571Y-47090638D01*
X65583571Y-47090638D02*
X65678809Y-47043019D01*
X66440714Y-48043019D02*
X66440714Y-47043019D01*
X66535952Y-47662066D02*
X66821666Y-48043019D01*
X66821666Y-47376352D02*
X66440714Y-47757304D01*
X8988333Y-7803019D02*
X8655000Y-7326828D01*
X8416905Y-7803019D02*
X8416905Y-6803019D01*
X8416905Y-6803019D02*
X8797857Y-6803019D01*
X8797857Y-6803019D02*
X8893095Y-6850638D01*
X8893095Y-6850638D02*
X8940714Y-6898257D01*
X8940714Y-6898257D02*
X8988333Y-6993495D01*
X8988333Y-6993495D02*
X8988333Y-7136352D01*
X8988333Y-7136352D02*
X8940714Y-7231590D01*
X8940714Y-7231590D02*
X8893095Y-7279209D01*
X8893095Y-7279209D02*
X8797857Y-7326828D01*
X8797857Y-7326828D02*
X8416905Y-7326828D01*
X9845476Y-6803019D02*
X9655000Y-6803019D01*
X9655000Y-6803019D02*
X9559762Y-6850638D01*
X9559762Y-6850638D02*
X9512143Y-6898257D01*
X9512143Y-6898257D02*
X9416905Y-7041114D01*
X9416905Y-7041114D02*
X9369286Y-7231590D01*
X9369286Y-7231590D02*
X9369286Y-7612542D01*
X9369286Y-7612542D02*
X9416905Y-7707780D01*
X9416905Y-7707780D02*
X9464524Y-7755400D01*
X9464524Y-7755400D02*
X9559762Y-7803019D01*
X9559762Y-7803019D02*
X9750238Y-7803019D01*
X9750238Y-7803019D02*
X9845476Y-7755400D01*
X9845476Y-7755400D02*
X9893095Y-7707780D01*
X9893095Y-7707780D02*
X9940714Y-7612542D01*
X9940714Y-7612542D02*
X9940714Y-7374447D01*
X9940714Y-7374447D02*
X9893095Y-7279209D01*
X9893095Y-7279209D02*
X9845476Y-7231590D01*
X9845476Y-7231590D02*
X9750238Y-7183971D01*
X9750238Y-7183971D02*
X9559762Y-7183971D01*
X9559762Y-7183971D02*
X9464524Y-7231590D01*
X9464524Y-7231590D02*
X9416905Y-7279209D01*
X9416905Y-7279209D02*
X9369286Y-7374447D01*
X9035952Y-12543019D02*
X8464524Y-12543019D01*
X8750238Y-12543019D02*
X8750238Y-11543019D01*
X8750238Y-11543019D02*
X8655000Y-11685876D01*
X8655000Y-11685876D02*
X8559762Y-11781114D01*
X8559762Y-11781114D02*
X8464524Y-11828733D01*
X9464524Y-12543019D02*
X9464524Y-11543019D01*
X9559762Y-12162066D02*
X9845476Y-12543019D01*
X9845476Y-11876352D02*
X9464524Y-12257304D01*
X63749761Y-28708257D02*
X63654523Y-28660638D01*
X63654523Y-28660638D02*
X63559285Y-28565400D01*
X63559285Y-28565400D02*
X63416428Y-28422542D01*
X63416428Y-28422542D02*
X63321190Y-28374923D01*
X63321190Y-28374923D02*
X63225952Y-28374923D01*
X63273571Y-28613019D02*
X63178333Y-28565400D01*
X63178333Y-28565400D02*
X63083095Y-28470161D01*
X63083095Y-28470161D02*
X63035476Y-28279685D01*
X63035476Y-28279685D02*
X63035476Y-27946352D01*
X63035476Y-27946352D02*
X63083095Y-27755876D01*
X63083095Y-27755876D02*
X63178333Y-27660638D01*
X63178333Y-27660638D02*
X63273571Y-27613019D01*
X63273571Y-27613019D02*
X63464047Y-27613019D01*
X63464047Y-27613019D02*
X63559285Y-27660638D01*
X63559285Y-27660638D02*
X63654523Y-27755876D01*
X63654523Y-27755876D02*
X63702142Y-27946352D01*
X63702142Y-27946352D02*
X63702142Y-28279685D01*
X63702142Y-28279685D02*
X63654523Y-28470161D01*
X63654523Y-28470161D02*
X63559285Y-28565400D01*
X63559285Y-28565400D02*
X63464047Y-28613019D01*
X63464047Y-28613019D02*
X63273571Y-28613019D01*
X64654523Y-28613019D02*
X64083095Y-28613019D01*
X64368809Y-28613019D02*
X64368809Y-27613019D01*
X64368809Y-27613019D02*
X64273571Y-27755876D01*
X64273571Y-27755876D02*
X64178333Y-27851114D01*
X64178333Y-27851114D02*
X64083095Y-27898733D01*
X60249762Y-34963019D02*
X60249762Y-33963019D01*
X60249762Y-33963019D02*
X60630714Y-33963019D01*
X60630714Y-33963019D02*
X60725952Y-34010638D01*
X60725952Y-34010638D02*
X60773571Y-34058257D01*
X60773571Y-34058257D02*
X60821190Y-34153495D01*
X60821190Y-34153495D02*
X60821190Y-34296352D01*
X60821190Y-34296352D02*
X60773571Y-34391590D01*
X60773571Y-34391590D02*
X60725952Y-34439209D01*
X60725952Y-34439209D02*
X60630714Y-34486828D01*
X60630714Y-34486828D02*
X60249762Y-34486828D01*
X61202143Y-34058257D02*
X61249762Y-34010638D01*
X61249762Y-34010638D02*
X61345000Y-33963019D01*
X61345000Y-33963019D02*
X61583095Y-33963019D01*
X61583095Y-33963019D02*
X61678333Y-34010638D01*
X61678333Y-34010638D02*
X61725952Y-34058257D01*
X61725952Y-34058257D02*
X61773571Y-34153495D01*
X61773571Y-34153495D02*
X61773571Y-34248733D01*
X61773571Y-34248733D02*
X61725952Y-34391590D01*
X61725952Y-34391590D02*
X61154524Y-34963019D01*
X61154524Y-34963019D02*
X61773571Y-34963019D01*
X62202143Y-34963019D02*
X62202143Y-33963019D01*
X62202143Y-33963019D02*
X62773571Y-34963019D01*
X62773571Y-34963019D02*
X62773571Y-33963019D01*
X63202143Y-34058257D02*
X63249762Y-34010638D01*
X63249762Y-34010638D02*
X63345000Y-33963019D01*
X63345000Y-33963019D02*
X63583095Y-33963019D01*
X63583095Y-33963019D02*
X63678333Y-34010638D01*
X63678333Y-34010638D02*
X63725952Y-34058257D01*
X63725952Y-34058257D02*
X63773571Y-34153495D01*
X63773571Y-34153495D02*
X63773571Y-34248733D01*
X63773571Y-34248733D02*
X63725952Y-34391590D01*
X63725952Y-34391590D02*
X63154524Y-34963019D01*
X63154524Y-34963019D02*
X63773571Y-34963019D01*
X64154524Y-34058257D02*
X64202143Y-34010638D01*
X64202143Y-34010638D02*
X64297381Y-33963019D01*
X64297381Y-33963019D02*
X64535476Y-33963019D01*
X64535476Y-33963019D02*
X64630714Y-34010638D01*
X64630714Y-34010638D02*
X64678333Y-34058257D01*
X64678333Y-34058257D02*
X64725952Y-34153495D01*
X64725952Y-34153495D02*
X64725952Y-34248733D01*
X64725952Y-34248733D02*
X64678333Y-34391590D01*
X64678333Y-34391590D02*
X64106905Y-34963019D01*
X64106905Y-34963019D02*
X64725952Y-34963019D01*
X65106905Y-34058257D02*
X65154524Y-34010638D01*
X65154524Y-34010638D02*
X65249762Y-33963019D01*
X65249762Y-33963019D02*
X65487857Y-33963019D01*
X65487857Y-33963019D02*
X65583095Y-34010638D01*
X65583095Y-34010638D02*
X65630714Y-34058257D01*
X65630714Y-34058257D02*
X65678333Y-34153495D01*
X65678333Y-34153495D02*
X65678333Y-34248733D01*
X65678333Y-34248733D02*
X65630714Y-34391590D01*
X65630714Y-34391590D02*
X65059286Y-34963019D01*
X65059286Y-34963019D02*
X65678333Y-34963019D01*
X66059286Y-34058257D02*
X66106905Y-34010638D01*
X66106905Y-34010638D02*
X66202143Y-33963019D01*
X66202143Y-33963019D02*
X66440238Y-33963019D01*
X66440238Y-33963019D02*
X66535476Y-34010638D01*
X66535476Y-34010638D02*
X66583095Y-34058257D01*
X66583095Y-34058257D02*
X66630714Y-34153495D01*
X66630714Y-34153495D02*
X66630714Y-34248733D01*
X66630714Y-34248733D02*
X66583095Y-34391590D01*
X66583095Y-34391590D02*
X66011667Y-34963019D01*
X66011667Y-34963019D02*
X66630714Y-34963019D01*
X67011667Y-34677304D02*
X67487857Y-34677304D01*
X66916429Y-34963019D02*
X67249762Y-33963019D01*
X67249762Y-33963019D02*
X67583095Y-34963019D01*
X34623095Y-31343019D02*
X34623095Y-32152542D01*
X34623095Y-32152542D02*
X34670714Y-32247780D01*
X34670714Y-32247780D02*
X34718333Y-32295400D01*
X34718333Y-32295400D02*
X34813571Y-32343019D01*
X34813571Y-32343019D02*
X35004047Y-32343019D01*
X35004047Y-32343019D02*
X35099285Y-32295400D01*
X35099285Y-32295400D02*
X35146904Y-32247780D01*
X35146904Y-32247780D02*
X35194523Y-32152542D01*
X35194523Y-32152542D02*
X35194523Y-31343019D01*
X36194523Y-32343019D02*
X35623095Y-32343019D01*
X35908809Y-32343019D02*
X35908809Y-31343019D01*
X35908809Y-31343019D02*
X35813571Y-31485876D01*
X35813571Y-31485876D02*
X35718333Y-31581114D01*
X35718333Y-31581114D02*
X35623095Y-31628733D01*
X33218333Y-44623019D02*
X32742143Y-44623019D01*
X32742143Y-44623019D02*
X32742143Y-43623019D01*
X33551667Y-44623019D02*
X33551667Y-43623019D01*
X33551667Y-43623019D02*
X33885000Y-44337304D01*
X33885000Y-44337304D02*
X34218333Y-43623019D01*
X34218333Y-43623019D02*
X34218333Y-44623019D01*
X35218333Y-44623019D02*
X34646905Y-44623019D01*
X34932619Y-44623019D02*
X34932619Y-43623019D01*
X34932619Y-43623019D02*
X34837381Y-43765876D01*
X34837381Y-43765876D02*
X34742143Y-43861114D01*
X34742143Y-43861114D02*
X34646905Y-43908733D01*
X36075476Y-43956352D02*
X36075476Y-44623019D01*
X35837381Y-43575400D02*
X35599286Y-44289685D01*
X35599286Y-44289685D02*
X36218333Y-44289685D01*
X37075476Y-43623019D02*
X36599286Y-43623019D01*
X36599286Y-43623019D02*
X36551667Y-44099209D01*
X36551667Y-44099209D02*
X36599286Y-44051590D01*
X36599286Y-44051590D02*
X36694524Y-44003971D01*
X36694524Y-44003971D02*
X36932619Y-44003971D01*
X36932619Y-44003971D02*
X37027857Y-44051590D01*
X37027857Y-44051590D02*
X37075476Y-44099209D01*
X37075476Y-44099209D02*
X37123095Y-44194447D01*
X37123095Y-44194447D02*
X37123095Y-44432542D01*
X37123095Y-44432542D02*
X37075476Y-44527780D01*
X37075476Y-44527780D02*
X37027857Y-44575400D01*
X37027857Y-44575400D02*
X36932619Y-44623019D01*
X36932619Y-44623019D02*
X36694524Y-44623019D01*
X36694524Y-44623019D02*
X36599286Y-44575400D01*
X36599286Y-44575400D02*
X36551667Y-44527780D01*
X37694524Y-44051590D02*
X37599286Y-44003971D01*
X37599286Y-44003971D02*
X37551667Y-43956352D01*
X37551667Y-43956352D02*
X37504048Y-43861114D01*
X37504048Y-43861114D02*
X37504048Y-43813495D01*
X37504048Y-43813495D02*
X37551667Y-43718257D01*
X37551667Y-43718257D02*
X37599286Y-43670638D01*
X37599286Y-43670638D02*
X37694524Y-43623019D01*
X37694524Y-43623019D02*
X37885000Y-43623019D01*
X37885000Y-43623019D02*
X37980238Y-43670638D01*
X37980238Y-43670638D02*
X38027857Y-43718257D01*
X38027857Y-43718257D02*
X38075476Y-43813495D01*
X38075476Y-43813495D02*
X38075476Y-43861114D01*
X38075476Y-43861114D02*
X38027857Y-43956352D01*
X38027857Y-43956352D02*
X37980238Y-44003971D01*
X37980238Y-44003971D02*
X37885000Y-44051590D01*
X37885000Y-44051590D02*
X37694524Y-44051590D01*
X37694524Y-44051590D02*
X37599286Y-44099209D01*
X37599286Y-44099209D02*
X37551667Y-44146828D01*
X37551667Y-44146828D02*
X37504048Y-44242066D01*
X37504048Y-44242066D02*
X37504048Y-44432542D01*
X37504048Y-44432542D02*
X37551667Y-44527780D01*
X37551667Y-44527780D02*
X37599286Y-44575400D01*
X37599286Y-44575400D02*
X37694524Y-44623019D01*
X37694524Y-44623019D02*
X37885000Y-44623019D01*
X37885000Y-44623019D02*
X37980238Y-44575400D01*
X37980238Y-44575400D02*
X38027857Y-44527780D01*
X38027857Y-44527780D02*
X38075476Y-44432542D01*
X38075476Y-44432542D02*
X38075476Y-44242066D01*
X38075476Y-44242066D02*
X38027857Y-44146828D01*
X38027857Y-44146828D02*
X37980238Y-44099209D01*
X37980238Y-44099209D02*
X37885000Y-44051590D01*
X8408333Y-20077780D02*
X8360714Y-20125400D01*
X8360714Y-20125400D02*
X8217857Y-20173019D01*
X8217857Y-20173019D02*
X8122619Y-20173019D01*
X8122619Y-20173019D02*
X7979762Y-20125400D01*
X7979762Y-20125400D02*
X7884524Y-20030161D01*
X7884524Y-20030161D02*
X7836905Y-19934923D01*
X7836905Y-19934923D02*
X7789286Y-19744447D01*
X7789286Y-19744447D02*
X7789286Y-19601590D01*
X7789286Y-19601590D02*
X7836905Y-19411114D01*
X7836905Y-19411114D02*
X7884524Y-19315876D01*
X7884524Y-19315876D02*
X7979762Y-19220638D01*
X7979762Y-19220638D02*
X8122619Y-19173019D01*
X8122619Y-19173019D02*
X8217857Y-19173019D01*
X8217857Y-19173019D02*
X8360714Y-19220638D01*
X8360714Y-19220638D02*
X8408333Y-19268257D01*
X8789286Y-19268257D02*
X8836905Y-19220638D01*
X8836905Y-19220638D02*
X8932143Y-19173019D01*
X8932143Y-19173019D02*
X9170238Y-19173019D01*
X9170238Y-19173019D02*
X9265476Y-19220638D01*
X9265476Y-19220638D02*
X9313095Y-19268257D01*
X9313095Y-19268257D02*
X9360714Y-19363495D01*
X9360714Y-19363495D02*
X9360714Y-19458733D01*
X9360714Y-19458733D02*
X9313095Y-19601590D01*
X9313095Y-19601590D02*
X8741667Y-20173019D01*
X8741667Y-20173019D02*
X9360714Y-20173019D01*
X7979761Y-25173019D02*
X7408333Y-25173019D01*
X7694047Y-25173019D02*
X7694047Y-24173019D01*
X7694047Y-24173019D02*
X7598809Y-24315876D01*
X7598809Y-24315876D02*
X7503571Y-24411114D01*
X7503571Y-24411114D02*
X7408333Y-24458733D01*
X8836904Y-24506352D02*
X8836904Y-25173019D01*
X8408333Y-24506352D02*
X8408333Y-25030161D01*
X8408333Y-25030161D02*
X8455952Y-25125400D01*
X8455952Y-25125400D02*
X8551190Y-25173019D01*
X8551190Y-25173019D02*
X8694047Y-25173019D01*
X8694047Y-25173019D02*
X8789285Y-25125400D01*
X8789285Y-25125400D02*
X8836904Y-25077780D01*
X9646428Y-24649209D02*
X9313095Y-24649209D01*
X9313095Y-25173019D02*
X9313095Y-24173019D01*
X9313095Y-24173019D02*
X9789285Y-24173019D01*
X52488333Y-33803019D02*
X52155000Y-33326828D01*
X51916905Y-33803019D02*
X51916905Y-32803019D01*
X51916905Y-32803019D02*
X52297857Y-32803019D01*
X52297857Y-32803019D02*
X52393095Y-32850638D01*
X52393095Y-32850638D02*
X52440714Y-32898257D01*
X52440714Y-32898257D02*
X52488333Y-32993495D01*
X52488333Y-32993495D02*
X52488333Y-33136352D01*
X52488333Y-33136352D02*
X52440714Y-33231590D01*
X52440714Y-33231590D02*
X52393095Y-33279209D01*
X52393095Y-33279209D02*
X52297857Y-33326828D01*
X52297857Y-33326828D02*
X51916905Y-33326828D01*
X53345476Y-33136352D02*
X53345476Y-33803019D01*
X53107381Y-32755400D02*
X52869286Y-33469685D01*
X52869286Y-33469685D02*
X53488333Y-33469685D01*
X51583571Y-38543019D02*
X51012143Y-38543019D01*
X51297857Y-38543019D02*
X51297857Y-37543019D01*
X51297857Y-37543019D02*
X51202619Y-37685876D01*
X51202619Y-37685876D02*
X51107381Y-37781114D01*
X51107381Y-37781114D02*
X51012143Y-37828733D01*
X52202619Y-37543019D02*
X52297857Y-37543019D01*
X52297857Y-37543019D02*
X52393095Y-37590638D01*
X52393095Y-37590638D02*
X52440714Y-37638257D01*
X52440714Y-37638257D02*
X52488333Y-37733495D01*
X52488333Y-37733495D02*
X52535952Y-37923971D01*
X52535952Y-37923971D02*
X52535952Y-38162066D01*
X52535952Y-38162066D02*
X52488333Y-38352542D01*
X52488333Y-38352542D02*
X52440714Y-38447780D01*
X52440714Y-38447780D02*
X52393095Y-38495400D01*
X52393095Y-38495400D02*
X52297857Y-38543019D01*
X52297857Y-38543019D02*
X52202619Y-38543019D01*
X52202619Y-38543019D02*
X52107381Y-38495400D01*
X52107381Y-38495400D02*
X52059762Y-38447780D01*
X52059762Y-38447780D02*
X52012143Y-38352542D01*
X52012143Y-38352542D02*
X51964524Y-38162066D01*
X51964524Y-38162066D02*
X51964524Y-37923971D01*
X51964524Y-37923971D02*
X52012143Y-37733495D01*
X52012143Y-37733495D02*
X52059762Y-37638257D01*
X52059762Y-37638257D02*
X52107381Y-37590638D01*
X52107381Y-37590638D02*
X52202619Y-37543019D01*
X53155000Y-37543019D02*
X53250238Y-37543019D01*
X53250238Y-37543019D02*
X53345476Y-37590638D01*
X53345476Y-37590638D02*
X53393095Y-37638257D01*
X53393095Y-37638257D02*
X53440714Y-37733495D01*
X53440714Y-37733495D02*
X53488333Y-37923971D01*
X53488333Y-37923971D02*
X53488333Y-38162066D01*
X53488333Y-38162066D02*
X53440714Y-38352542D01*
X53440714Y-38352542D02*
X53393095Y-38447780D01*
X53393095Y-38447780D02*
X53345476Y-38495400D01*
X53345476Y-38495400D02*
X53250238Y-38543019D01*
X53250238Y-38543019D02*
X53155000Y-38543019D01*
X53155000Y-38543019D02*
X53059762Y-38495400D01*
X53059762Y-38495400D02*
X53012143Y-38447780D01*
X53012143Y-38447780D02*
X52964524Y-38352542D01*
X52964524Y-38352542D02*
X52916905Y-38162066D01*
X52916905Y-38162066D02*
X52916905Y-37923971D01*
X52916905Y-37923971D02*
X52964524Y-37733495D01*
X52964524Y-37733495D02*
X53012143Y-37638257D01*
X53012143Y-37638257D02*
X53059762Y-37590638D01*
X53059762Y-37590638D02*
X53155000Y-37543019D01*
X53916905Y-38543019D02*
X53916905Y-37543019D01*
X54012143Y-38162066D02*
X54297857Y-38543019D01*
X54297857Y-37876352D02*
X53916905Y-38257304D01*
X46988333Y-45803019D02*
X46655000Y-45326828D01*
X46416905Y-45803019D02*
X46416905Y-44803019D01*
X46416905Y-44803019D02*
X46797857Y-44803019D01*
X46797857Y-44803019D02*
X46893095Y-44850638D01*
X46893095Y-44850638D02*
X46940714Y-44898257D01*
X46940714Y-44898257D02*
X46988333Y-44993495D01*
X46988333Y-44993495D02*
X46988333Y-45136352D01*
X46988333Y-45136352D02*
X46940714Y-45231590D01*
X46940714Y-45231590D02*
X46893095Y-45279209D01*
X46893095Y-45279209D02*
X46797857Y-45326828D01*
X46797857Y-45326828D02*
X46416905Y-45326828D01*
X47321667Y-44803019D02*
X47940714Y-44803019D01*
X47940714Y-44803019D02*
X47607381Y-45183971D01*
X47607381Y-45183971D02*
X47750238Y-45183971D01*
X47750238Y-45183971D02*
X47845476Y-45231590D01*
X47845476Y-45231590D02*
X47893095Y-45279209D01*
X47893095Y-45279209D02*
X47940714Y-45374447D01*
X47940714Y-45374447D02*
X47940714Y-45612542D01*
X47940714Y-45612542D02*
X47893095Y-45707780D01*
X47893095Y-45707780D02*
X47845476Y-45755400D01*
X47845476Y-45755400D02*
X47750238Y-45803019D01*
X47750238Y-45803019D02*
X47464524Y-45803019D01*
X47464524Y-45803019D02*
X47369286Y-45755400D01*
X47369286Y-45755400D02*
X47321667Y-45707780D01*
X46083571Y-50543019D02*
X45512143Y-50543019D01*
X45797857Y-50543019D02*
X45797857Y-49543019D01*
X45797857Y-49543019D02*
X45702619Y-49685876D01*
X45702619Y-49685876D02*
X45607381Y-49781114D01*
X45607381Y-49781114D02*
X45512143Y-49828733D01*
X46702619Y-49543019D02*
X46797857Y-49543019D01*
X46797857Y-49543019D02*
X46893095Y-49590638D01*
X46893095Y-49590638D02*
X46940714Y-49638257D01*
X46940714Y-49638257D02*
X46988333Y-49733495D01*
X46988333Y-49733495D02*
X47035952Y-49923971D01*
X47035952Y-49923971D02*
X47035952Y-50162066D01*
X47035952Y-50162066D02*
X46988333Y-50352542D01*
X46988333Y-50352542D02*
X46940714Y-50447780D01*
X46940714Y-50447780D02*
X46893095Y-50495400D01*
X46893095Y-50495400D02*
X46797857Y-50543019D01*
X46797857Y-50543019D02*
X46702619Y-50543019D01*
X46702619Y-50543019D02*
X46607381Y-50495400D01*
X46607381Y-50495400D02*
X46559762Y-50447780D01*
X46559762Y-50447780D02*
X46512143Y-50352542D01*
X46512143Y-50352542D02*
X46464524Y-50162066D01*
X46464524Y-50162066D02*
X46464524Y-49923971D01*
X46464524Y-49923971D02*
X46512143Y-49733495D01*
X46512143Y-49733495D02*
X46559762Y-49638257D01*
X46559762Y-49638257D02*
X46607381Y-49590638D01*
X46607381Y-49590638D02*
X46702619Y-49543019D01*
X47655000Y-49543019D02*
X47750238Y-49543019D01*
X47750238Y-49543019D02*
X47845476Y-49590638D01*
X47845476Y-49590638D02*
X47893095Y-49638257D01*
X47893095Y-49638257D02*
X47940714Y-49733495D01*
X47940714Y-49733495D02*
X47988333Y-49923971D01*
X47988333Y-49923971D02*
X47988333Y-50162066D01*
X47988333Y-50162066D02*
X47940714Y-50352542D01*
X47940714Y-50352542D02*
X47893095Y-50447780D01*
X47893095Y-50447780D02*
X47845476Y-50495400D01*
X47845476Y-50495400D02*
X47750238Y-50543019D01*
X47750238Y-50543019D02*
X47655000Y-50543019D01*
X47655000Y-50543019D02*
X47559762Y-50495400D01*
X47559762Y-50495400D02*
X47512143Y-50447780D01*
X47512143Y-50447780D02*
X47464524Y-50352542D01*
X47464524Y-50352542D02*
X47416905Y-50162066D01*
X47416905Y-50162066D02*
X47416905Y-49923971D01*
X47416905Y-49923971D02*
X47464524Y-49733495D01*
X47464524Y-49733495D02*
X47512143Y-49638257D01*
X47512143Y-49638257D02*
X47559762Y-49590638D01*
X47559762Y-49590638D02*
X47655000Y-49543019D01*
X48416905Y-50543019D02*
X48416905Y-49543019D01*
X48512143Y-50162066D02*
X48797857Y-50543019D01*
X48797857Y-49876352D02*
X48416905Y-50257304D01*
X23988333Y-18803019D02*
X23655000Y-18326828D01*
X23416905Y-18803019D02*
X23416905Y-17803019D01*
X23416905Y-17803019D02*
X23797857Y-17803019D01*
X23797857Y-17803019D02*
X23893095Y-17850638D01*
X23893095Y-17850638D02*
X23940714Y-17898257D01*
X23940714Y-17898257D02*
X23988333Y-17993495D01*
X23988333Y-17993495D02*
X23988333Y-18136352D01*
X23988333Y-18136352D02*
X23940714Y-18231590D01*
X23940714Y-18231590D02*
X23893095Y-18279209D01*
X23893095Y-18279209D02*
X23797857Y-18326828D01*
X23797857Y-18326828D02*
X23416905Y-18326828D01*
X24893095Y-17803019D02*
X24416905Y-17803019D01*
X24416905Y-17803019D02*
X24369286Y-18279209D01*
X24369286Y-18279209D02*
X24416905Y-18231590D01*
X24416905Y-18231590D02*
X24512143Y-18183971D01*
X24512143Y-18183971D02*
X24750238Y-18183971D01*
X24750238Y-18183971D02*
X24845476Y-18231590D01*
X24845476Y-18231590D02*
X24893095Y-18279209D01*
X24893095Y-18279209D02*
X24940714Y-18374447D01*
X24940714Y-18374447D02*
X24940714Y-18612542D01*
X24940714Y-18612542D02*
X24893095Y-18707780D01*
X24893095Y-18707780D02*
X24845476Y-18755400D01*
X24845476Y-18755400D02*
X24750238Y-18803019D01*
X24750238Y-18803019D02*
X24512143Y-18803019D01*
X24512143Y-18803019D02*
X24416905Y-18755400D01*
X24416905Y-18755400D02*
X24369286Y-18707780D01*
X23464523Y-22543019D02*
X23274047Y-22543019D01*
X23274047Y-22543019D02*
X23178809Y-22590638D01*
X23178809Y-22590638D02*
X23131190Y-22638257D01*
X23131190Y-22638257D02*
X23035952Y-22781114D01*
X23035952Y-22781114D02*
X22988333Y-22971590D01*
X22988333Y-22971590D02*
X22988333Y-23352542D01*
X22988333Y-23352542D02*
X23035952Y-23447780D01*
X23035952Y-23447780D02*
X23083571Y-23495400D01*
X23083571Y-23495400D02*
X23178809Y-23543019D01*
X23178809Y-23543019D02*
X23369285Y-23543019D01*
X23369285Y-23543019D02*
X23464523Y-23495400D01*
X23464523Y-23495400D02*
X23512142Y-23447780D01*
X23512142Y-23447780D02*
X23559761Y-23352542D01*
X23559761Y-23352542D02*
X23559761Y-23114447D01*
X23559761Y-23114447D02*
X23512142Y-23019209D01*
X23512142Y-23019209D02*
X23464523Y-22971590D01*
X23464523Y-22971590D02*
X23369285Y-22923971D01*
X23369285Y-22923971D02*
X23178809Y-22923971D01*
X23178809Y-22923971D02*
X23083571Y-22971590D01*
X23083571Y-22971590D02*
X23035952Y-23019209D01*
X23035952Y-23019209D02*
X22988333Y-23114447D01*
X24131190Y-22971590D02*
X24035952Y-22923971D01*
X24035952Y-22923971D02*
X23988333Y-22876352D01*
X23988333Y-22876352D02*
X23940714Y-22781114D01*
X23940714Y-22781114D02*
X23940714Y-22733495D01*
X23940714Y-22733495D02*
X23988333Y-22638257D01*
X23988333Y-22638257D02*
X24035952Y-22590638D01*
X24035952Y-22590638D02*
X24131190Y-22543019D01*
X24131190Y-22543019D02*
X24321666Y-22543019D01*
X24321666Y-22543019D02*
X24416904Y-22590638D01*
X24416904Y-22590638D02*
X24464523Y-22638257D01*
X24464523Y-22638257D02*
X24512142Y-22733495D01*
X24512142Y-22733495D02*
X24512142Y-22781114D01*
X24512142Y-22781114D02*
X24464523Y-22876352D01*
X24464523Y-22876352D02*
X24416904Y-22923971D01*
X24416904Y-22923971D02*
X24321666Y-22971590D01*
X24321666Y-22971590D02*
X24131190Y-22971590D01*
X24131190Y-22971590D02*
X24035952Y-23019209D01*
X24035952Y-23019209D02*
X23988333Y-23066828D01*
X23988333Y-23066828D02*
X23940714Y-23162066D01*
X23940714Y-23162066D02*
X23940714Y-23352542D01*
X23940714Y-23352542D02*
X23988333Y-23447780D01*
X23988333Y-23447780D02*
X24035952Y-23495400D01*
X24035952Y-23495400D02*
X24131190Y-23543019D01*
X24131190Y-23543019D02*
X24321666Y-23543019D01*
X24321666Y-23543019D02*
X24416904Y-23495400D01*
X24416904Y-23495400D02*
X24464523Y-23447780D01*
X24464523Y-23447780D02*
X24512142Y-23352542D01*
X24512142Y-23352542D02*
X24512142Y-23162066D01*
X24512142Y-23162066D02*
X24464523Y-23066828D01*
X24464523Y-23066828D02*
X24416904Y-23019209D01*
X24416904Y-23019209D02*
X24321666Y-22971590D01*
X24940714Y-23543019D02*
X24940714Y-22543019D01*
X25035952Y-23162066D02*
X25321666Y-23543019D01*
X25321666Y-22876352D02*
X24940714Y-23257304D01*
X53988333Y-4303019D02*
X53655000Y-3826828D01*
X53416905Y-4303019D02*
X53416905Y-3303019D01*
X53416905Y-3303019D02*
X53797857Y-3303019D01*
X53797857Y-3303019D02*
X53893095Y-3350638D01*
X53893095Y-3350638D02*
X53940714Y-3398257D01*
X53940714Y-3398257D02*
X53988333Y-3493495D01*
X53988333Y-3493495D02*
X53988333Y-3636352D01*
X53988333Y-3636352D02*
X53940714Y-3731590D01*
X53940714Y-3731590D02*
X53893095Y-3779209D01*
X53893095Y-3779209D02*
X53797857Y-3826828D01*
X53797857Y-3826828D02*
X53416905Y-3826828D01*
X54369286Y-3398257D02*
X54416905Y-3350638D01*
X54416905Y-3350638D02*
X54512143Y-3303019D01*
X54512143Y-3303019D02*
X54750238Y-3303019D01*
X54750238Y-3303019D02*
X54845476Y-3350638D01*
X54845476Y-3350638D02*
X54893095Y-3398257D01*
X54893095Y-3398257D02*
X54940714Y-3493495D01*
X54940714Y-3493495D02*
X54940714Y-3588733D01*
X54940714Y-3588733D02*
X54893095Y-3731590D01*
X54893095Y-3731590D02*
X54321667Y-4303019D01*
X54321667Y-4303019D02*
X54940714Y-4303019D01*
X53559761Y-9043019D02*
X52988333Y-9043019D01*
X53274047Y-9043019D02*
X53274047Y-8043019D01*
X53274047Y-8043019D02*
X53178809Y-8185876D01*
X53178809Y-8185876D02*
X53083571Y-8281114D01*
X53083571Y-8281114D02*
X52988333Y-8328733D01*
X54178809Y-8043019D02*
X54274047Y-8043019D01*
X54274047Y-8043019D02*
X54369285Y-8090638D01*
X54369285Y-8090638D02*
X54416904Y-8138257D01*
X54416904Y-8138257D02*
X54464523Y-8233495D01*
X54464523Y-8233495D02*
X54512142Y-8423971D01*
X54512142Y-8423971D02*
X54512142Y-8662066D01*
X54512142Y-8662066D02*
X54464523Y-8852542D01*
X54464523Y-8852542D02*
X54416904Y-8947780D01*
X54416904Y-8947780D02*
X54369285Y-8995400D01*
X54369285Y-8995400D02*
X54274047Y-9043019D01*
X54274047Y-9043019D02*
X54178809Y-9043019D01*
X54178809Y-9043019D02*
X54083571Y-8995400D01*
X54083571Y-8995400D02*
X54035952Y-8947780D01*
X54035952Y-8947780D02*
X53988333Y-8852542D01*
X53988333Y-8852542D02*
X53940714Y-8662066D01*
X53940714Y-8662066D02*
X53940714Y-8423971D01*
X53940714Y-8423971D02*
X53988333Y-8233495D01*
X53988333Y-8233495D02*
X54035952Y-8138257D01*
X54035952Y-8138257D02*
X54083571Y-8090638D01*
X54083571Y-8090638D02*
X54178809Y-8043019D01*
X54940714Y-9043019D02*
X54940714Y-8043019D01*
X55035952Y-8662066D02*
X55321666Y-9043019D01*
X55321666Y-8376352D02*
X54940714Y-8757304D01*
X15158333Y-49327780D02*
X15110714Y-49375400D01*
X15110714Y-49375400D02*
X14967857Y-49423019D01*
X14967857Y-49423019D02*
X14872619Y-49423019D01*
X14872619Y-49423019D02*
X14729762Y-49375400D01*
X14729762Y-49375400D02*
X14634524Y-49280161D01*
X14634524Y-49280161D02*
X14586905Y-49184923D01*
X14586905Y-49184923D02*
X14539286Y-48994447D01*
X14539286Y-48994447D02*
X14539286Y-48851590D01*
X14539286Y-48851590D02*
X14586905Y-48661114D01*
X14586905Y-48661114D02*
X14634524Y-48565876D01*
X14634524Y-48565876D02*
X14729762Y-48470638D01*
X14729762Y-48470638D02*
X14872619Y-48423019D01*
X14872619Y-48423019D02*
X14967857Y-48423019D01*
X14967857Y-48423019D02*
X15110714Y-48470638D01*
X15110714Y-48470638D02*
X15158333Y-48518257D01*
X16063095Y-48423019D02*
X15586905Y-48423019D01*
X15586905Y-48423019D02*
X15539286Y-48899209D01*
X15539286Y-48899209D02*
X15586905Y-48851590D01*
X15586905Y-48851590D02*
X15682143Y-48803971D01*
X15682143Y-48803971D02*
X15920238Y-48803971D01*
X15920238Y-48803971D02*
X16015476Y-48851590D01*
X16015476Y-48851590D02*
X16063095Y-48899209D01*
X16063095Y-48899209D02*
X16110714Y-48994447D01*
X16110714Y-48994447D02*
X16110714Y-49232542D01*
X16110714Y-49232542D02*
X16063095Y-49327780D01*
X16063095Y-49327780D02*
X16015476Y-49375400D01*
X16015476Y-49375400D02*
X15920238Y-49423019D01*
X15920238Y-49423019D02*
X15682143Y-49423019D01*
X15682143Y-49423019D02*
X15586905Y-49375400D01*
X15586905Y-49375400D02*
X15539286Y-49327780D01*
X14253571Y-56923019D02*
X13682143Y-56923019D01*
X13967857Y-56923019D02*
X13967857Y-55923019D01*
X13967857Y-55923019D02*
X13872619Y-56065876D01*
X13872619Y-56065876D02*
X13777381Y-56161114D01*
X13777381Y-56161114D02*
X13682143Y-56208733D01*
X14872619Y-55923019D02*
X14967857Y-55923019D01*
X14967857Y-55923019D02*
X15063095Y-55970638D01*
X15063095Y-55970638D02*
X15110714Y-56018257D01*
X15110714Y-56018257D02*
X15158333Y-56113495D01*
X15158333Y-56113495D02*
X15205952Y-56303971D01*
X15205952Y-56303971D02*
X15205952Y-56542066D01*
X15205952Y-56542066D02*
X15158333Y-56732542D01*
X15158333Y-56732542D02*
X15110714Y-56827780D01*
X15110714Y-56827780D02*
X15063095Y-56875400D01*
X15063095Y-56875400D02*
X14967857Y-56923019D01*
X14967857Y-56923019D02*
X14872619Y-56923019D01*
X14872619Y-56923019D02*
X14777381Y-56875400D01*
X14777381Y-56875400D02*
X14729762Y-56827780D01*
X14729762Y-56827780D02*
X14682143Y-56732542D01*
X14682143Y-56732542D02*
X14634524Y-56542066D01*
X14634524Y-56542066D02*
X14634524Y-56303971D01*
X14634524Y-56303971D02*
X14682143Y-56113495D01*
X14682143Y-56113495D02*
X14729762Y-56018257D01*
X14729762Y-56018257D02*
X14777381Y-55970638D01*
X14777381Y-55970638D02*
X14872619Y-55923019D01*
X16063095Y-56256352D02*
X16063095Y-56923019D01*
X15634524Y-56256352D02*
X15634524Y-56780161D01*
X15634524Y-56780161D02*
X15682143Y-56875400D01*
X15682143Y-56875400D02*
X15777381Y-56923019D01*
X15777381Y-56923019D02*
X15920238Y-56923019D01*
X15920238Y-56923019D02*
X16015476Y-56875400D01*
X16015476Y-56875400D02*
X16063095Y-56827780D01*
X16872619Y-56399209D02*
X16539286Y-56399209D01*
X16539286Y-56923019D02*
X16539286Y-55923019D01*
X16539286Y-55923019D02*
X17015476Y-55923019D01*
%TO.C,C3*%
D11*
X32955000Y-71348200D02*
X38195000Y-71348200D01*
X32955000Y-71685200D02*
X32955000Y-71348200D01*
X32955000Y-74088200D02*
X32955000Y-73751200D01*
X38195000Y-71348200D02*
X38195000Y-71685200D01*
X38195000Y-73751200D02*
X38195000Y-74088200D01*
X38195000Y-74088200D02*
X32955000Y-74088200D01*
%TO.C,J1*%
X30195000Y-8338200D02*
X31575000Y-8338200D01*
X30195000Y-9718200D02*
X30195000Y-8338200D01*
X30195000Y-10988200D02*
X30195000Y-13638200D01*
X30195000Y-10988200D02*
X32955000Y-10988200D01*
X30195000Y-13638200D02*
X32955000Y-13638200D01*
X32955000Y-10988200D02*
X32955000Y-13638200D01*
%TO.C,J2*%
X33695000Y-59838200D02*
X35075000Y-59838200D01*
X33695000Y-61218200D02*
X33695000Y-59838200D01*
X33695000Y-62488200D02*
X33695000Y-65138200D01*
X33695000Y-62488200D02*
X36455000Y-62488200D01*
X33695000Y-65138200D02*
X36455000Y-65138200D01*
X36455000Y-62488200D02*
X36455000Y-65138200D01*
%TO.C,C4*%
X13520225Y-38743200D02*
X14020225Y-38743200D01*
X13770225Y-38493200D02*
X13770225Y-38993200D01*
X16325000Y-37638200D02*
X16325000Y-42798200D01*
X16365000Y-37638200D02*
X16365000Y-42798200D01*
X16405000Y-37639200D02*
X16405000Y-42797200D01*
X16445000Y-37641200D02*
X16445000Y-42795200D01*
X16485000Y-37643200D02*
X16485000Y-42793200D01*
X16525000Y-37646200D02*
X16525000Y-42790200D01*
X16565000Y-37649200D02*
X16565000Y-39178200D01*
X16565000Y-41258200D02*
X16565000Y-42787200D01*
X16605000Y-37653200D02*
X16605000Y-39178200D01*
X16605000Y-41258200D02*
X16605000Y-42783200D01*
X16645000Y-37658200D02*
X16645000Y-39178200D01*
X16645000Y-41258200D02*
X16645000Y-42778200D01*
X16685000Y-37663200D02*
X16685000Y-39178200D01*
X16685000Y-41258200D02*
X16685000Y-42773200D01*
X16725000Y-37669200D02*
X16725000Y-39178200D01*
X16725000Y-41258200D02*
X16725000Y-42767200D01*
X16765000Y-37675200D02*
X16765000Y-39178200D01*
X16765000Y-41258200D02*
X16765000Y-42761200D01*
X16805000Y-37682200D02*
X16805000Y-39178200D01*
X16805000Y-41258200D02*
X16805000Y-42754200D01*
X16845000Y-37690200D02*
X16845000Y-39178200D01*
X16845000Y-41258200D02*
X16845000Y-42746200D01*
X16885000Y-37699200D02*
X16885000Y-39178200D01*
X16885000Y-41258200D02*
X16885000Y-42737200D01*
X16925000Y-37708200D02*
X16925000Y-39178200D01*
X16925000Y-41258200D02*
X16925000Y-42728200D01*
X16965000Y-37717200D02*
X16965000Y-39178200D01*
X16965000Y-41258200D02*
X16965000Y-42719200D01*
X17005000Y-37728200D02*
X17005000Y-39178200D01*
X17005000Y-41258200D02*
X17005000Y-42708200D01*
X17045000Y-37739200D02*
X17045000Y-39178200D01*
X17045000Y-41258200D02*
X17045000Y-42697200D01*
X17085000Y-37751200D02*
X17085000Y-39178200D01*
X17085000Y-41258200D02*
X17085000Y-42685200D01*
X17125000Y-37763200D02*
X17125000Y-39178200D01*
X17125000Y-41258200D02*
X17125000Y-42673200D01*
X17165000Y-37776200D02*
X17165000Y-39178200D01*
X17165000Y-41258200D02*
X17165000Y-42660200D01*
X17205000Y-37790200D02*
X17205000Y-39178200D01*
X17205000Y-41258200D02*
X17205000Y-42646200D01*
X17245000Y-37805200D02*
X17245000Y-39178200D01*
X17245000Y-41258200D02*
X17245000Y-42631200D01*
X17285000Y-37820200D02*
X17285000Y-39178200D01*
X17285000Y-41258200D02*
X17285000Y-42616200D01*
X17325000Y-37836200D02*
X17325000Y-39178200D01*
X17325000Y-41258200D02*
X17325000Y-42600200D01*
X17365000Y-37853200D02*
X17365000Y-39178200D01*
X17365000Y-41258200D02*
X17365000Y-42583200D01*
X17405000Y-37871200D02*
X17405000Y-39178200D01*
X17405000Y-41258200D02*
X17405000Y-42565200D01*
X17445000Y-37889200D02*
X17445000Y-39178200D01*
X17445000Y-41258200D02*
X17445000Y-42547200D01*
X17485000Y-37909200D02*
X17485000Y-39178200D01*
X17485000Y-41258200D02*
X17485000Y-42527200D01*
X17525000Y-37929200D02*
X17525000Y-39178200D01*
X17525000Y-41258200D02*
X17525000Y-42507200D01*
X17565000Y-37950200D02*
X17565000Y-39178200D01*
X17565000Y-41258200D02*
X17565000Y-42486200D01*
X17605000Y-37972200D02*
X17605000Y-39178200D01*
X17605000Y-41258200D02*
X17605000Y-42464200D01*
X17645000Y-37995200D02*
X17645000Y-39178200D01*
X17645000Y-41258200D02*
X17645000Y-42441200D01*
X17685000Y-38019200D02*
X17685000Y-39178200D01*
X17685000Y-41258200D02*
X17685000Y-42417200D01*
X17725000Y-38043200D02*
X17725000Y-39178200D01*
X17725000Y-41258200D02*
X17725000Y-42393200D01*
X17765000Y-38069200D02*
X17765000Y-39178200D01*
X17765000Y-41258200D02*
X17765000Y-42367200D01*
X17805000Y-38096200D02*
X17805000Y-39178200D01*
X17805000Y-41258200D02*
X17805000Y-42340200D01*
X17845000Y-38124200D02*
X17845000Y-39178200D01*
X17845000Y-41258200D02*
X17845000Y-42312200D01*
X17885000Y-38153200D02*
X17885000Y-39178200D01*
X17885000Y-41258200D02*
X17885000Y-42283200D01*
X17925000Y-38183200D02*
X17925000Y-39178200D01*
X17925000Y-41258200D02*
X17925000Y-42253200D01*
X17965000Y-38215200D02*
X17965000Y-39178200D01*
X17965000Y-41258200D02*
X17965000Y-42221200D01*
X18005000Y-38248200D02*
X18005000Y-39178200D01*
X18005000Y-41258200D02*
X18005000Y-42188200D01*
X18045000Y-38282200D02*
X18045000Y-39178200D01*
X18045000Y-41258200D02*
X18045000Y-42154200D01*
X18085000Y-38317200D02*
X18085000Y-39178200D01*
X18085000Y-41258200D02*
X18085000Y-42119200D01*
X18125000Y-38354200D02*
X18125000Y-39178200D01*
X18125000Y-41258200D02*
X18125000Y-42082200D01*
X18165000Y-38393200D02*
X18165000Y-39178200D01*
X18165000Y-41258200D02*
X18165000Y-42043200D01*
X18205000Y-38433200D02*
X18205000Y-39178200D01*
X18205000Y-41258200D02*
X18205000Y-42003200D01*
X18245000Y-38475200D02*
X18245000Y-39178200D01*
X18245000Y-41258200D02*
X18245000Y-41961200D01*
X18285000Y-38519200D02*
X18285000Y-39178200D01*
X18285000Y-41258200D02*
X18285000Y-41917200D01*
X18325000Y-38566200D02*
X18325000Y-39178200D01*
X18325000Y-41258200D02*
X18325000Y-41870200D01*
X18365000Y-38614200D02*
X18365000Y-39178200D01*
X18365000Y-41258200D02*
X18365000Y-41822200D01*
X18405000Y-38665200D02*
X18405000Y-39178200D01*
X18405000Y-41258200D02*
X18405000Y-41771200D01*
X18445000Y-38719200D02*
X18445000Y-39178200D01*
X18445000Y-41258200D02*
X18445000Y-41717200D01*
X18485000Y-38775200D02*
X18485000Y-39178200D01*
X18485000Y-41258200D02*
X18485000Y-41661200D01*
X18525000Y-38835200D02*
X18525000Y-39178200D01*
X18525000Y-41258200D02*
X18525000Y-41601200D01*
X18565000Y-38899200D02*
X18565000Y-39178200D01*
X18565000Y-41258200D02*
X18565000Y-41537200D01*
X18605000Y-38967200D02*
X18605000Y-39178200D01*
X18605000Y-41258200D02*
X18605000Y-41469200D01*
X18645000Y-39041200D02*
X18645000Y-41395200D01*
X18685000Y-39120200D02*
X18685000Y-41316200D01*
X18725000Y-39207200D02*
X18725000Y-41229200D01*
X18765000Y-39304200D02*
X18765000Y-41132200D01*
X18805000Y-39413200D02*
X18805000Y-41023200D01*
X18845000Y-39541200D02*
X18845000Y-40895200D01*
X18885000Y-39701200D02*
X18885000Y-40735200D01*
X18925000Y-39935200D02*
X18925000Y-40501200D01*
X18945000Y-40218200D02*
G75*
G02*
X13705000Y-40218200I-2620000J0D01*
G01*
X13705000Y-40218200D02*
G75*
G02*
X18945000Y-40218200I2620000J0D01*
G01*
%TO.C,R7*%
X52615000Y-16218200D02*
X53385000Y-16218200D01*
X60695000Y-16218200D02*
X59925000Y-16218200D01*
X53385000Y-14848200D02*
X59925000Y-14848200D01*
X59925000Y-17588200D01*
X53385000Y-17588200D01*
X53385000Y-14848200D01*
%TO.C,J3*%
X25695000Y-47838200D02*
X27075000Y-47838200D01*
X25695000Y-49218200D02*
X25695000Y-47838200D01*
X25695000Y-50488200D02*
X25695000Y-53138200D01*
X25695000Y-50488200D02*
X28455000Y-50488200D01*
X25695000Y-53138200D02*
X28455000Y-53138200D01*
X28455000Y-50488200D02*
X28455000Y-53138200D01*
%TO.C,C1*%
X51455000Y-24348200D02*
X56695000Y-24348200D01*
X51455000Y-24685200D02*
X51455000Y-24348200D01*
X51455000Y-27088200D02*
X51455000Y-26751200D01*
X56695000Y-24348200D02*
X56695000Y-24685200D01*
X56695000Y-26751200D02*
X56695000Y-27088200D01*
X56695000Y-27088200D02*
X51455000Y-27088200D01*
%TO.C,R1*%
X61615000Y-45218200D02*
X62385000Y-45218200D01*
X69695000Y-45218200D02*
X68925000Y-45218200D01*
X62385000Y-43848200D02*
X68925000Y-43848200D01*
X68925000Y-46588200D01*
X62385000Y-46588200D01*
X62385000Y-43848200D01*
%TO.C,R6*%
X5115000Y-9718200D02*
X5885000Y-9718200D01*
X13195000Y-9718200D02*
X12425000Y-9718200D01*
X5885000Y-8348200D02*
X12425000Y-8348200D01*
X12425000Y-11088200D01*
X5885000Y-11088200D01*
X5885000Y-8348200D01*
%TO.C,Q1*%
X62045000Y-33568200D02*
X65645000Y-33568200D01*
X62006522Y-33556678D02*
G75*
G02*
X63845000Y-29118199I1838478J1838478D01*
G01*
X63845000Y-29118200D02*
G75*
G02*
X65683478Y-33556678I0J-2600000D01*
G01*
%TO.C,U1*%
X32735000Y-32888200D02*
X32735000Y-43168200D01*
X32735000Y-43168200D02*
X38035000Y-43168200D01*
X34385000Y-32888200D02*
X32735000Y-32888200D01*
X38035000Y-32888200D02*
X36385000Y-32888200D01*
X38035000Y-43168200D02*
X38035000Y-32888200D01*
X36385000Y-32888200D02*
G75*
G02*
X34385000Y-32888200I-1000000J0D01*
G01*
%TO.C,C2*%
X5955000Y-20848200D02*
X11195000Y-20848200D01*
X5955000Y-21185200D02*
X5955000Y-20848200D01*
X5955000Y-23588200D02*
X5955000Y-23251200D01*
X11195000Y-20848200D02*
X11195000Y-21185200D01*
X11195000Y-23251200D02*
X11195000Y-23588200D01*
X11195000Y-23588200D02*
X5955000Y-23588200D01*
%TO.C,R4*%
X48615000Y-35718200D02*
X49385000Y-35718200D01*
X56695000Y-35718200D02*
X55925000Y-35718200D01*
X49385000Y-34348200D02*
X55925000Y-34348200D01*
X55925000Y-37088200D01*
X49385000Y-37088200D01*
X49385000Y-34348200D01*
%TO.C,R3*%
X43115000Y-47718200D02*
X43885000Y-47718200D01*
X51195000Y-47718200D02*
X50425000Y-47718200D01*
X43885000Y-46348200D02*
X50425000Y-46348200D01*
X50425000Y-49088200D01*
X43885000Y-49088200D01*
X43885000Y-46348200D01*
%TO.C,R5*%
X20115000Y-20718200D02*
X20885000Y-20718200D01*
X28195000Y-20718200D02*
X27425000Y-20718200D01*
X20885000Y-19348200D02*
X27425000Y-19348200D01*
X27425000Y-22088200D01*
X20885000Y-22088200D01*
X20885000Y-19348200D01*
%TO.C,R2*%
X50115000Y-6218200D02*
X50885000Y-6218200D01*
X58195000Y-6218200D02*
X57425000Y-6218200D01*
X50885000Y-4848200D02*
X57425000Y-4848200D01*
X57425000Y-7588200D01*
X50885000Y-7588200D01*
X50885000Y-4848200D01*
%TO.C,C5*%
X12520225Y-51243200D02*
X13020225Y-51243200D01*
X12770225Y-50993200D02*
X12770225Y-51493200D01*
X15325000Y-50138200D02*
X15325000Y-55298200D01*
X15365000Y-50138200D02*
X15365000Y-55298200D01*
X15405000Y-50139200D02*
X15405000Y-55297200D01*
X15445000Y-50141200D02*
X15445000Y-55295200D01*
X15485000Y-50143200D02*
X15485000Y-55293200D01*
X15525000Y-50146200D02*
X15525000Y-55290200D01*
X15565000Y-50149200D02*
X15565000Y-51678200D01*
X15565000Y-53758200D02*
X15565000Y-55287200D01*
X15605000Y-50153200D02*
X15605000Y-51678200D01*
X15605000Y-53758200D02*
X15605000Y-55283200D01*
X15645000Y-50158200D02*
X15645000Y-51678200D01*
X15645000Y-53758200D02*
X15645000Y-55278200D01*
X15685000Y-50163200D02*
X15685000Y-51678200D01*
X15685000Y-53758200D02*
X15685000Y-55273200D01*
X15725000Y-50169200D02*
X15725000Y-51678200D01*
X15725000Y-53758200D02*
X15725000Y-55267200D01*
X15765000Y-50175200D02*
X15765000Y-51678200D01*
X15765000Y-53758200D02*
X15765000Y-55261200D01*
X15805000Y-50182200D02*
X15805000Y-51678200D01*
X15805000Y-53758200D02*
X15805000Y-55254200D01*
X15845000Y-50190200D02*
X15845000Y-51678200D01*
X15845000Y-53758200D02*
X15845000Y-55246200D01*
X15885000Y-50199200D02*
X15885000Y-51678200D01*
X15885000Y-53758200D02*
X15885000Y-55237200D01*
X15925000Y-50208200D02*
X15925000Y-51678200D01*
X15925000Y-53758200D02*
X15925000Y-55228200D01*
X15965000Y-50217200D02*
X15965000Y-51678200D01*
X15965000Y-53758200D02*
X15965000Y-55219200D01*
X16005000Y-50228200D02*
X16005000Y-51678200D01*
X16005000Y-53758200D02*
X16005000Y-55208200D01*
X16045000Y-50239200D02*
X16045000Y-51678200D01*
X16045000Y-53758200D02*
X16045000Y-55197200D01*
X16085000Y-50251200D02*
X16085000Y-51678200D01*
X16085000Y-53758200D02*
X16085000Y-55185200D01*
X16125000Y-50263200D02*
X16125000Y-51678200D01*
X16125000Y-53758200D02*
X16125000Y-55173200D01*
X16165000Y-50276200D02*
X16165000Y-51678200D01*
X16165000Y-53758200D02*
X16165000Y-55160200D01*
X16205000Y-50290200D02*
X16205000Y-51678200D01*
X16205000Y-53758200D02*
X16205000Y-55146200D01*
X16245000Y-50305200D02*
X16245000Y-51678200D01*
X16245000Y-53758200D02*
X16245000Y-55131200D01*
X16285000Y-50320200D02*
X16285000Y-51678200D01*
X16285000Y-53758200D02*
X16285000Y-55116200D01*
X16325000Y-50336200D02*
X16325000Y-51678200D01*
X16325000Y-53758200D02*
X16325000Y-55100200D01*
X16365000Y-50353200D02*
X16365000Y-51678200D01*
X16365000Y-53758200D02*
X16365000Y-55083200D01*
X16405000Y-50371200D02*
X16405000Y-51678200D01*
X16405000Y-53758200D02*
X16405000Y-55065200D01*
X16445000Y-50389200D02*
X16445000Y-51678200D01*
X16445000Y-53758200D02*
X16445000Y-55047200D01*
X16485000Y-50409200D02*
X16485000Y-51678200D01*
X16485000Y-53758200D02*
X16485000Y-55027200D01*
X16525000Y-50429200D02*
X16525000Y-51678200D01*
X16525000Y-53758200D02*
X16525000Y-55007200D01*
X16565000Y-50450200D02*
X16565000Y-51678200D01*
X16565000Y-53758200D02*
X16565000Y-54986200D01*
X16605000Y-50472200D02*
X16605000Y-51678200D01*
X16605000Y-53758200D02*
X16605000Y-54964200D01*
X16645000Y-50495200D02*
X16645000Y-51678200D01*
X16645000Y-53758200D02*
X16645000Y-54941200D01*
X16685000Y-50519200D02*
X16685000Y-51678200D01*
X16685000Y-53758200D02*
X16685000Y-54917200D01*
X16725000Y-50543200D02*
X16725000Y-51678200D01*
X16725000Y-53758200D02*
X16725000Y-54893200D01*
X16765000Y-50569200D02*
X16765000Y-51678200D01*
X16765000Y-53758200D02*
X16765000Y-54867200D01*
X16805000Y-50596200D02*
X16805000Y-51678200D01*
X16805000Y-53758200D02*
X16805000Y-54840200D01*
X16845000Y-50624200D02*
X16845000Y-51678200D01*
X16845000Y-53758200D02*
X16845000Y-54812200D01*
X16885000Y-50653200D02*
X16885000Y-51678200D01*
X16885000Y-53758200D02*
X16885000Y-54783200D01*
X16925000Y-50683200D02*
X16925000Y-51678200D01*
X16925000Y-53758200D02*
X16925000Y-54753200D01*
X16965000Y-50715200D02*
X16965000Y-51678200D01*
X16965000Y-53758200D02*
X16965000Y-54721200D01*
X17005000Y-50748200D02*
X17005000Y-51678200D01*
X17005000Y-53758200D02*
X17005000Y-54688200D01*
X17045000Y-50782200D02*
X17045000Y-51678200D01*
X17045000Y-53758200D02*
X17045000Y-54654200D01*
X17085000Y-50817200D02*
X17085000Y-51678200D01*
X17085000Y-53758200D02*
X17085000Y-54619200D01*
X17125000Y-50854200D02*
X17125000Y-51678200D01*
X17125000Y-53758200D02*
X17125000Y-54582200D01*
X17165000Y-50893200D02*
X17165000Y-51678200D01*
X17165000Y-53758200D02*
X17165000Y-54543200D01*
X17205000Y-50933200D02*
X17205000Y-51678200D01*
X17205000Y-53758200D02*
X17205000Y-54503200D01*
X17245000Y-50975200D02*
X17245000Y-51678200D01*
X17245000Y-53758200D02*
X17245000Y-54461200D01*
X17285000Y-51019200D02*
X17285000Y-51678200D01*
X17285000Y-53758200D02*
X17285000Y-54417200D01*
X17325000Y-51066200D02*
X17325000Y-51678200D01*
X17325000Y-53758200D02*
X17325000Y-54370200D01*
X17365000Y-51114200D02*
X17365000Y-51678200D01*
X17365000Y-53758200D02*
X17365000Y-54322200D01*
X17405000Y-51165200D02*
X17405000Y-51678200D01*
X17405000Y-53758200D02*
X17405000Y-54271200D01*
X17445000Y-51219200D02*
X17445000Y-51678200D01*
X17445000Y-53758200D02*
X17445000Y-54217200D01*
X17485000Y-51275200D02*
X17485000Y-51678200D01*
X17485000Y-53758200D02*
X17485000Y-54161200D01*
X17525000Y-51335200D02*
X17525000Y-51678200D01*
X17525000Y-53758200D02*
X17525000Y-54101200D01*
X17565000Y-51399200D02*
X17565000Y-51678200D01*
X17565000Y-53758200D02*
X17565000Y-54037200D01*
X17605000Y-51467200D02*
X17605000Y-51678200D01*
X17605000Y-53758200D02*
X17605000Y-53969200D01*
X17645000Y-51541200D02*
X17645000Y-53895200D01*
X17685000Y-51620200D02*
X17685000Y-53816200D01*
X17725000Y-51707200D02*
X17725000Y-53729200D01*
X17765000Y-51804200D02*
X17765000Y-53632200D01*
X17805000Y-51913200D02*
X17805000Y-53523200D01*
X17845000Y-52041200D02*
X17845000Y-53395200D01*
X17885000Y-52201200D02*
X17885000Y-53235200D01*
X17925000Y-52435200D02*
X17925000Y-53001200D01*
X17945000Y-52718200D02*
G75*
G02*
X12705000Y-52718200I-2620000J0D01*
G01*
X12705000Y-52718200D02*
G75*
G02*
X17945000Y-52718200I2620000J0D01*
G01*
%TD*%
M02*
