M48
; DRILL file KiCad 10.0.5 date 2026-09-24T17:49:11
; FORMAT={-:-/ absolute / metric / decimal}
; #@! TF.CreationDate,2026-09-24T17:49:11-05:00
; #@! TF.GenerationSoftware,Kicad,Pcbnew,10.0.5
; #@! TF.FileFunction,MixedPlating,1,2
FMAT,2
METRIC
; #@! TA.AperFunction,Plated,PTH,ViaDrill
T1C0.300
; #@! TA.AperFunction,Plated,PTH,ComponentDrill
T2C0.750
; #@! TA.AperFunction,Plated,PTH,ComponentDrill
T3C0.800
; #@! TA.AperFunction,Plated,PTH,ComponentDrill
T4C1.000
%
G90
G05
T1
X27.818Y-29.578
X54.057Y-43.279
T2
X62.575Y-31.718
X63.845Y-31.718
X65.115Y-31.718
T3
X4.075Y-9.718
X6.075Y-22.218
X11.075Y-22.218
X14.075Y-52.718
X14.235Y-9.718
X15.075Y-40.218
X16.575Y-52.718
X17.575Y-40.218
X19.075Y-20.718
X29.235Y-20.718
X31.575Y-34.218
X31.575Y-36.758
X31.575Y-39.298
X31.575Y-41.838
X33.075Y-72.718
X38.075Y-72.718
X39.195Y-34.218
X39.195Y-36.758
X39.195Y-39.298
X39.195Y-41.838
X42.075Y-47.718
X47.575Y-35.718
X49.075Y-6.218
X51.575Y-16.218
X51.575Y-25.718
X52.235Y-47.718
X56.575Y-25.718
X57.735Y-35.718
X59.235Y-6.218
X60.575Y-45.218
X61.735Y-16.218
X70.735Y-45.218
T4
X27.075Y-49.218
X27.075Y-51.758
X31.575Y-9.718
X31.575Y-12.258
X35.075Y-61.218
X35.075Y-63.758
M30
