%TF.GenerationSoftware,KiCad,Pcbnew,10.0.5*%
%TF.CreationDate,2026-09-24T17:24:27-05:00*%
%TF.ProjectId,hrng,68726e67-2e6b-4696-9361-645f70636258,rev?*%
%TF.SameCoordinates,Original*%
%TF.FileFunction,Legend,Top*%
%TF.FilePolarity,Positive*%
%FSLAX46Y46*%
G04 Gerber Fmt 4.6, Leading zero omitted, Abs format (unit mm)*
G04 Created by KiCad (PCBNEW 10.0.5) date 2026-09-24 17:24:27*
%MOMM*%
%LPD*%
G01*
G04 APERTURE LIST*
%ADD10C,0.150000*%
%ADD11C,0.120000*%
G04 APERTURE END LIST*
D10*
X136833333Y-48359580D02*
X136785714Y-48407200D01*
X136785714Y-48407200D02*
X136642857Y-48454819D01*
X136642857Y-48454819D02*
X136547619Y-48454819D01*
X136547619Y-48454819D02*
X136404762Y-48407200D01*
X136404762Y-48407200D02*
X136309524Y-48311961D01*
X136309524Y-48311961D02*
X136261905Y-48216723D01*
X136261905Y-48216723D02*
X136214286Y-48026247D01*
X136214286Y-48026247D02*
X136214286Y-47883390D01*
X136214286Y-47883390D02*
X136261905Y-47692914D01*
X136261905Y-47692914D02*
X136309524Y-47597676D01*
X136309524Y-47597676D02*
X136404762Y-47502438D01*
X136404762Y-47502438D02*
X136547619Y-47454819D01*
X136547619Y-47454819D02*
X136642857Y-47454819D01*
X136642857Y-47454819D02*
X136785714Y-47502438D01*
X136785714Y-47502438D02*
X136833333Y-47550057D01*
X137166667Y-47454819D02*
X137785714Y-47454819D01*
X137785714Y-47454819D02*
X137452381Y-47835771D01*
X137452381Y-47835771D02*
X137595238Y-47835771D01*
X137595238Y-47835771D02*
X137690476Y-47883390D01*
X137690476Y-47883390D02*
X137738095Y-47931009D01*
X137738095Y-47931009D02*
X137785714Y-48026247D01*
X137785714Y-48026247D02*
X137785714Y-48264342D01*
X137785714Y-48264342D02*
X137738095Y-48359580D01*
X137738095Y-48359580D02*
X137690476Y-48407200D01*
X137690476Y-48407200D02*
X137595238Y-48454819D01*
X137595238Y-48454819D02*
X137309524Y-48454819D01*
X137309524Y-48454819D02*
X137214286Y-48407200D01*
X137214286Y-48407200D02*
X137166667Y-48359580D01*
X105048095Y-63624819D02*
X105048095Y-64434342D01*
X105048095Y-64434342D02*
X105095714Y-64529580D01*
X105095714Y-64529580D02*
X105143333Y-64577200D01*
X105143333Y-64577200D02*
X105238571Y-64624819D01*
X105238571Y-64624819D02*
X105429047Y-64624819D01*
X105429047Y-64624819D02*
X105524285Y-64577200D01*
X105524285Y-64577200D02*
X105571904Y-64529580D01*
X105571904Y-64529580D02*
X105619523Y-64434342D01*
X105619523Y-64434342D02*
X105619523Y-63624819D01*
X106048095Y-63720057D02*
X106095714Y-63672438D01*
X106095714Y-63672438D02*
X106190952Y-63624819D01*
X106190952Y-63624819D02*
X106429047Y-63624819D01*
X106429047Y-63624819D02*
X106524285Y-63672438D01*
X106524285Y-63672438D02*
X106571904Y-63720057D01*
X106571904Y-63720057D02*
X106619523Y-63815295D01*
X106619523Y-63815295D02*
X106619523Y-63910533D01*
X106619523Y-63910533D02*
X106571904Y-64053390D01*
X106571904Y-64053390D02*
X106000476Y-64624819D01*
X106000476Y-64624819D02*
X106619523Y-64624819D01*
X94413333Y-78084819D02*
X94080000Y-77608628D01*
X93841905Y-78084819D02*
X93841905Y-77084819D01*
X93841905Y-77084819D02*
X94222857Y-77084819D01*
X94222857Y-77084819D02*
X94318095Y-77132438D01*
X94318095Y-77132438D02*
X94365714Y-77180057D01*
X94365714Y-77180057D02*
X94413333Y-77275295D01*
X94413333Y-77275295D02*
X94413333Y-77418152D01*
X94413333Y-77418152D02*
X94365714Y-77513390D01*
X94365714Y-77513390D02*
X94318095Y-77561009D01*
X94318095Y-77561009D02*
X94222857Y-77608628D01*
X94222857Y-77608628D02*
X93841905Y-77608628D01*
X94984762Y-77513390D02*
X94889524Y-77465771D01*
X94889524Y-77465771D02*
X94841905Y-77418152D01*
X94841905Y-77418152D02*
X94794286Y-77322914D01*
X94794286Y-77322914D02*
X94794286Y-77275295D01*
X94794286Y-77275295D02*
X94841905Y-77180057D01*
X94841905Y-77180057D02*
X94889524Y-77132438D01*
X94889524Y-77132438D02*
X94984762Y-77084819D01*
X94984762Y-77084819D02*
X95175238Y-77084819D01*
X95175238Y-77084819D02*
X95270476Y-77132438D01*
X95270476Y-77132438D02*
X95318095Y-77180057D01*
X95318095Y-77180057D02*
X95365714Y-77275295D01*
X95365714Y-77275295D02*
X95365714Y-77322914D01*
X95365714Y-77322914D02*
X95318095Y-77418152D01*
X95318095Y-77418152D02*
X95270476Y-77465771D01*
X95270476Y-77465771D02*
X95175238Y-77513390D01*
X95175238Y-77513390D02*
X94984762Y-77513390D01*
X94984762Y-77513390D02*
X94889524Y-77561009D01*
X94889524Y-77561009D02*
X94841905Y-77608628D01*
X94841905Y-77608628D02*
X94794286Y-77703866D01*
X94794286Y-77703866D02*
X94794286Y-77894342D01*
X94794286Y-77894342D02*
X94841905Y-77989580D01*
X94841905Y-77989580D02*
X94889524Y-78037200D01*
X94889524Y-78037200D02*
X94984762Y-78084819D01*
X94984762Y-78084819D02*
X95175238Y-78084819D01*
X95175238Y-78084819D02*
X95270476Y-78037200D01*
X95270476Y-78037200D02*
X95318095Y-77989580D01*
X95318095Y-77989580D02*
X95365714Y-77894342D01*
X95365714Y-77894342D02*
X95365714Y-77703866D01*
X95365714Y-77703866D02*
X95318095Y-77608628D01*
X95318095Y-77608628D02*
X95270476Y-77561009D01*
X95270476Y-77561009D02*
X95175238Y-77513390D01*
X72166666Y-48574819D02*
X72166666Y-49289104D01*
X72166666Y-49289104D02*
X72119047Y-49431961D01*
X72119047Y-49431961D02*
X72023809Y-49527200D01*
X72023809Y-49527200D02*
X71880952Y-49574819D01*
X71880952Y-49574819D02*
X71785714Y-49574819D01*
X73166666Y-49574819D02*
X72595238Y-49574819D01*
X72880952Y-49574819D02*
X72880952Y-48574819D01*
X72880952Y-48574819D02*
X72785714Y-48717676D01*
X72785714Y-48717676D02*
X72690476Y-48812914D01*
X72690476Y-48812914D02*
X72595238Y-48860533D01*
X107413333Y-4084819D02*
X107080000Y-3608628D01*
X106841905Y-4084819D02*
X106841905Y-3084819D01*
X106841905Y-3084819D02*
X107222857Y-3084819D01*
X107222857Y-3084819D02*
X107318095Y-3132438D01*
X107318095Y-3132438D02*
X107365714Y-3180057D01*
X107365714Y-3180057D02*
X107413333Y-3275295D01*
X107413333Y-3275295D02*
X107413333Y-3418152D01*
X107413333Y-3418152D02*
X107365714Y-3513390D01*
X107365714Y-3513390D02*
X107318095Y-3561009D01*
X107318095Y-3561009D02*
X107222857Y-3608628D01*
X107222857Y-3608628D02*
X106841905Y-3608628D01*
X107889524Y-4084819D02*
X108080000Y-4084819D01*
X108080000Y-4084819D02*
X108175238Y-4037200D01*
X108175238Y-4037200D02*
X108222857Y-3989580D01*
X108222857Y-3989580D02*
X108318095Y-3846723D01*
X108318095Y-3846723D02*
X108365714Y-3656247D01*
X108365714Y-3656247D02*
X108365714Y-3275295D01*
X108365714Y-3275295D02*
X108318095Y-3180057D01*
X108318095Y-3180057D02*
X108270476Y-3132438D01*
X108270476Y-3132438D02*
X108175238Y-3084819D01*
X108175238Y-3084819D02*
X107984762Y-3084819D01*
X107984762Y-3084819D02*
X107889524Y-3132438D01*
X107889524Y-3132438D02*
X107841905Y-3180057D01*
X107841905Y-3180057D02*
X107794286Y-3275295D01*
X107794286Y-3275295D02*
X107794286Y-3513390D01*
X107794286Y-3513390D02*
X107841905Y-3608628D01*
X107841905Y-3608628D02*
X107889524Y-3656247D01*
X107889524Y-3656247D02*
X107984762Y-3703866D01*
X107984762Y-3703866D02*
X108175238Y-3703866D01*
X108175238Y-3703866D02*
X108270476Y-3656247D01*
X108270476Y-3656247D02*
X108318095Y-3608628D01*
X108318095Y-3608628D02*
X108365714Y-3513390D01*
X142666666Y-18074819D02*
X142666666Y-18789104D01*
X142666666Y-18789104D02*
X142619047Y-18931961D01*
X142619047Y-18931961D02*
X142523809Y-19027200D01*
X142523809Y-19027200D02*
X142380952Y-19074819D01*
X142380952Y-19074819D02*
X142285714Y-19074819D01*
X143095238Y-18170057D02*
X143142857Y-18122438D01*
X143142857Y-18122438D02*
X143238095Y-18074819D01*
X143238095Y-18074819D02*
X143476190Y-18074819D01*
X143476190Y-18074819D02*
X143571428Y-18122438D01*
X143571428Y-18122438D02*
X143619047Y-18170057D01*
X143619047Y-18170057D02*
X143666666Y-18265295D01*
X143666666Y-18265295D02*
X143666666Y-18360533D01*
X143666666Y-18360533D02*
X143619047Y-18503390D01*
X143619047Y-18503390D02*
X143047619Y-19074819D01*
X143047619Y-19074819D02*
X143666666Y-19074819D01*
X42833333Y-75859580D02*
X42785714Y-75907200D01*
X42785714Y-75907200D02*
X42642857Y-75954819D01*
X42642857Y-75954819D02*
X42547619Y-75954819D01*
X42547619Y-75954819D02*
X42404762Y-75907200D01*
X42404762Y-75907200D02*
X42309524Y-75811961D01*
X42309524Y-75811961D02*
X42261905Y-75716723D01*
X42261905Y-75716723D02*
X42214286Y-75526247D01*
X42214286Y-75526247D02*
X42214286Y-75383390D01*
X42214286Y-75383390D02*
X42261905Y-75192914D01*
X42261905Y-75192914D02*
X42309524Y-75097676D01*
X42309524Y-75097676D02*
X42404762Y-75002438D01*
X42404762Y-75002438D02*
X42547619Y-74954819D01*
X42547619Y-74954819D02*
X42642857Y-74954819D01*
X42642857Y-74954819D02*
X42785714Y-75002438D01*
X42785714Y-75002438D02*
X42833333Y-75050057D01*
X43690476Y-75288152D02*
X43690476Y-75954819D01*
X43452381Y-74907200D02*
X43214286Y-75621485D01*
X43214286Y-75621485D02*
X43833333Y-75621485D01*
X75857142Y-87859580D02*
X75809523Y-87907200D01*
X75809523Y-87907200D02*
X75666666Y-87954819D01*
X75666666Y-87954819D02*
X75571428Y-87954819D01*
X75571428Y-87954819D02*
X75428571Y-87907200D01*
X75428571Y-87907200D02*
X75333333Y-87811961D01*
X75333333Y-87811961D02*
X75285714Y-87716723D01*
X75285714Y-87716723D02*
X75238095Y-87526247D01*
X75238095Y-87526247D02*
X75238095Y-87383390D01*
X75238095Y-87383390D02*
X75285714Y-87192914D01*
X75285714Y-87192914D02*
X75333333Y-87097676D01*
X75333333Y-87097676D02*
X75428571Y-87002438D01*
X75428571Y-87002438D02*
X75571428Y-86954819D01*
X75571428Y-86954819D02*
X75666666Y-86954819D01*
X75666666Y-86954819D02*
X75809523Y-87002438D01*
X75809523Y-87002438D02*
X75857142Y-87050057D01*
X76809523Y-87954819D02*
X76238095Y-87954819D01*
X76523809Y-87954819D02*
X76523809Y-86954819D01*
X76523809Y-86954819D02*
X76428571Y-87097676D01*
X76428571Y-87097676D02*
X76333333Y-87192914D01*
X76333333Y-87192914D02*
X76238095Y-87240533D01*
X77666666Y-86954819D02*
X77476190Y-86954819D01*
X77476190Y-86954819D02*
X77380952Y-87002438D01*
X77380952Y-87002438D02*
X77333333Y-87050057D01*
X77333333Y-87050057D02*
X77238095Y-87192914D01*
X77238095Y-87192914D02*
X77190476Y-87383390D01*
X77190476Y-87383390D02*
X77190476Y-87764342D01*
X77190476Y-87764342D02*
X77238095Y-87859580D01*
X77238095Y-87859580D02*
X77285714Y-87907200D01*
X77285714Y-87907200D02*
X77380952Y-87954819D01*
X77380952Y-87954819D02*
X77571428Y-87954819D01*
X77571428Y-87954819D02*
X77666666Y-87907200D01*
X77666666Y-87907200D02*
X77714285Y-87859580D01*
X77714285Y-87859580D02*
X77761904Y-87764342D01*
X77761904Y-87764342D02*
X77761904Y-87526247D01*
X77761904Y-87526247D02*
X77714285Y-87431009D01*
X77714285Y-87431009D02*
X77666666Y-87383390D01*
X77666666Y-87383390D02*
X77571428Y-87335771D01*
X77571428Y-87335771D02*
X77380952Y-87335771D01*
X77380952Y-87335771D02*
X77285714Y-87383390D01*
X77285714Y-87383390D02*
X77238095Y-87431009D01*
X77238095Y-87431009D02*
X77190476Y-87526247D01*
X126413333Y-38584819D02*
X126080000Y-38108628D01*
X125841905Y-38584819D02*
X125841905Y-37584819D01*
X125841905Y-37584819D02*
X126222857Y-37584819D01*
X126222857Y-37584819D02*
X126318095Y-37632438D01*
X126318095Y-37632438D02*
X126365714Y-37680057D01*
X126365714Y-37680057D02*
X126413333Y-37775295D01*
X126413333Y-37775295D02*
X126413333Y-37918152D01*
X126413333Y-37918152D02*
X126365714Y-38013390D01*
X126365714Y-38013390D02*
X126318095Y-38061009D01*
X126318095Y-38061009D02*
X126222857Y-38108628D01*
X126222857Y-38108628D02*
X125841905Y-38108628D01*
X126746667Y-37584819D02*
X127413333Y-37584819D01*
X127413333Y-37584819D02*
X126984762Y-38584819D01*
X142071905Y-32834819D02*
X142071905Y-31834819D01*
X142071905Y-31834819D02*
X142310000Y-31834819D01*
X142310000Y-31834819D02*
X142452857Y-31882438D01*
X142452857Y-31882438D02*
X142548095Y-31977676D01*
X142548095Y-31977676D02*
X142595714Y-32072914D01*
X142595714Y-32072914D02*
X142643333Y-32263390D01*
X142643333Y-32263390D02*
X142643333Y-32406247D01*
X142643333Y-32406247D02*
X142595714Y-32596723D01*
X142595714Y-32596723D02*
X142548095Y-32691961D01*
X142548095Y-32691961D02*
X142452857Y-32787200D01*
X142452857Y-32787200D02*
X142310000Y-32834819D01*
X142310000Y-32834819D02*
X142071905Y-32834819D01*
X143024286Y-31930057D02*
X143071905Y-31882438D01*
X143071905Y-31882438D02*
X143167143Y-31834819D01*
X143167143Y-31834819D02*
X143405238Y-31834819D01*
X143405238Y-31834819D02*
X143500476Y-31882438D01*
X143500476Y-31882438D02*
X143548095Y-31930057D01*
X143548095Y-31930057D02*
X143595714Y-32025295D01*
X143595714Y-32025295D02*
X143595714Y-32120533D01*
X143595714Y-32120533D02*
X143548095Y-32263390D01*
X143548095Y-32263390D02*
X142976667Y-32834819D01*
X142976667Y-32834819D02*
X143595714Y-32834819D01*
X138738095Y-33154819D02*
X138738095Y-32154819D01*
X139309523Y-33154819D02*
X138880952Y-32583390D01*
X139309523Y-32154819D02*
X138738095Y-32726247D01*
X48508095Y-25394819D02*
X48508095Y-26204342D01*
X48508095Y-26204342D02*
X48555714Y-26299580D01*
X48555714Y-26299580D02*
X48603333Y-26347200D01*
X48603333Y-26347200D02*
X48698571Y-26394819D01*
X48698571Y-26394819D02*
X48889047Y-26394819D01*
X48889047Y-26394819D02*
X48984285Y-26347200D01*
X48984285Y-26347200D02*
X49031904Y-26299580D01*
X49031904Y-26299580D02*
X49079523Y-26204342D01*
X49079523Y-26204342D02*
X49079523Y-25394819D01*
X49460476Y-25394819D02*
X50079523Y-25394819D01*
X50079523Y-25394819D02*
X49746190Y-25775771D01*
X49746190Y-25775771D02*
X49889047Y-25775771D01*
X49889047Y-25775771D02*
X49984285Y-25823390D01*
X49984285Y-25823390D02*
X50031904Y-25871009D01*
X50031904Y-25871009D02*
X50079523Y-25966247D01*
X50079523Y-25966247D02*
X50079523Y-26204342D01*
X50079523Y-26204342D02*
X50031904Y-26299580D01*
X50031904Y-26299580D02*
X49984285Y-26347200D01*
X49984285Y-26347200D02*
X49889047Y-26394819D01*
X49889047Y-26394819D02*
X49603333Y-26394819D01*
X49603333Y-26394819D02*
X49508095Y-26347200D01*
X49508095Y-26347200D02*
X49460476Y-26299580D01*
X72937142Y-35584819D02*
X72603809Y-35108628D01*
X72365714Y-35584819D02*
X72365714Y-34584819D01*
X72365714Y-34584819D02*
X72746666Y-34584819D01*
X72746666Y-34584819D02*
X72841904Y-34632438D01*
X72841904Y-34632438D02*
X72889523Y-34680057D01*
X72889523Y-34680057D02*
X72937142Y-34775295D01*
X72937142Y-34775295D02*
X72937142Y-34918152D01*
X72937142Y-34918152D02*
X72889523Y-35013390D01*
X72889523Y-35013390D02*
X72841904Y-35061009D01*
X72841904Y-35061009D02*
X72746666Y-35108628D01*
X72746666Y-35108628D02*
X72365714Y-35108628D01*
X73889523Y-35584819D02*
X73318095Y-35584819D01*
X73603809Y-35584819D02*
X73603809Y-34584819D01*
X73603809Y-34584819D02*
X73508571Y-34727676D01*
X73508571Y-34727676D02*
X73413333Y-34822914D01*
X73413333Y-34822914D02*
X73318095Y-34870533D01*
X74270476Y-34680057D02*
X74318095Y-34632438D01*
X74318095Y-34632438D02*
X74413333Y-34584819D01*
X74413333Y-34584819D02*
X74651428Y-34584819D01*
X74651428Y-34584819D02*
X74746666Y-34632438D01*
X74746666Y-34632438D02*
X74794285Y-34680057D01*
X74794285Y-34680057D02*
X74841904Y-34775295D01*
X74841904Y-34775295D02*
X74841904Y-34870533D01*
X74841904Y-34870533D02*
X74794285Y-35013390D01*
X74794285Y-35013390D02*
X74222857Y-35584819D01*
X74222857Y-35584819D02*
X74841904Y-35584819D01*
X29437142Y-37084819D02*
X29103809Y-36608628D01*
X28865714Y-37084819D02*
X28865714Y-36084819D01*
X28865714Y-36084819D02*
X29246666Y-36084819D01*
X29246666Y-36084819D02*
X29341904Y-36132438D01*
X29341904Y-36132438D02*
X29389523Y-36180057D01*
X29389523Y-36180057D02*
X29437142Y-36275295D01*
X29437142Y-36275295D02*
X29437142Y-36418152D01*
X29437142Y-36418152D02*
X29389523Y-36513390D01*
X29389523Y-36513390D02*
X29341904Y-36561009D01*
X29341904Y-36561009D02*
X29246666Y-36608628D01*
X29246666Y-36608628D02*
X28865714Y-36608628D01*
X30389523Y-37084819D02*
X29818095Y-37084819D01*
X30103809Y-37084819D02*
X30103809Y-36084819D01*
X30103809Y-36084819D02*
X30008571Y-36227676D01*
X30008571Y-36227676D02*
X29913333Y-36322914D01*
X29913333Y-36322914D02*
X29818095Y-36370533D01*
X30722857Y-36084819D02*
X31341904Y-36084819D01*
X31341904Y-36084819D02*
X31008571Y-36465771D01*
X31008571Y-36465771D02*
X31151428Y-36465771D01*
X31151428Y-36465771D02*
X31246666Y-36513390D01*
X31246666Y-36513390D02*
X31294285Y-36561009D01*
X31294285Y-36561009D02*
X31341904Y-36656247D01*
X31341904Y-36656247D02*
X31341904Y-36894342D01*
X31341904Y-36894342D02*
X31294285Y-36989580D01*
X31294285Y-36989580D02*
X31246666Y-37037200D01*
X31246666Y-37037200D02*
X31151428Y-37084819D01*
X31151428Y-37084819D02*
X30865714Y-37084819D01*
X30865714Y-37084819D02*
X30770476Y-37037200D01*
X30770476Y-37037200D02*
X30722857Y-36989580D01*
X30583333Y-24609580D02*
X30535714Y-24657200D01*
X30535714Y-24657200D02*
X30392857Y-24704819D01*
X30392857Y-24704819D02*
X30297619Y-24704819D01*
X30297619Y-24704819D02*
X30154762Y-24657200D01*
X30154762Y-24657200D02*
X30059524Y-24561961D01*
X30059524Y-24561961D02*
X30011905Y-24466723D01*
X30011905Y-24466723D02*
X29964286Y-24276247D01*
X29964286Y-24276247D02*
X29964286Y-24133390D01*
X29964286Y-24133390D02*
X30011905Y-23942914D01*
X30011905Y-23942914D02*
X30059524Y-23847676D01*
X30059524Y-23847676D02*
X30154762Y-23752438D01*
X30154762Y-23752438D02*
X30297619Y-23704819D01*
X30297619Y-23704819D02*
X30392857Y-23704819D01*
X30392857Y-23704819D02*
X30535714Y-23752438D01*
X30535714Y-23752438D02*
X30583333Y-23800057D01*
X31440476Y-23704819D02*
X31250000Y-23704819D01*
X31250000Y-23704819D02*
X31154762Y-23752438D01*
X31154762Y-23752438D02*
X31107143Y-23800057D01*
X31107143Y-23800057D02*
X31011905Y-23942914D01*
X31011905Y-23942914D02*
X30964286Y-24133390D01*
X30964286Y-24133390D02*
X30964286Y-24514342D01*
X30964286Y-24514342D02*
X31011905Y-24609580D01*
X31011905Y-24609580D02*
X31059524Y-24657200D01*
X31059524Y-24657200D02*
X31154762Y-24704819D01*
X31154762Y-24704819D02*
X31345238Y-24704819D01*
X31345238Y-24704819D02*
X31440476Y-24657200D01*
X31440476Y-24657200D02*
X31488095Y-24609580D01*
X31488095Y-24609580D02*
X31535714Y-24514342D01*
X31535714Y-24514342D02*
X31535714Y-24276247D01*
X31535714Y-24276247D02*
X31488095Y-24181009D01*
X31488095Y-24181009D02*
X31440476Y-24133390D01*
X31440476Y-24133390D02*
X31345238Y-24085771D01*
X31345238Y-24085771D02*
X31154762Y-24085771D01*
X31154762Y-24085771D02*
X31059524Y-24133390D01*
X31059524Y-24133390D02*
X31011905Y-24181009D01*
X31011905Y-24181009D02*
X30964286Y-24276247D01*
X96437142Y-50584819D02*
X96103809Y-50108628D01*
X95865714Y-50584819D02*
X95865714Y-49584819D01*
X95865714Y-49584819D02*
X96246666Y-49584819D01*
X96246666Y-49584819D02*
X96341904Y-49632438D01*
X96341904Y-49632438D02*
X96389523Y-49680057D01*
X96389523Y-49680057D02*
X96437142Y-49775295D01*
X96437142Y-49775295D02*
X96437142Y-49918152D01*
X96437142Y-49918152D02*
X96389523Y-50013390D01*
X96389523Y-50013390D02*
X96341904Y-50061009D01*
X96341904Y-50061009D02*
X96246666Y-50108628D01*
X96246666Y-50108628D02*
X95865714Y-50108628D01*
X97389523Y-50584819D02*
X96818095Y-50584819D01*
X97103809Y-50584819D02*
X97103809Y-49584819D01*
X97103809Y-49584819D02*
X97008571Y-49727676D01*
X97008571Y-49727676D02*
X96913333Y-49822914D01*
X96913333Y-49822914D02*
X96818095Y-49870533D01*
X98008571Y-49584819D02*
X98103809Y-49584819D01*
X98103809Y-49584819D02*
X98199047Y-49632438D01*
X98199047Y-49632438D02*
X98246666Y-49680057D01*
X98246666Y-49680057D02*
X98294285Y-49775295D01*
X98294285Y-49775295D02*
X98341904Y-49965771D01*
X98341904Y-49965771D02*
X98341904Y-50203866D01*
X98341904Y-50203866D02*
X98294285Y-50394342D01*
X98294285Y-50394342D02*
X98246666Y-50489580D01*
X98246666Y-50489580D02*
X98199047Y-50537200D01*
X98199047Y-50537200D02*
X98103809Y-50584819D01*
X98103809Y-50584819D02*
X98008571Y-50584819D01*
X98008571Y-50584819D02*
X97913333Y-50537200D01*
X97913333Y-50537200D02*
X97865714Y-50489580D01*
X97865714Y-50489580D02*
X97818095Y-50394342D01*
X97818095Y-50394342D02*
X97770476Y-50203866D01*
X97770476Y-50203866D02*
X97770476Y-49965771D01*
X97770476Y-49965771D02*
X97818095Y-49775295D01*
X97818095Y-49775295D02*
X97865714Y-49680057D01*
X97865714Y-49680057D02*
X97913333Y-49632438D01*
X97913333Y-49632438D02*
X98008571Y-49584819D01*
X88833333Y-36859580D02*
X88785714Y-36907200D01*
X88785714Y-36907200D02*
X88642857Y-36954819D01*
X88642857Y-36954819D02*
X88547619Y-36954819D01*
X88547619Y-36954819D02*
X88404762Y-36907200D01*
X88404762Y-36907200D02*
X88309524Y-36811961D01*
X88309524Y-36811961D02*
X88261905Y-36716723D01*
X88261905Y-36716723D02*
X88214286Y-36526247D01*
X88214286Y-36526247D02*
X88214286Y-36383390D01*
X88214286Y-36383390D02*
X88261905Y-36192914D01*
X88261905Y-36192914D02*
X88309524Y-36097676D01*
X88309524Y-36097676D02*
X88404762Y-36002438D01*
X88404762Y-36002438D02*
X88547619Y-35954819D01*
X88547619Y-35954819D02*
X88642857Y-35954819D01*
X88642857Y-35954819D02*
X88785714Y-36002438D01*
X88785714Y-36002438D02*
X88833333Y-36050057D01*
X89785714Y-36954819D02*
X89214286Y-36954819D01*
X89500000Y-36954819D02*
X89500000Y-35954819D01*
X89500000Y-35954819D02*
X89404762Y-36097676D01*
X89404762Y-36097676D02*
X89309524Y-36192914D01*
X89309524Y-36192914D02*
X89214286Y-36240533D01*
X39413333Y-10084819D02*
X39080000Y-9608628D01*
X38841905Y-10084819D02*
X38841905Y-9084819D01*
X38841905Y-9084819D02*
X39222857Y-9084819D01*
X39222857Y-9084819D02*
X39318095Y-9132438D01*
X39318095Y-9132438D02*
X39365714Y-9180057D01*
X39365714Y-9180057D02*
X39413333Y-9275295D01*
X39413333Y-9275295D02*
X39413333Y-9418152D01*
X39413333Y-9418152D02*
X39365714Y-9513390D01*
X39365714Y-9513390D02*
X39318095Y-9561009D01*
X39318095Y-9561009D02*
X39222857Y-9608628D01*
X39222857Y-9608628D02*
X38841905Y-9608628D01*
X40365714Y-10084819D02*
X39794286Y-10084819D01*
X40080000Y-10084819D02*
X40080000Y-9084819D01*
X40080000Y-9084819D02*
X39984762Y-9227676D01*
X39984762Y-9227676D02*
X39889524Y-9322914D01*
X39889524Y-9322914D02*
X39794286Y-9370533D01*
X44048095Y-42124819D02*
X44048095Y-42934342D01*
X44048095Y-42934342D02*
X44095714Y-43029580D01*
X44095714Y-43029580D02*
X44143333Y-43077200D01*
X44143333Y-43077200D02*
X44238571Y-43124819D01*
X44238571Y-43124819D02*
X44429047Y-43124819D01*
X44429047Y-43124819D02*
X44524285Y-43077200D01*
X44524285Y-43077200D02*
X44571904Y-43029580D01*
X44571904Y-43029580D02*
X44619523Y-42934342D01*
X44619523Y-42934342D02*
X44619523Y-42124819D01*
X45524285Y-42458152D02*
X45524285Y-43124819D01*
X45286190Y-42077200D02*
X45048095Y-42791485D01*
X45048095Y-42791485D02*
X45667142Y-42791485D01*
X128913333Y-29084819D02*
X128580000Y-28608628D01*
X128341905Y-29084819D02*
X128341905Y-28084819D01*
X128341905Y-28084819D02*
X128722857Y-28084819D01*
X128722857Y-28084819D02*
X128818095Y-28132438D01*
X128818095Y-28132438D02*
X128865714Y-28180057D01*
X128865714Y-28180057D02*
X128913333Y-28275295D01*
X128913333Y-28275295D02*
X128913333Y-28418152D01*
X128913333Y-28418152D02*
X128865714Y-28513390D01*
X128865714Y-28513390D02*
X128818095Y-28561009D01*
X128818095Y-28561009D02*
X128722857Y-28608628D01*
X128722857Y-28608628D02*
X128341905Y-28608628D01*
X129770476Y-28084819D02*
X129580000Y-28084819D01*
X129580000Y-28084819D02*
X129484762Y-28132438D01*
X129484762Y-28132438D02*
X129437143Y-28180057D01*
X129437143Y-28180057D02*
X129341905Y-28322914D01*
X129341905Y-28322914D02*
X129294286Y-28513390D01*
X129294286Y-28513390D02*
X129294286Y-28894342D01*
X129294286Y-28894342D02*
X129341905Y-28989580D01*
X129341905Y-28989580D02*
X129389524Y-29037200D01*
X129389524Y-29037200D02*
X129484762Y-29084819D01*
X129484762Y-29084819D02*
X129675238Y-29084819D01*
X129675238Y-29084819D02*
X129770476Y-29037200D01*
X129770476Y-29037200D02*
X129818095Y-28989580D01*
X129818095Y-28989580D02*
X129865714Y-28894342D01*
X129865714Y-28894342D02*
X129865714Y-28656247D01*
X129865714Y-28656247D02*
X129818095Y-28561009D01*
X129818095Y-28561009D02*
X129770476Y-28513390D01*
X129770476Y-28513390D02*
X129675238Y-28465771D01*
X129675238Y-28465771D02*
X129484762Y-28465771D01*
X129484762Y-28465771D02*
X129389524Y-28513390D01*
X129389524Y-28513390D02*
X129341905Y-28561009D01*
X129341905Y-28561009D02*
X129294286Y-28656247D01*
X72857142Y-71359580D02*
X72809523Y-71407200D01*
X72809523Y-71407200D02*
X72666666Y-71454819D01*
X72666666Y-71454819D02*
X72571428Y-71454819D01*
X72571428Y-71454819D02*
X72428571Y-71407200D01*
X72428571Y-71407200D02*
X72333333Y-71311961D01*
X72333333Y-71311961D02*
X72285714Y-71216723D01*
X72285714Y-71216723D02*
X72238095Y-71026247D01*
X72238095Y-71026247D02*
X72238095Y-70883390D01*
X72238095Y-70883390D02*
X72285714Y-70692914D01*
X72285714Y-70692914D02*
X72333333Y-70597676D01*
X72333333Y-70597676D02*
X72428571Y-70502438D01*
X72428571Y-70502438D02*
X72571428Y-70454819D01*
X72571428Y-70454819D02*
X72666666Y-70454819D01*
X72666666Y-70454819D02*
X72809523Y-70502438D01*
X72809523Y-70502438D02*
X72857142Y-70550057D01*
X73809523Y-71454819D02*
X73238095Y-71454819D01*
X73523809Y-71454819D02*
X73523809Y-70454819D01*
X73523809Y-70454819D02*
X73428571Y-70597676D01*
X73428571Y-70597676D02*
X73333333Y-70692914D01*
X73333333Y-70692914D02*
X73238095Y-70740533D01*
X74714285Y-70454819D02*
X74238095Y-70454819D01*
X74238095Y-70454819D02*
X74190476Y-70931009D01*
X74190476Y-70931009D02*
X74238095Y-70883390D01*
X74238095Y-70883390D02*
X74333333Y-70835771D01*
X74333333Y-70835771D02*
X74571428Y-70835771D01*
X74571428Y-70835771D02*
X74666666Y-70883390D01*
X74666666Y-70883390D02*
X74714285Y-70931009D01*
X74714285Y-70931009D02*
X74761904Y-71026247D01*
X74761904Y-71026247D02*
X74761904Y-71264342D01*
X74761904Y-71264342D02*
X74714285Y-71359580D01*
X74714285Y-71359580D02*
X74666666Y-71407200D01*
X74666666Y-71407200D02*
X74571428Y-71454819D01*
X74571428Y-71454819D02*
X74333333Y-71454819D01*
X74333333Y-71454819D02*
X74238095Y-71407200D01*
X74238095Y-71407200D02*
X74190476Y-71359580D01*
X55674761Y-37990057D02*
X55579523Y-37942438D01*
X55579523Y-37942438D02*
X55484285Y-37847200D01*
X55484285Y-37847200D02*
X55341428Y-37704342D01*
X55341428Y-37704342D02*
X55246190Y-37656723D01*
X55246190Y-37656723D02*
X55150952Y-37656723D01*
X55198571Y-37894819D02*
X55103333Y-37847200D01*
X55103333Y-37847200D02*
X55008095Y-37751961D01*
X55008095Y-37751961D02*
X54960476Y-37561485D01*
X54960476Y-37561485D02*
X54960476Y-37228152D01*
X54960476Y-37228152D02*
X55008095Y-37037676D01*
X55008095Y-37037676D02*
X55103333Y-36942438D01*
X55103333Y-36942438D02*
X55198571Y-36894819D01*
X55198571Y-36894819D02*
X55389047Y-36894819D01*
X55389047Y-36894819D02*
X55484285Y-36942438D01*
X55484285Y-36942438D02*
X55579523Y-37037676D01*
X55579523Y-37037676D02*
X55627142Y-37228152D01*
X55627142Y-37228152D02*
X55627142Y-37561485D01*
X55627142Y-37561485D02*
X55579523Y-37751961D01*
X55579523Y-37751961D02*
X55484285Y-37847200D01*
X55484285Y-37847200D02*
X55389047Y-37894819D01*
X55389047Y-37894819D02*
X55198571Y-37894819D01*
X56579523Y-37894819D02*
X56008095Y-37894819D01*
X56293809Y-37894819D02*
X56293809Y-36894819D01*
X56293809Y-36894819D02*
X56198571Y-37037676D01*
X56198571Y-37037676D02*
X56103333Y-37132914D01*
X56103333Y-37132914D02*
X56008095Y-37180533D01*
X107048095Y-36124819D02*
X107048095Y-36934342D01*
X107048095Y-36934342D02*
X107095714Y-37029580D01*
X107095714Y-37029580D02*
X107143333Y-37077200D01*
X107143333Y-37077200D02*
X107238571Y-37124819D01*
X107238571Y-37124819D02*
X107429047Y-37124819D01*
X107429047Y-37124819D02*
X107524285Y-37077200D01*
X107524285Y-37077200D02*
X107571904Y-37029580D01*
X107571904Y-37029580D02*
X107619523Y-36934342D01*
X107619523Y-36934342D02*
X107619523Y-36124819D01*
X108619523Y-37124819D02*
X108048095Y-37124819D01*
X108333809Y-37124819D02*
X108333809Y-36124819D01*
X108333809Y-36124819D02*
X108238571Y-36267676D01*
X108238571Y-36267676D02*
X108143333Y-36362914D01*
X108143333Y-36362914D02*
X108048095Y-36410533D01*
X41437142Y-66084819D02*
X41103809Y-65608628D01*
X40865714Y-66084819D02*
X40865714Y-65084819D01*
X40865714Y-65084819D02*
X41246666Y-65084819D01*
X41246666Y-65084819D02*
X41341904Y-65132438D01*
X41341904Y-65132438D02*
X41389523Y-65180057D01*
X41389523Y-65180057D02*
X41437142Y-65275295D01*
X41437142Y-65275295D02*
X41437142Y-65418152D01*
X41437142Y-65418152D02*
X41389523Y-65513390D01*
X41389523Y-65513390D02*
X41341904Y-65561009D01*
X41341904Y-65561009D02*
X41246666Y-65608628D01*
X41246666Y-65608628D02*
X40865714Y-65608628D01*
X42389523Y-66084819D02*
X41818095Y-66084819D01*
X42103809Y-66084819D02*
X42103809Y-65084819D01*
X42103809Y-65084819D02*
X42008571Y-65227676D01*
X42008571Y-65227676D02*
X41913333Y-65322914D01*
X41913333Y-65322914D02*
X41818095Y-65370533D01*
X43294285Y-65084819D02*
X42818095Y-65084819D01*
X42818095Y-65084819D02*
X42770476Y-65561009D01*
X42770476Y-65561009D02*
X42818095Y-65513390D01*
X42818095Y-65513390D02*
X42913333Y-65465771D01*
X42913333Y-65465771D02*
X43151428Y-65465771D01*
X43151428Y-65465771D02*
X43246666Y-65513390D01*
X43246666Y-65513390D02*
X43294285Y-65561009D01*
X43294285Y-65561009D02*
X43341904Y-65656247D01*
X43341904Y-65656247D02*
X43341904Y-65894342D01*
X43341904Y-65894342D02*
X43294285Y-65989580D01*
X43294285Y-65989580D02*
X43246666Y-66037200D01*
X43246666Y-66037200D02*
X43151428Y-66084819D01*
X43151428Y-66084819D02*
X42913333Y-66084819D01*
X42913333Y-66084819D02*
X42818095Y-66037200D01*
X42818095Y-66037200D02*
X42770476Y-65989580D01*
X119857142Y-66359580D02*
X119809523Y-66407200D01*
X119809523Y-66407200D02*
X119666666Y-66454819D01*
X119666666Y-66454819D02*
X119571428Y-66454819D01*
X119571428Y-66454819D02*
X119428571Y-66407200D01*
X119428571Y-66407200D02*
X119333333Y-66311961D01*
X119333333Y-66311961D02*
X119285714Y-66216723D01*
X119285714Y-66216723D02*
X119238095Y-66026247D01*
X119238095Y-66026247D02*
X119238095Y-65883390D01*
X119238095Y-65883390D02*
X119285714Y-65692914D01*
X119285714Y-65692914D02*
X119333333Y-65597676D01*
X119333333Y-65597676D02*
X119428571Y-65502438D01*
X119428571Y-65502438D02*
X119571428Y-65454819D01*
X119571428Y-65454819D02*
X119666666Y-65454819D01*
X119666666Y-65454819D02*
X119809523Y-65502438D01*
X119809523Y-65502438D02*
X119857142Y-65550057D01*
X120809523Y-66454819D02*
X120238095Y-66454819D01*
X120523809Y-66454819D02*
X120523809Y-65454819D01*
X120523809Y-65454819D02*
X120428571Y-65597676D01*
X120428571Y-65597676D02*
X120333333Y-65692914D01*
X120333333Y-65692914D02*
X120238095Y-65740533D01*
X121666666Y-65788152D02*
X121666666Y-66454819D01*
X121428571Y-65407200D02*
X121190476Y-66121485D01*
X121190476Y-66121485D02*
X121809523Y-66121485D01*
X22071905Y-9334819D02*
X22071905Y-8334819D01*
X22071905Y-8334819D02*
X22310000Y-8334819D01*
X22310000Y-8334819D02*
X22452857Y-8382438D01*
X22452857Y-8382438D02*
X22548095Y-8477676D01*
X22548095Y-8477676D02*
X22595714Y-8572914D01*
X22595714Y-8572914D02*
X22643333Y-8763390D01*
X22643333Y-8763390D02*
X22643333Y-8906247D01*
X22643333Y-8906247D02*
X22595714Y-9096723D01*
X22595714Y-9096723D02*
X22548095Y-9191961D01*
X22548095Y-9191961D02*
X22452857Y-9287200D01*
X22452857Y-9287200D02*
X22310000Y-9334819D01*
X22310000Y-9334819D02*
X22071905Y-9334819D01*
X23595714Y-9334819D02*
X23024286Y-9334819D01*
X23310000Y-9334819D02*
X23310000Y-8334819D01*
X23310000Y-8334819D02*
X23214762Y-8477676D01*
X23214762Y-8477676D02*
X23119524Y-8572914D01*
X23119524Y-8572914D02*
X23024286Y-8620533D01*
X18738095Y-9654819D02*
X18738095Y-8654819D01*
X19309523Y-9654819D02*
X18880952Y-9083390D01*
X19309523Y-8654819D02*
X18738095Y-9226247D01*
X117333333Y-50859580D02*
X117285714Y-50907200D01*
X117285714Y-50907200D02*
X117142857Y-50954819D01*
X117142857Y-50954819D02*
X117047619Y-50954819D01*
X117047619Y-50954819D02*
X116904762Y-50907200D01*
X116904762Y-50907200D02*
X116809524Y-50811961D01*
X116809524Y-50811961D02*
X116761905Y-50716723D01*
X116761905Y-50716723D02*
X116714286Y-50526247D01*
X116714286Y-50526247D02*
X116714286Y-50383390D01*
X116714286Y-50383390D02*
X116761905Y-50192914D01*
X116761905Y-50192914D02*
X116809524Y-50097676D01*
X116809524Y-50097676D02*
X116904762Y-50002438D01*
X116904762Y-50002438D02*
X117047619Y-49954819D01*
X117047619Y-49954819D02*
X117142857Y-49954819D01*
X117142857Y-49954819D02*
X117285714Y-50002438D01*
X117285714Y-50002438D02*
X117333333Y-50050057D01*
X117714286Y-50050057D02*
X117761905Y-50002438D01*
X117761905Y-50002438D02*
X117857143Y-49954819D01*
X117857143Y-49954819D02*
X118095238Y-49954819D01*
X118095238Y-49954819D02*
X118190476Y-50002438D01*
X118190476Y-50002438D02*
X118238095Y-50050057D01*
X118238095Y-50050057D02*
X118285714Y-50145295D01*
X118285714Y-50145295D02*
X118285714Y-50240533D01*
X118285714Y-50240533D02*
X118238095Y-50383390D01*
X118238095Y-50383390D02*
X117666667Y-50954819D01*
X117666667Y-50954819D02*
X118285714Y-50954819D01*
X62857142Y-61359580D02*
X62809523Y-61407200D01*
X62809523Y-61407200D02*
X62666666Y-61454819D01*
X62666666Y-61454819D02*
X62571428Y-61454819D01*
X62571428Y-61454819D02*
X62428571Y-61407200D01*
X62428571Y-61407200D02*
X62333333Y-61311961D01*
X62333333Y-61311961D02*
X62285714Y-61216723D01*
X62285714Y-61216723D02*
X62238095Y-61026247D01*
X62238095Y-61026247D02*
X62238095Y-60883390D01*
X62238095Y-60883390D02*
X62285714Y-60692914D01*
X62285714Y-60692914D02*
X62333333Y-60597676D01*
X62333333Y-60597676D02*
X62428571Y-60502438D01*
X62428571Y-60502438D02*
X62571428Y-60454819D01*
X62571428Y-60454819D02*
X62666666Y-60454819D01*
X62666666Y-60454819D02*
X62809523Y-60502438D01*
X62809523Y-60502438D02*
X62857142Y-60550057D01*
X63809523Y-61454819D02*
X63238095Y-61454819D01*
X63523809Y-61454819D02*
X63523809Y-60454819D01*
X63523809Y-60454819D02*
X63428571Y-60597676D01*
X63428571Y-60597676D02*
X63333333Y-60692914D01*
X63333333Y-60692914D02*
X63238095Y-60740533D01*
X64142857Y-60454819D02*
X64809523Y-60454819D01*
X64809523Y-60454819D02*
X64380952Y-61454819D01*
X96913333Y-23584819D02*
X96580000Y-23108628D01*
X96341905Y-23584819D02*
X96341905Y-22584819D01*
X96341905Y-22584819D02*
X96722857Y-22584819D01*
X96722857Y-22584819D02*
X96818095Y-22632438D01*
X96818095Y-22632438D02*
X96865714Y-22680057D01*
X96865714Y-22680057D02*
X96913333Y-22775295D01*
X96913333Y-22775295D02*
X96913333Y-22918152D01*
X96913333Y-22918152D02*
X96865714Y-23013390D01*
X96865714Y-23013390D02*
X96818095Y-23061009D01*
X96818095Y-23061009D02*
X96722857Y-23108628D01*
X96722857Y-23108628D02*
X96341905Y-23108628D01*
X97770476Y-22918152D02*
X97770476Y-23584819D01*
X97532381Y-22537200D02*
X97294286Y-23251485D01*
X97294286Y-23251485D02*
X97913333Y-23251485D01*
X105913333Y-14084819D02*
X105580000Y-13608628D01*
X105341905Y-14084819D02*
X105341905Y-13084819D01*
X105341905Y-13084819D02*
X105722857Y-13084819D01*
X105722857Y-13084819D02*
X105818095Y-13132438D01*
X105818095Y-13132438D02*
X105865714Y-13180057D01*
X105865714Y-13180057D02*
X105913333Y-13275295D01*
X105913333Y-13275295D02*
X105913333Y-13418152D01*
X105913333Y-13418152D02*
X105865714Y-13513390D01*
X105865714Y-13513390D02*
X105818095Y-13561009D01*
X105818095Y-13561009D02*
X105722857Y-13608628D01*
X105722857Y-13608628D02*
X105341905Y-13608628D01*
X106246667Y-13084819D02*
X106865714Y-13084819D01*
X106865714Y-13084819D02*
X106532381Y-13465771D01*
X106532381Y-13465771D02*
X106675238Y-13465771D01*
X106675238Y-13465771D02*
X106770476Y-13513390D01*
X106770476Y-13513390D02*
X106818095Y-13561009D01*
X106818095Y-13561009D02*
X106865714Y-13656247D01*
X106865714Y-13656247D02*
X106865714Y-13894342D01*
X106865714Y-13894342D02*
X106818095Y-13989580D01*
X106818095Y-13989580D02*
X106770476Y-14037200D01*
X106770476Y-14037200D02*
X106675238Y-14084819D01*
X106675238Y-14084819D02*
X106389524Y-14084819D01*
X106389524Y-14084819D02*
X106294286Y-14037200D01*
X106294286Y-14037200D02*
X106246667Y-13989580D01*
X111437142Y-83084819D02*
X111103809Y-82608628D01*
X110865714Y-83084819D02*
X110865714Y-82084819D01*
X110865714Y-82084819D02*
X111246666Y-82084819D01*
X111246666Y-82084819D02*
X111341904Y-82132438D01*
X111341904Y-82132438D02*
X111389523Y-82180057D01*
X111389523Y-82180057D02*
X111437142Y-82275295D01*
X111437142Y-82275295D02*
X111437142Y-82418152D01*
X111437142Y-82418152D02*
X111389523Y-82513390D01*
X111389523Y-82513390D02*
X111341904Y-82561009D01*
X111341904Y-82561009D02*
X111246666Y-82608628D01*
X111246666Y-82608628D02*
X110865714Y-82608628D01*
X112389523Y-83084819D02*
X111818095Y-83084819D01*
X112103809Y-83084819D02*
X112103809Y-82084819D01*
X112103809Y-82084819D02*
X112008571Y-82227676D01*
X112008571Y-82227676D02*
X111913333Y-82322914D01*
X111913333Y-82322914D02*
X111818095Y-82370533D01*
X113341904Y-83084819D02*
X112770476Y-83084819D01*
X113056190Y-83084819D02*
X113056190Y-82084819D01*
X113056190Y-82084819D02*
X112960952Y-82227676D01*
X112960952Y-82227676D02*
X112865714Y-82322914D01*
X112865714Y-82322914D02*
X112770476Y-82370533D01*
X78913333Y-23084819D02*
X78580000Y-22608628D01*
X78341905Y-23084819D02*
X78341905Y-22084819D01*
X78341905Y-22084819D02*
X78722857Y-22084819D01*
X78722857Y-22084819D02*
X78818095Y-22132438D01*
X78818095Y-22132438D02*
X78865714Y-22180057D01*
X78865714Y-22180057D02*
X78913333Y-22275295D01*
X78913333Y-22275295D02*
X78913333Y-22418152D01*
X78913333Y-22418152D02*
X78865714Y-22513390D01*
X78865714Y-22513390D02*
X78818095Y-22561009D01*
X78818095Y-22561009D02*
X78722857Y-22608628D01*
X78722857Y-22608628D02*
X78341905Y-22608628D01*
X79818095Y-22084819D02*
X79341905Y-22084819D01*
X79341905Y-22084819D02*
X79294286Y-22561009D01*
X79294286Y-22561009D02*
X79341905Y-22513390D01*
X79341905Y-22513390D02*
X79437143Y-22465771D01*
X79437143Y-22465771D02*
X79675238Y-22465771D01*
X79675238Y-22465771D02*
X79770476Y-22513390D01*
X79770476Y-22513390D02*
X79818095Y-22561009D01*
X79818095Y-22561009D02*
X79865714Y-22656247D01*
X79865714Y-22656247D02*
X79865714Y-22894342D01*
X79865714Y-22894342D02*
X79818095Y-22989580D01*
X79818095Y-22989580D02*
X79770476Y-23037200D01*
X79770476Y-23037200D02*
X79675238Y-23084819D01*
X79675238Y-23084819D02*
X79437143Y-23084819D01*
X79437143Y-23084819D02*
X79341905Y-23037200D01*
X79341905Y-23037200D02*
X79294286Y-22989580D01*
X41437142Y-56584819D02*
X41103809Y-56108628D01*
X40865714Y-56584819D02*
X40865714Y-55584819D01*
X40865714Y-55584819D02*
X41246666Y-55584819D01*
X41246666Y-55584819D02*
X41341904Y-55632438D01*
X41341904Y-55632438D02*
X41389523Y-55680057D01*
X41389523Y-55680057D02*
X41437142Y-55775295D01*
X41437142Y-55775295D02*
X41437142Y-55918152D01*
X41437142Y-55918152D02*
X41389523Y-56013390D01*
X41389523Y-56013390D02*
X41341904Y-56061009D01*
X41341904Y-56061009D02*
X41246666Y-56108628D01*
X41246666Y-56108628D02*
X40865714Y-56108628D01*
X42389523Y-56584819D02*
X41818095Y-56584819D01*
X42103809Y-56584819D02*
X42103809Y-55584819D01*
X42103809Y-55584819D02*
X42008571Y-55727676D01*
X42008571Y-55727676D02*
X41913333Y-55822914D01*
X41913333Y-55822914D02*
X41818095Y-55870533D01*
X43246666Y-55918152D02*
X43246666Y-56584819D01*
X43008571Y-55537200D02*
X42770476Y-56251485D01*
X42770476Y-56251485D02*
X43389523Y-56251485D01*
X86413333Y-61584819D02*
X86080000Y-61108628D01*
X85841905Y-61584819D02*
X85841905Y-60584819D01*
X85841905Y-60584819D02*
X86222857Y-60584819D01*
X86222857Y-60584819D02*
X86318095Y-60632438D01*
X86318095Y-60632438D02*
X86365714Y-60680057D01*
X86365714Y-60680057D02*
X86413333Y-60775295D01*
X86413333Y-60775295D02*
X86413333Y-60918152D01*
X86413333Y-60918152D02*
X86365714Y-61013390D01*
X86365714Y-61013390D02*
X86318095Y-61061009D01*
X86318095Y-61061009D02*
X86222857Y-61108628D01*
X86222857Y-61108628D02*
X85841905Y-61108628D01*
X86794286Y-60680057D02*
X86841905Y-60632438D01*
X86841905Y-60632438D02*
X86937143Y-60584819D01*
X86937143Y-60584819D02*
X87175238Y-60584819D01*
X87175238Y-60584819D02*
X87270476Y-60632438D01*
X87270476Y-60632438D02*
X87318095Y-60680057D01*
X87318095Y-60680057D02*
X87365714Y-60775295D01*
X87365714Y-60775295D02*
X87365714Y-60870533D01*
X87365714Y-60870533D02*
X87318095Y-61013390D01*
X87318095Y-61013390D02*
X86746667Y-61584819D01*
X86746667Y-61584819D02*
X87365714Y-61584819D01*
X54857142Y-13859580D02*
X54809523Y-13907200D01*
X54809523Y-13907200D02*
X54666666Y-13954819D01*
X54666666Y-13954819D02*
X54571428Y-13954819D01*
X54571428Y-13954819D02*
X54428571Y-13907200D01*
X54428571Y-13907200D02*
X54333333Y-13811961D01*
X54333333Y-13811961D02*
X54285714Y-13716723D01*
X54285714Y-13716723D02*
X54238095Y-13526247D01*
X54238095Y-13526247D02*
X54238095Y-13383390D01*
X54238095Y-13383390D02*
X54285714Y-13192914D01*
X54285714Y-13192914D02*
X54333333Y-13097676D01*
X54333333Y-13097676D02*
X54428571Y-13002438D01*
X54428571Y-13002438D02*
X54571428Y-12954819D01*
X54571428Y-12954819D02*
X54666666Y-12954819D01*
X54666666Y-12954819D02*
X54809523Y-13002438D01*
X54809523Y-13002438D02*
X54857142Y-13050057D01*
X55809523Y-13954819D02*
X55238095Y-13954819D01*
X55523809Y-13954819D02*
X55523809Y-12954819D01*
X55523809Y-12954819D02*
X55428571Y-13097676D01*
X55428571Y-13097676D02*
X55333333Y-13192914D01*
X55333333Y-13192914D02*
X55238095Y-13240533D01*
X56142857Y-12954819D02*
X56761904Y-12954819D01*
X56761904Y-12954819D02*
X56428571Y-13335771D01*
X56428571Y-13335771D02*
X56571428Y-13335771D01*
X56571428Y-13335771D02*
X56666666Y-13383390D01*
X56666666Y-13383390D02*
X56714285Y-13431009D01*
X56714285Y-13431009D02*
X56761904Y-13526247D01*
X56761904Y-13526247D02*
X56761904Y-13764342D01*
X56761904Y-13764342D02*
X56714285Y-13859580D01*
X56714285Y-13859580D02*
X56666666Y-13907200D01*
X56666666Y-13907200D02*
X56571428Y-13954819D01*
X56571428Y-13954819D02*
X56285714Y-13954819D01*
X56285714Y-13954819D02*
X56190476Y-13907200D01*
X56190476Y-13907200D02*
X56142857Y-13859580D01*
X12833333Y-19859580D02*
X12785714Y-19907200D01*
X12785714Y-19907200D02*
X12642857Y-19954819D01*
X12642857Y-19954819D02*
X12547619Y-19954819D01*
X12547619Y-19954819D02*
X12404762Y-19907200D01*
X12404762Y-19907200D02*
X12309524Y-19811961D01*
X12309524Y-19811961D02*
X12261905Y-19716723D01*
X12261905Y-19716723D02*
X12214286Y-19526247D01*
X12214286Y-19526247D02*
X12214286Y-19383390D01*
X12214286Y-19383390D02*
X12261905Y-19192914D01*
X12261905Y-19192914D02*
X12309524Y-19097676D01*
X12309524Y-19097676D02*
X12404762Y-19002438D01*
X12404762Y-19002438D02*
X12547619Y-18954819D01*
X12547619Y-18954819D02*
X12642857Y-18954819D01*
X12642857Y-18954819D02*
X12785714Y-19002438D01*
X12785714Y-19002438D02*
X12833333Y-19050057D01*
X13738095Y-18954819D02*
X13261905Y-18954819D01*
X13261905Y-18954819D02*
X13214286Y-19431009D01*
X13214286Y-19431009D02*
X13261905Y-19383390D01*
X13261905Y-19383390D02*
X13357143Y-19335771D01*
X13357143Y-19335771D02*
X13595238Y-19335771D01*
X13595238Y-19335771D02*
X13690476Y-19383390D01*
X13690476Y-19383390D02*
X13738095Y-19431009D01*
X13738095Y-19431009D02*
X13785714Y-19526247D01*
X13785714Y-19526247D02*
X13785714Y-19764342D01*
X13785714Y-19764342D02*
X13738095Y-19859580D01*
X13738095Y-19859580D02*
X13690476Y-19907200D01*
X13690476Y-19907200D02*
X13595238Y-19954819D01*
X13595238Y-19954819D02*
X13357143Y-19954819D01*
X13357143Y-19954819D02*
X13261905Y-19907200D01*
X13261905Y-19907200D02*
X13214286Y-19859580D01*
%TO.C,C3*%
D11*
X134380000Y-49130000D02*
X139620000Y-49130000D01*
X134380000Y-49467000D02*
X134380000Y-49130000D01*
X134380000Y-51870000D02*
X134380000Y-51533000D01*
X139620000Y-49130000D02*
X139620000Y-49467000D01*
X139620000Y-51533000D02*
X139620000Y-51870000D01*
X139620000Y-51870000D02*
X134380000Y-51870000D01*
%TO.C,U2*%
X103160000Y-65170000D02*
X103160000Y-75450000D01*
X103160000Y-75450000D02*
X108460000Y-75450000D01*
X104810000Y-65170000D02*
X103160000Y-65170000D01*
X108460000Y-65170000D02*
X106810000Y-65170000D01*
X108460000Y-75450000D02*
X108460000Y-65170000D01*
X106810000Y-65170000D02*
G75*
G02*
X104810000Y-65170000I-1000000J0D01*
G01*
%TO.C,R8*%
X90540000Y-80000000D02*
X91310000Y-80000000D01*
X98620000Y-80000000D02*
X97850000Y-80000000D01*
X91310000Y-78630000D02*
X97850000Y-78630000D01*
X97850000Y-81370000D01*
X91310000Y-81370000D01*
X91310000Y-78630000D01*
%TO.C,J1*%
X71120000Y-50120000D02*
X72500000Y-50120000D01*
X71120000Y-51500000D02*
X71120000Y-50120000D01*
X71120000Y-52770000D02*
X71120000Y-57960000D01*
X71120000Y-52770000D02*
X73880000Y-52770000D01*
X71120000Y-57960000D02*
X73880000Y-57960000D01*
X73880000Y-52770000D02*
X73880000Y-57960000D01*
%TO.C,R9*%
X103540000Y-6000000D02*
X104310000Y-6000000D01*
X111620000Y-6000000D02*
X110850000Y-6000000D01*
X104310000Y-4630000D02*
X110850000Y-4630000D01*
X110850000Y-7370000D01*
X104310000Y-7370000D01*
X104310000Y-4630000D01*
%TO.C,J2*%
X141620000Y-19620000D02*
X143000000Y-19620000D01*
X141620000Y-21000000D02*
X141620000Y-19620000D01*
X141620000Y-22270000D02*
X141620000Y-27460000D01*
X141620000Y-22270000D02*
X144380000Y-22270000D01*
X141620000Y-27460000D02*
X144380000Y-27460000D01*
X144380000Y-22270000D02*
X144380000Y-27460000D01*
%TO.C,C4*%
X40380000Y-76630000D02*
X45620000Y-76630000D01*
X40380000Y-76967000D02*
X40380000Y-76630000D01*
X40380000Y-79370000D02*
X40380000Y-79033000D01*
X45620000Y-76630000D02*
X45620000Y-76967000D01*
X45620000Y-79033000D02*
X45620000Y-79370000D01*
X45620000Y-79370000D02*
X40380000Y-79370000D01*
%TO.C,C16*%
X73880000Y-88630000D02*
X79120000Y-88630000D01*
X73880000Y-88967000D02*
X73880000Y-88630000D01*
X73880000Y-91370000D02*
X73880000Y-91033000D01*
X79120000Y-88630000D02*
X79120000Y-88967000D01*
X79120000Y-91033000D02*
X79120000Y-91370000D01*
X79120000Y-91370000D02*
X73880000Y-91370000D01*
%TO.C,R7*%
X122540000Y-40500000D02*
X123310000Y-40500000D01*
X130620000Y-40500000D02*
X129850000Y-40500000D01*
X123310000Y-39130000D02*
X129850000Y-39130000D01*
X129850000Y-41870000D01*
X123310000Y-41870000D01*
X123310000Y-39130000D01*
%TO.C,D2*%
X140040000Y-34500000D02*
X140690000Y-34500000D01*
X141290000Y-33380000D02*
X141290000Y-35620000D01*
X141410000Y-33380000D02*
X141410000Y-35620000D01*
X141530000Y-33380000D02*
X141530000Y-35620000D01*
X145580000Y-34500000D02*
X144930000Y-34500000D01*
X140690000Y-33380000D02*
X144930000Y-33380000D01*
X144930000Y-35620000D01*
X140690000Y-35620000D01*
X140690000Y-33380000D01*
%TO.C,U3*%
X47470000Y-31350000D02*
X51070000Y-31350000D01*
X47431522Y-31338478D02*
G75*
G02*
X49270000Y-26899999I1838478J1838478D01*
G01*
X49270000Y-26900000D02*
G75*
G02*
X51108478Y-31338478I0J-2600000D01*
G01*
%TO.C,R12*%
X69540000Y-37500000D02*
X70310000Y-37500000D01*
X77620000Y-37500000D02*
X76850000Y-37500000D01*
X70310000Y-36130000D02*
X76850000Y-36130000D01*
X76850000Y-38870000D01*
X70310000Y-38870000D01*
X70310000Y-36130000D01*
%TO.C,R13*%
X26040000Y-39000000D02*
X26810000Y-39000000D01*
X34120000Y-39000000D02*
X33350000Y-39000000D01*
X26810000Y-37630000D02*
X33350000Y-37630000D01*
X33350000Y-40370000D01*
X26810000Y-40370000D01*
X26810000Y-37630000D01*
%TO.C,C6*%
X27945225Y-26525000D02*
X28445225Y-26525000D01*
X28195225Y-26275000D02*
X28195225Y-26775000D01*
X30750000Y-25420000D02*
X30750000Y-30580000D01*
X30790000Y-25420000D02*
X30790000Y-30580000D01*
X30830000Y-25421000D02*
X30830000Y-30579000D01*
X30870000Y-25423000D02*
X30870000Y-30577000D01*
X30910000Y-25425000D02*
X30910000Y-30575000D01*
X30950000Y-25428000D02*
X30950000Y-30572000D01*
X30990000Y-25431000D02*
X30990000Y-26960000D01*
X30990000Y-29040000D02*
X30990000Y-30569000D01*
X31030000Y-25435000D02*
X31030000Y-26960000D01*
X31030000Y-29040000D02*
X31030000Y-30565000D01*
X31070000Y-25440000D02*
X31070000Y-26960000D01*
X31070000Y-29040000D02*
X31070000Y-30560000D01*
X31110000Y-25445000D02*
X31110000Y-26960000D01*
X31110000Y-29040000D02*
X31110000Y-30555000D01*
X31150000Y-25451000D02*
X31150000Y-26960000D01*
X31150000Y-29040000D02*
X31150000Y-30549000D01*
X31190000Y-25457000D02*
X31190000Y-26960000D01*
X31190000Y-29040000D02*
X31190000Y-30543000D01*
X31230000Y-25464000D02*
X31230000Y-26960000D01*
X31230000Y-29040000D02*
X31230000Y-30536000D01*
X31270000Y-25472000D02*
X31270000Y-26960000D01*
X31270000Y-29040000D02*
X31270000Y-30528000D01*
X31310000Y-25481000D02*
X31310000Y-26960000D01*
X31310000Y-29040000D02*
X31310000Y-30519000D01*
X31350000Y-25490000D02*
X31350000Y-26960000D01*
X31350000Y-29040000D02*
X31350000Y-30510000D01*
X31390000Y-25499000D02*
X31390000Y-26960000D01*
X31390000Y-29040000D02*
X31390000Y-30501000D01*
X31430000Y-25510000D02*
X31430000Y-26960000D01*
X31430000Y-29040000D02*
X31430000Y-30490000D01*
X31470000Y-25521000D02*
X31470000Y-26960000D01*
X31470000Y-29040000D02*
X31470000Y-30479000D01*
X31510000Y-25533000D02*
X31510000Y-26960000D01*
X31510000Y-29040000D02*
X31510000Y-30467000D01*
X31550000Y-25545000D02*
X31550000Y-26960000D01*
X31550000Y-29040000D02*
X31550000Y-30455000D01*
X31590000Y-25558000D02*
X31590000Y-26960000D01*
X31590000Y-29040000D02*
X31590000Y-30442000D01*
X31630000Y-25572000D02*
X31630000Y-26960000D01*
X31630000Y-29040000D02*
X31630000Y-30428000D01*
X31670000Y-25587000D02*
X31670000Y-26960000D01*
X31670000Y-29040000D02*
X31670000Y-30413000D01*
X31710000Y-25602000D02*
X31710000Y-26960000D01*
X31710000Y-29040000D02*
X31710000Y-30398000D01*
X31750000Y-25618000D02*
X31750000Y-26960000D01*
X31750000Y-29040000D02*
X31750000Y-30382000D01*
X31790000Y-25635000D02*
X31790000Y-26960000D01*
X31790000Y-29040000D02*
X31790000Y-30365000D01*
X31830000Y-25653000D02*
X31830000Y-26960000D01*
X31830000Y-29040000D02*
X31830000Y-30347000D01*
X31870000Y-25671000D02*
X31870000Y-26960000D01*
X31870000Y-29040000D02*
X31870000Y-30329000D01*
X31910000Y-25691000D02*
X31910000Y-26960000D01*
X31910000Y-29040000D02*
X31910000Y-30309000D01*
X31950000Y-25711000D02*
X31950000Y-26960000D01*
X31950000Y-29040000D02*
X31950000Y-30289000D01*
X31990000Y-25732000D02*
X31990000Y-26960000D01*
X31990000Y-29040000D02*
X31990000Y-30268000D01*
X32030000Y-25754000D02*
X32030000Y-26960000D01*
X32030000Y-29040000D02*
X32030000Y-30246000D01*
X32070000Y-25777000D02*
X32070000Y-26960000D01*
X32070000Y-29040000D02*
X32070000Y-30223000D01*
X32110000Y-25801000D02*
X32110000Y-26960000D01*
X32110000Y-29040000D02*
X32110000Y-30199000D01*
X32150000Y-25825000D02*
X32150000Y-26960000D01*
X32150000Y-29040000D02*
X32150000Y-30175000D01*
X32190000Y-25851000D02*
X32190000Y-26960000D01*
X32190000Y-29040000D02*
X32190000Y-30149000D01*
X32230000Y-25878000D02*
X32230000Y-26960000D01*
X32230000Y-29040000D02*
X32230000Y-30122000D01*
X32270000Y-25906000D02*
X32270000Y-26960000D01*
X32270000Y-29040000D02*
X32270000Y-30094000D01*
X32310000Y-25935000D02*
X32310000Y-26960000D01*
X32310000Y-29040000D02*
X32310000Y-30065000D01*
X32350000Y-25965000D02*
X32350000Y-26960000D01*
X32350000Y-29040000D02*
X32350000Y-30035000D01*
X32390000Y-25997000D02*
X32390000Y-26960000D01*
X32390000Y-29040000D02*
X32390000Y-30003000D01*
X32430000Y-26030000D02*
X32430000Y-26960000D01*
X32430000Y-29040000D02*
X32430000Y-29970000D01*
X32470000Y-26064000D02*
X32470000Y-26960000D01*
X32470000Y-29040000D02*
X32470000Y-29936000D01*
X32510000Y-26099000D02*
X32510000Y-26960000D01*
X32510000Y-29040000D02*
X32510000Y-29901000D01*
X32550000Y-26136000D02*
X32550000Y-26960000D01*
X32550000Y-29040000D02*
X32550000Y-29864000D01*
X32590000Y-26175000D02*
X32590000Y-26960000D01*
X32590000Y-29040000D02*
X32590000Y-29825000D01*
X32630000Y-26215000D02*
X32630000Y-26960000D01*
X32630000Y-29040000D02*
X32630000Y-29785000D01*
X32670000Y-26257000D02*
X32670000Y-26960000D01*
X32670000Y-29040000D02*
X32670000Y-29743000D01*
X32710000Y-26301000D02*
X32710000Y-26960000D01*
X32710000Y-29040000D02*
X32710000Y-29699000D01*
X32750000Y-26348000D02*
X32750000Y-26960000D01*
X32750000Y-29040000D02*
X32750000Y-29652000D01*
X32790000Y-26396000D02*
X32790000Y-26960000D01*
X32790000Y-29040000D02*
X32790000Y-29604000D01*
X32830000Y-26447000D02*
X32830000Y-26960000D01*
X32830000Y-29040000D02*
X32830000Y-29553000D01*
X32870000Y-26501000D02*
X32870000Y-26960000D01*
X32870000Y-29040000D02*
X32870000Y-29499000D01*
X32910000Y-26557000D02*
X32910000Y-26960000D01*
X32910000Y-29040000D02*
X32910000Y-29443000D01*
X32950000Y-26617000D02*
X32950000Y-26960000D01*
X32950000Y-29040000D02*
X32950000Y-29383000D01*
X32990000Y-26681000D02*
X32990000Y-26960000D01*
X32990000Y-29040000D02*
X32990000Y-29319000D01*
X33030000Y-26749000D02*
X33030000Y-26960000D01*
X33030000Y-29040000D02*
X33030000Y-29251000D01*
X33070000Y-26823000D02*
X33070000Y-29177000D01*
X33110000Y-26902000D02*
X33110000Y-29098000D01*
X33150000Y-26989000D02*
X33150000Y-29011000D01*
X33190000Y-27086000D02*
X33190000Y-28914000D01*
X33230000Y-27195000D02*
X33230000Y-28805000D01*
X33270000Y-27323000D02*
X33270000Y-28677000D01*
X33310000Y-27483000D02*
X33310000Y-28517000D01*
X33350000Y-27717000D02*
X33350000Y-28283000D01*
X33370000Y-28000000D02*
G75*
G02*
X28130000Y-28000000I-2620000J0D01*
G01*
X28130000Y-28000000D02*
G75*
G02*
X33370000Y-28000000I2620000J0D01*
G01*
%TO.C,R10*%
X93040000Y-52500000D02*
X93810000Y-52500000D01*
X101120000Y-52500000D02*
X100350000Y-52500000D01*
X93810000Y-51130000D02*
X100350000Y-51130000D01*
X100350000Y-53870000D01*
X93810000Y-53870000D01*
X93810000Y-51130000D01*
%TO.C,C1*%
X86380000Y-37630000D02*
X91620000Y-37630000D01*
X86380000Y-37967000D02*
X86380000Y-37630000D01*
X86380000Y-40370000D02*
X86380000Y-40033000D01*
X91620000Y-37630000D02*
X91620000Y-37967000D01*
X91620000Y-40033000D02*
X91620000Y-40370000D01*
X91620000Y-40370000D02*
X86380000Y-40370000D01*
%TO.C,R1*%
X35540000Y-12000000D02*
X36310000Y-12000000D01*
X43620000Y-12000000D02*
X42850000Y-12000000D01*
X36310000Y-10630000D02*
X42850000Y-10630000D01*
X42850000Y-13370000D01*
X36310000Y-13370000D01*
X36310000Y-10630000D01*
%TO.C,U4*%
X42160000Y-43670000D02*
X42160000Y-53950000D01*
X42160000Y-53950000D02*
X47460000Y-53950000D01*
X43810000Y-43670000D02*
X42160000Y-43670000D01*
X47460000Y-43670000D02*
X45810000Y-43670000D01*
X47460000Y-53950000D02*
X47460000Y-43670000D01*
X45810000Y-43670000D02*
G75*
G02*
X43810000Y-43670000I-1000000J0D01*
G01*
%TO.C,R6*%
X125040000Y-31000000D02*
X125810000Y-31000000D01*
X133120000Y-31000000D02*
X132350000Y-31000000D01*
X125810000Y-29630000D02*
X132350000Y-29630000D01*
X132350000Y-32370000D01*
X125810000Y-32370000D01*
X125810000Y-29630000D01*
%TO.C,C15*%
X70880000Y-72130000D02*
X76120000Y-72130000D01*
X70880000Y-72467000D02*
X70880000Y-72130000D01*
X70880000Y-74870000D02*
X70880000Y-74533000D01*
X76120000Y-72130000D02*
X76120000Y-72467000D01*
X76120000Y-74533000D02*
X76120000Y-74870000D01*
X76120000Y-74870000D02*
X70880000Y-74870000D01*
%TO.C,Q1*%
X53970000Y-42850000D02*
X57570000Y-42850000D01*
X53931522Y-42838478D02*
G75*
G02*
X55770000Y-38399999I1838478J1838478D01*
G01*
X55770000Y-38400000D02*
G75*
G02*
X57608478Y-42838478I0J-2600000D01*
G01*
%TO.C,U1*%
X105160000Y-37670000D02*
X105160000Y-47950000D01*
X105160000Y-47950000D02*
X110460000Y-47950000D01*
X106810000Y-37670000D02*
X105160000Y-37670000D01*
X110460000Y-37670000D02*
X108810000Y-37670000D01*
X110460000Y-47950000D02*
X110460000Y-37670000D01*
X108810000Y-37670000D02*
G75*
G02*
X106810000Y-37670000I-1000000J0D01*
G01*
%TO.C,R15*%
X38040000Y-68000000D02*
X38810000Y-68000000D01*
X46120000Y-68000000D02*
X45350000Y-68000000D01*
X38810000Y-66630000D02*
X45350000Y-66630000D01*
X45350000Y-69370000D01*
X38810000Y-69370000D01*
X38810000Y-66630000D01*
%TO.C,C14*%
X117880000Y-67130000D02*
X123120000Y-67130000D01*
X117880000Y-67467000D02*
X117880000Y-67130000D01*
X117880000Y-69870000D02*
X117880000Y-69533000D01*
X123120000Y-67130000D02*
X123120000Y-67467000D01*
X123120000Y-69533000D02*
X123120000Y-69870000D01*
X123120000Y-69870000D02*
X117880000Y-69870000D01*
%TO.C,D1*%
X20040000Y-11000000D02*
X20690000Y-11000000D01*
X21290000Y-9880000D02*
X21290000Y-12120000D01*
X21410000Y-9880000D02*
X21410000Y-12120000D01*
X21530000Y-9880000D02*
X21530000Y-12120000D01*
X25580000Y-11000000D02*
X24930000Y-11000000D01*
X20690000Y-9880000D02*
X24930000Y-9880000D01*
X24930000Y-12120000D01*
X20690000Y-12120000D01*
X20690000Y-9880000D01*
%TO.C,C2*%
X114880000Y-51630000D02*
X120120000Y-51630000D01*
X114880000Y-51967000D02*
X114880000Y-51630000D01*
X114880000Y-54370000D02*
X114880000Y-54033000D01*
X120120000Y-51630000D02*
X120120000Y-51967000D01*
X120120000Y-54033000D02*
X120120000Y-54370000D01*
X120120000Y-54370000D02*
X114880000Y-54370000D01*
%TO.C,C17*%
X60880000Y-62130000D02*
X66120000Y-62130000D01*
X60880000Y-62467000D02*
X60880000Y-62130000D01*
X60880000Y-64870000D02*
X60880000Y-64533000D01*
X66120000Y-62130000D02*
X66120000Y-62467000D01*
X66120000Y-64533000D02*
X66120000Y-64870000D01*
X66120000Y-64870000D02*
X60880000Y-64870000D01*
%TO.C,R4*%
X93040000Y-25500000D02*
X93810000Y-25500000D01*
X101120000Y-25500000D02*
X100350000Y-25500000D01*
X93810000Y-24130000D02*
X100350000Y-24130000D01*
X100350000Y-26870000D01*
X93810000Y-26870000D01*
X93810000Y-24130000D01*
%TO.C,R3*%
X102040000Y-16000000D02*
X102810000Y-16000000D01*
X110120000Y-16000000D02*
X109350000Y-16000000D01*
X102810000Y-14630000D02*
X109350000Y-14630000D01*
X109350000Y-17370000D01*
X102810000Y-17370000D01*
X102810000Y-14630000D01*
%TO.C,R11*%
X108040000Y-85000000D02*
X108810000Y-85000000D01*
X116120000Y-85000000D02*
X115350000Y-85000000D01*
X108810000Y-83630000D02*
X115350000Y-83630000D01*
X115350000Y-86370000D01*
X108810000Y-86370000D01*
X108810000Y-83630000D01*
%TO.C,R5*%
X75040000Y-25000000D02*
X75810000Y-25000000D01*
X83120000Y-25000000D02*
X82350000Y-25000000D01*
X75810000Y-23630000D02*
X82350000Y-23630000D01*
X82350000Y-26370000D01*
X75810000Y-26370000D01*
X75810000Y-23630000D01*
%TO.C,R14*%
X38040000Y-58500000D02*
X38810000Y-58500000D01*
X46120000Y-58500000D02*
X45350000Y-58500000D01*
X38810000Y-57130000D02*
X45350000Y-57130000D01*
X45350000Y-59870000D01*
X38810000Y-59870000D01*
X38810000Y-57130000D01*
%TO.C,R2*%
X82540000Y-63500000D02*
X83310000Y-63500000D01*
X90620000Y-63500000D02*
X89850000Y-63500000D01*
X83310000Y-62130000D02*
X89850000Y-62130000D01*
X89850000Y-64870000D01*
X83310000Y-64870000D01*
X83310000Y-62130000D01*
%TO.C,C13*%
X52880000Y-14630000D02*
X58120000Y-14630000D01*
X52880000Y-14967000D02*
X52880000Y-14630000D01*
X52880000Y-17370000D02*
X52880000Y-17033000D01*
X58120000Y-14630000D02*
X58120000Y-14967000D01*
X58120000Y-17033000D02*
X58120000Y-17370000D01*
X58120000Y-17370000D02*
X52880000Y-17370000D01*
%TO.C,C5*%
X10380000Y-20630000D02*
X15620000Y-20630000D01*
X10380000Y-20967000D02*
X10380000Y-20630000D01*
X10380000Y-23370000D02*
X10380000Y-23033000D01*
X15620000Y-20630000D02*
X15620000Y-20967000D01*
X15620000Y-23033000D02*
X15620000Y-23370000D01*
X15620000Y-23370000D02*
X10380000Y-23370000D01*
%TD*%
M02*
