%TF.GenerationSoftware,KiCad,Pcbnew,10.0.5*%
%TF.CreationDate,2026-09-24T17:24:27-05:00*%
%TF.ProjectId,hrng,68726e67-2e6b-4696-9361-645f70636258,rev?*%
%TF.SameCoordinates,Original*%
%TF.FileFunction,Copper,L2,Bot*%
%TF.FilePolarity,Positive*%
%FSLAX46Y46*%
G04 Gerber Fmt 4.6, Leading zero omitted, Abs format (unit mm)*
G04 Created by KiCad (PCBNEW 10.0.5) date 2026-09-24 17:24:27*
%MOMM*%
%LPD*%
G01*
G04 APERTURE LIST*
G04 Aperture macros list*
%AMRoundRect*
0 Rectangle with rounded corners*
0 $1 Rounding radius*
0 $2 $3 $4 $5 $6 $7 $8 $9 X,Y pos of 4 corners*
0 Add a 4 corners polygon primitive as box body*
4,1,4,$2,$3,$4,$5,$6,$7,$8,$9,$2,$3,0*
0 Add four circle primitives for the rounded corners*
1,1,$1+$1,$2,$3*
1,1,$1+$1,$4,$5*
1,1,$1+$1,$6,$7*
1,1,$1+$1,$8,$9*
0 Add four rect primitives between the rounded corners*
20,1,$1+$1,$2,$3,$4,$5,0*
20,1,$1+$1,$4,$5,$6,$7,0*
20,1,$1+$1,$6,$7,$8,$9,0*
20,1,$1+$1,$8,$9,$2,$3,0*%
G04 Aperture macros list end*
%TA.AperFunction,ComponentPad*%
%ADD10C,1.600000*%
%TD*%
%TA.AperFunction,ComponentPad*%
%ADD11RoundRect,0.250000X-0.550000X-0.550000X0.550000X-0.550000X0.550000X0.550000X-0.550000X0.550000X0*%
%TD*%
%TA.AperFunction,ComponentPad*%
%ADD12R,1.700000X1.700000*%
%TD*%
%TA.AperFunction,ComponentPad*%
%ADD13C,1.700000*%
%TD*%
%TA.AperFunction,ComponentPad*%
%ADD14R,1.050000X1.500000*%
%TD*%
%TA.AperFunction,ComponentPad*%
%ADD15O,1.050000X1.500000*%
%TD*%
%TA.AperFunction,ViaPad*%
%ADD16C,0.600000*%
%TD*%
%TA.AperFunction,Conductor*%
%ADD17C,0.200000*%
%TD*%
G04 APERTURE END LIST*
D10*
%TO.P,C3,1*%
%TO.N,U1B_OUT*%
X134500000Y-50500000D03*
%TO.P,C3,2*%
%TO.N,U2_MINUS*%
X139500000Y-50500000D03*
%TD*%
D11*
%TO.P,U2,1*%
%TO.N,N/C*%
X102000000Y-66500000D03*
D10*
%TO.P,U2,2*%
%TO.N,U2_MINUS*%
X102000000Y-69040000D03*
%TO.P,U2,3*%
%TO.N,U2_PLUS*%
X102000000Y-71580000D03*
%TO.P,U2,4*%
%TO.N,-9V*%
X102000000Y-74120000D03*
%TO.P,U2,5*%
%TO.N,N/C*%
X109620000Y-74120000D03*
%TO.P,U2,6*%
%TO.N,U2_OUT*%
X109620000Y-71580000D03*
%TO.P,U2,7*%
%TO.N,+9V*%
X109620000Y-69040000D03*
%TO.P,U2,8*%
%TO.N,N/C*%
X109620000Y-66500000D03*
%TD*%
%TO.P,R8,1*%
%TO.N,U2_MINUS*%
X89500000Y-80000000D03*
%TO.P,R8,2*%
%TO.N,0V*%
X99660000Y-80000000D03*
%TD*%
D12*
%TO.P,J1,1*%
%TO.N,+9V*%
X72500000Y-51500000D03*
D13*
%TO.P,J1,2*%
%TO.N,0V*%
X72500000Y-54040000D03*
%TO.P,J1,3*%
%TO.N,-9V*%
X72500000Y-56580000D03*
%TD*%
D10*
%TO.P,R9,1*%
%TO.N,U2_PLUS*%
X102500000Y-6000000D03*
%TO.P,R9,2*%
%TO.N,0V*%
X112660000Y-6000000D03*
%TD*%
D12*
%TO.P,J2,1*%
%TO.N,0V*%
X143000000Y-21000000D03*
D13*
%TO.P,J2,2*%
%TO.N,PROG_IN*%
X143000000Y-23540000D03*
%TO.P,J2,3*%
%TO.N,SERIAL_OUT*%
X143000000Y-26080000D03*
%TD*%
D10*
%TO.P,C4,1*%
%TO.N,+9V*%
X40500000Y-78000000D03*
%TO.P,C4,2*%
%TO.N,0V*%
X45500000Y-78000000D03*
%TD*%
%TO.P,C16,1*%
%TO.N,-9V*%
X74000000Y-90000000D03*
%TO.P,C16,2*%
%TO.N,0V*%
X79000000Y-90000000D03*
%TD*%
%TO.P,R7,1*%
%TO.N,U1B_OUT*%
X121500000Y-40500000D03*
%TO.P,R7,2*%
%TO.N,U1B_MINUS*%
X131660000Y-40500000D03*
%TD*%
D11*
%TO.P,D2,1*%
%TO.N,Q1_BASE*%
X139000000Y-34500000D03*
D10*
%TO.P,D2,2*%
%TO.N,D2_ANODE*%
X146620000Y-34500000D03*
%TD*%
D14*
%TO.P,U3,1*%
%TO.N,+5V*%
X48000000Y-29500000D03*
D15*
%TO.P,U3,2*%
%TO.N,0V*%
X49270000Y-29500000D03*
%TO.P,U3,3*%
%TO.N,+9V*%
X50540000Y-29500000D03*
%TD*%
D10*
%TO.P,R12,1*%
%TO.N,Q1_BASE*%
X68500000Y-37500000D03*
%TO.P,R12,2*%
%TO.N,0V*%
X78660000Y-37500000D03*
%TD*%
%TO.P,R13,1*%
%TO.N,+5V*%
X25000000Y-39000000D03*
%TO.P,R13,2*%
%TO.N,RNG_RAW*%
X35160000Y-39000000D03*
%TD*%
D11*
%TO.P,C6,1*%
%TO.N,+5V*%
X29500000Y-28000000D03*
D10*
%TO.P,C6,2*%
%TO.N,0V*%
X32000000Y-28000000D03*
%TD*%
%TO.P,R10,1*%
%TO.N,U2_OUT*%
X92000000Y-52500000D03*
%TO.P,R10,2*%
%TO.N,U2_PLUS*%
X102160000Y-52500000D03*
%TD*%
%TO.P,C1,1*%
%TO.N,NOISE_RAW*%
X86500000Y-39000000D03*
%TO.P,C1,2*%
%TO.N,U1A_PLUS*%
X91500000Y-39000000D03*
%TD*%
%TO.P,R1,1*%
%TO.N,+9V*%
X34500000Y-12000000D03*
%TO.P,R1,2*%
%TO.N,NOISE_RAW*%
X44660000Y-12000000D03*
%TD*%
D11*
%TO.P,U4,1*%
%TO.N,+5V*%
X41000000Y-45000000D03*
D10*
%TO.P,U4,2*%
%TO.N,SERIAL_IN*%
X41000000Y-47540000D03*
%TO.P,U4,3*%
%TO.N,N/C*%
X41000000Y-50080000D03*
%TO.P,U4,4*%
%TO.N,RNG_RAW*%
X41000000Y-52620000D03*
%TO.P,U4,5*%
%TO.N,N/C*%
X48620000Y-52620000D03*
%TO.P,U4,6*%
X48620000Y-50080000D03*
%TO.P,U4,7*%
%TO.N,SERIAL_OUT*%
X48620000Y-47540000D03*
%TO.P,U4,8*%
%TO.N,0V*%
X48620000Y-45000000D03*
%TD*%
%TO.P,R6,1*%
%TO.N,U1B_MINUS*%
X124000000Y-31000000D03*
%TO.P,R6,2*%
%TO.N,0V*%
X134160000Y-31000000D03*
%TD*%
%TO.P,C15,1*%
%TO.N,+9V*%
X71000000Y-73500000D03*
%TO.P,C15,2*%
%TO.N,0V*%
X76000000Y-73500000D03*
%TD*%
D14*
%TO.P,Q1,1*%
%TO.N,RNG_RAW*%
X54500000Y-41000000D03*
D15*
%TO.P,Q1,2*%
%TO.N,Q1_BASE*%
X55770000Y-41000000D03*
%TO.P,Q1,3*%
%TO.N,0V*%
X57040000Y-41000000D03*
%TD*%
D11*
%TO.P,U1,1*%
%TO.N,U1A_OUT*%
X104000000Y-39000000D03*
D10*
%TO.P,U1,2*%
%TO.N,U1A_MINUS*%
X104000000Y-41540000D03*
%TO.P,U1,3*%
%TO.N,U1A_PLUS*%
X104000000Y-44080000D03*
%TO.P,U1,4*%
%TO.N,-9V*%
X104000000Y-46620000D03*
%TO.P,U1,5*%
%TO.N,U1B_PLUS*%
X111620000Y-46620000D03*
%TO.P,U1,6*%
%TO.N,U1B_MINUS*%
X111620000Y-44080000D03*
%TO.P,U1,7*%
%TO.N,U1B_OUT*%
X111620000Y-41540000D03*
%TO.P,U1,8*%
%TO.N,+9V*%
X111620000Y-39000000D03*
%TD*%
%TO.P,R15,1*%
%TO.N,SERIAL_IN*%
X37000000Y-68000000D03*
%TO.P,R15,2*%
%TO.N,0V*%
X47160000Y-68000000D03*
%TD*%
%TO.P,C14,1*%
%TO.N,-9V*%
X118000000Y-68500000D03*
%TO.P,C14,2*%
%TO.N,0V*%
X123000000Y-68500000D03*
%TD*%
D11*
%TO.P,D1,1*%
%TO.N,NOISE_RAW*%
X19000000Y-11000000D03*
D10*
%TO.P,D1,2*%
%TO.N,0V*%
X26620000Y-11000000D03*
%TD*%
%TO.P,C2,1*%
%TO.N,U1A_OUT*%
X115000000Y-53000000D03*
%TO.P,C2,2*%
%TO.N,U1B_PLUS*%
X120000000Y-53000000D03*
%TD*%
%TO.P,C17,1*%
%TO.N,+5V*%
X61000000Y-63500000D03*
%TO.P,C17,2*%
%TO.N,0V*%
X66000000Y-63500000D03*
%TD*%
%TO.P,R4,1*%
%TO.N,U1A_OUT*%
X92000000Y-25500000D03*
%TO.P,R4,2*%
%TO.N,U1A_MINUS*%
X102160000Y-25500000D03*
%TD*%
%TO.P,R3,1*%
%TO.N,U1A_MINUS*%
X101000000Y-16000000D03*
%TO.P,R3,2*%
%TO.N,0V*%
X111160000Y-16000000D03*
%TD*%
%TO.P,R11,1*%
%TO.N,U2_OUT*%
X107000000Y-85000000D03*
%TO.P,R11,2*%
%TO.N,D2_ANODE*%
X117160000Y-85000000D03*
%TD*%
%TO.P,R5,1*%
%TO.N,U1B_PLUS*%
X74000000Y-25000000D03*
%TO.P,R5,2*%
%TO.N,0V*%
X84160000Y-25000000D03*
%TD*%
%TO.P,R14,1*%
%TO.N,PROG_IN*%
X37000000Y-58500000D03*
%TO.P,R14,2*%
%TO.N,SERIAL_IN*%
X47160000Y-58500000D03*
%TD*%
%TO.P,R2,1*%
%TO.N,U1A_PLUS*%
X81500000Y-63500000D03*
%TO.P,R2,2*%
%TO.N,0V*%
X91660000Y-63500000D03*
%TD*%
%TO.P,C13,1*%
%TO.N,+9V*%
X53000000Y-16000000D03*
%TO.P,C13,2*%
%TO.N,0V*%
X58000000Y-16000000D03*
%TD*%
%TO.P,C5,1*%
%TO.N,+5V*%
X10500000Y-22000000D03*
%TO.P,C5,2*%
%TO.N,0V*%
X15500000Y-22000000D03*
%TD*%
D16*
%TO.N,+9V*%
X102130000Y-40333900D03*
%TO.N,U1B_PLUS*%
X100291700Y-42810000D03*
%TD*%
%TO.N,U1B_OUT*%
D17*
X121500000Y-40500000D02*
X131500000Y-50500000D01*
X131500000Y-50500000D02*
X134500000Y-50500000D01*
%TO.N,U2_MINUS*%
X102000000Y-69040000D02*
X103146900Y-70186900D01*
X138042200Y-50500000D02*
X139500000Y-50500000D01*
X118355300Y-70186900D02*
X138042200Y-50500000D01*
X103146900Y-70186900D02*
X118355300Y-70186900D01*
%TO.N,U2_PLUS*%
X100830200Y-70410200D02*
X102000000Y-71580000D01*
X101310900Y-37492300D02*
X90859200Y-27040600D01*
X101310900Y-51650900D02*
X101310900Y-37492300D01*
X90859200Y-17640800D02*
X102500000Y-6000000D01*
X102160000Y-52500000D02*
X100830200Y-53829800D01*
X100830200Y-53829800D02*
X100830200Y-70410200D01*
X102160000Y-52500000D02*
X101310900Y-51650900D01*
X90859200Y-27040600D02*
X90859200Y-17640800D01*
%TO.N,-9V*%
X104000000Y-46620000D02*
X118000000Y-60620000D01*
X74000000Y-58080000D02*
X74000000Y-90000000D01*
X118000000Y-60620000D02*
X118000000Y-68500000D01*
X72500000Y-56580000D02*
X74000000Y-58080000D01*
%TO.N,U2_OUT*%
X100830400Y-72040100D02*
X101640300Y-72850000D01*
X107000000Y-85000000D02*
X107000000Y-74200000D01*
X107000000Y-74200000D02*
X109620000Y-71580000D01*
X100830400Y-70987900D02*
X100830400Y-72040100D01*
X101640300Y-72850000D02*
X105650000Y-72850000D01*
X92000000Y-62157500D02*
X100830400Y-70987900D01*
X105650000Y-72850000D02*
X107000000Y-74200000D01*
X92000000Y-52500000D02*
X92000000Y-62157500D01*
%TO.N,+9V*%
X73688900Y-53552700D02*
X73688900Y-54534100D01*
X50540000Y-29500000D02*
X51366700Y-29500000D01*
X72794700Y-55428300D02*
X71949700Y-55428300D01*
X72500000Y-50348300D02*
X72215000Y-50348300D01*
X71000000Y-56378000D02*
X71000000Y-73500000D01*
X107327100Y-54007300D02*
X102130000Y-48810200D01*
X72500000Y-51500000D02*
X72500000Y-52651700D01*
X72500000Y-51500000D02*
X72500000Y-50348300D01*
X72215000Y-50348300D02*
X51366700Y-29500000D01*
X72500000Y-52651700D02*
X72787900Y-52651700D01*
X102130000Y-48810200D02*
X102130000Y-40333900D01*
X73688900Y-54534100D02*
X72794700Y-55428300D01*
X107327100Y-66747100D02*
X107327100Y-54007300D01*
X109620000Y-69040000D02*
X107327100Y-66747100D01*
X71949700Y-55428300D02*
X71000000Y-56378000D01*
X53000000Y-16000000D02*
X51366700Y-17633300D01*
X72787900Y-52651700D02*
X73688900Y-53552700D01*
X51366700Y-17633300D02*
X51366700Y-29500000D01*
%TO.N,0V*%
X26620000Y-12440000D02*
X26620000Y-11000000D01*
X72500000Y-54040000D02*
X60510200Y-42050200D01*
X57040000Y-41950800D02*
X57040000Y-42050200D01*
X111160000Y-16000000D02*
X112660000Y-14500000D01*
X49270000Y-30551700D02*
X51568300Y-32850000D01*
X32000000Y-28000000D02*
X32000000Y-17820000D01*
X142712100Y-22151700D02*
X134160000Y-30703800D01*
X51568300Y-32850000D02*
X51568300Y-42051700D01*
X91660000Y-72000000D02*
X77500000Y-72000000D01*
X52563400Y-14843800D02*
X56843800Y-14843800D01*
X57040000Y-42051700D02*
X51568300Y-42051700D01*
X26620000Y-12440000D02*
X25060000Y-12440000D01*
X57040000Y-42050200D02*
X57040000Y-42051700D01*
X143000000Y-21000000D02*
X143000000Y-22151700D01*
X81294800Y-40134800D02*
X78660000Y-37500000D01*
X47160000Y-68000000D02*
X45500000Y-69660000D01*
X49270000Y-29500000D02*
X49270000Y-18137200D01*
X32000000Y-17820000D02*
X26620000Y-12440000D01*
X79000000Y-76500000D02*
X79000000Y-90000000D01*
X56843800Y-14843800D02*
X58000000Y-16000000D01*
X25060000Y-12440000D02*
X15500000Y-22000000D01*
X143000000Y-22151700D02*
X142712100Y-22151700D01*
X91660000Y-63500000D02*
X91660000Y-72000000D01*
X77500000Y-72000000D02*
X76000000Y-73500000D01*
X45500000Y-69660000D02*
X45500000Y-78000000D01*
X51568300Y-42051700D02*
X48620000Y-45000000D01*
X87651200Y-28491200D02*
X87651200Y-39466900D01*
X91660000Y-72000000D02*
X99660000Y-80000000D01*
X134160000Y-30703800D02*
X134160000Y-31000000D01*
X60510200Y-42050200D02*
X57040000Y-42050200D01*
X87651200Y-39466900D02*
X86983300Y-40134800D01*
X49270000Y-18137200D02*
X52563400Y-14843800D01*
X76000000Y-73500000D02*
X79000000Y-76500000D01*
X84160000Y-25000000D02*
X87651200Y-28491200D01*
X57040000Y-41000000D02*
X57040000Y-41950800D01*
X72500000Y-54040000D02*
X66000000Y-60540000D01*
X86983300Y-40134800D02*
X81294800Y-40134800D01*
X112660000Y-14500000D02*
X112660000Y-6000000D01*
X49270000Y-29500000D02*
X49270000Y-30551700D01*
X66000000Y-60540000D02*
X66000000Y-63500000D01*
%TO.N,U1B_MINUS*%
X124000000Y-32840000D02*
X131660000Y-40500000D01*
X124000000Y-31000000D02*
X124000000Y-32840000D01*
%TO.N,D2_ANODE*%
X146620000Y-55540000D02*
X117160000Y-85000000D01*
X146620000Y-34500000D02*
X146620000Y-55540000D01*
%TO.N,+5V*%
X43913100Y-42086900D02*
X41000000Y-45000000D01*
X41000000Y-43220000D02*
X41000000Y-45000000D01*
X44079200Y-42039800D02*
X44032100Y-42086900D01*
X47173300Y-38945700D02*
X44079200Y-42039800D01*
X48000000Y-29500000D02*
X47173300Y-29500000D01*
X29500000Y-28000000D02*
X29500000Y-34500000D01*
X48309300Y-46270000D02*
X48967700Y-46270000D01*
X48967700Y-46270000D02*
X61000000Y-58302300D01*
X32280000Y-34500000D02*
X41000000Y-43220000D01*
X61000000Y-58302300D02*
X61000000Y-63500000D01*
X29500000Y-34500000D02*
X32280000Y-34500000D01*
X47173300Y-29500000D02*
X47173300Y-38945700D01*
X29500000Y-34500000D02*
X25000000Y-39000000D01*
X44079200Y-42039800D02*
X48309300Y-46270000D01*
X44032100Y-42086900D02*
X43913100Y-42086900D01*
%TO.N,RNG_RAW*%
X35160000Y-46780000D02*
X41000000Y-52620000D01*
X35160000Y-39000000D02*
X35160000Y-46780000D01*
%TO.N,NOISE_RAW*%
X44660000Y-12000000D02*
X57218900Y-12000000D01*
X84218900Y-39000000D02*
X86500000Y-39000000D01*
X57218900Y-12000000D02*
X84218900Y-39000000D01*
%TO.N,U1A_PLUS*%
X81500000Y-49000000D02*
X91500000Y-39000000D01*
X81500000Y-63500000D02*
X81500000Y-49000000D01*
%TO.N,SERIAL_IN*%
X37660000Y-68000000D02*
X47160000Y-58500000D01*
X47160000Y-58500000D02*
X47160000Y-53700000D01*
X47160000Y-53700000D02*
X41000000Y-47540000D01*
X37000000Y-68000000D02*
X37660000Y-68000000D01*
%TO.N,U1A_OUT*%
X104668600Y-42668600D02*
X103559100Y-42668600D01*
X102872400Y-40127600D02*
X104000000Y-39000000D01*
X104000000Y-37500000D02*
X104000000Y-39000000D01*
X102872400Y-41981900D02*
X102872400Y-40127600D01*
X115000000Y-53000000D02*
X104668600Y-42668600D01*
X92000000Y-25500000D02*
X104000000Y-37500000D01*
X103559100Y-42668600D02*
X102872400Y-41981900D01*
%TO.N,U1A_MINUS*%
X105115800Y-28455800D02*
X105115800Y-40424200D01*
X105115800Y-40424200D02*
X104000000Y-41540000D01*
X102160000Y-17160000D02*
X102160000Y-25500000D01*
X101000000Y-16000000D02*
X102160000Y-17160000D01*
X102160000Y-25500000D02*
X105115800Y-28455800D01*
%TO.N,U1B_PLUS*%
X84629100Y-23898300D02*
X97931000Y-37200200D01*
X97931000Y-37768200D02*
X99890000Y-39727200D01*
X100125400Y-41362900D02*
X100291700Y-41362900D01*
X74000000Y-25000000D02*
X75101700Y-23898300D01*
X75101700Y-23898300D02*
X84629100Y-23898300D01*
X100291700Y-41362900D02*
X100291700Y-42810000D01*
X118000000Y-53000000D02*
X120000000Y-53000000D01*
X99890000Y-39727200D02*
X99890000Y-41127500D01*
X99890000Y-41127500D02*
X100125400Y-41362900D01*
X97931000Y-37200200D02*
X97931000Y-37768200D01*
X111620000Y-46620000D02*
X118000000Y-53000000D01*
%TD*%
M02*
