%TF.GenerationSoftware,KiCad,Pcbnew,10.0.5*%
%TF.CreationDate,2026-09-24T17:24:27-05:00*%
%TF.ProjectId,hrng,68726e67-2e6b-4696-9361-645f70636258,rev?*%
%TF.SameCoordinates,Original*%
%TF.FileFunction,Soldermask,Bot*%
%TF.FilePolarity,Negative*%
%FSLAX46Y46*%
G04 Gerber Fmt 4.6, Leading zero omitted, Abs format (unit mm)*
G04 Created by KiCad (PCBNEW 10.0.5) date 2026-09-24 17:24:27*
%MOMM*%
%LPD*%
G01*
G04 APERTURE LIST*
G04 Aperture macros list*
%AMRoundRect*
0 Rectangle with rounded corners*
0 $1 Rounding radius*
0 $2 $3 $4 $5 $6 $7 $8 $9 X,Y pos of 4 corners*
0 Add a 4 corners polygon primitive as box body*
4,1,4,$2,$3,$4,$5,$6,$7,$8,$9,$2,$3,0*
0 Add four circle primitives for the rounded corners*
1,1,$1+$1,$2,$3*
1,1,$1+$1,$4,$5*
1,1,$1+$1,$6,$7*
1,1,$1+$1,$8,$9*
0 Add four rect primitives between the rounded corners*
20,1,$1+$1,$2,$3,$4,$5,0*
20,1,$1+$1,$4,$5,$6,$7,0*
20,1,$1+$1,$6,$7,$8,$9,0*
20,1,$1+$1,$8,$9,$2,$3,0*%
G04 Aperture macros list end*
%ADD10C,1.600000*%
%ADD11RoundRect,0.250000X-0.550000X-0.550000X0.550000X-0.550000X0.550000X0.550000X-0.550000X0.550000X0*%
%ADD12R,1.700000X1.700000*%
%ADD13C,1.700000*%
%ADD14R,1.050000X1.500000*%
%ADD15O,1.050000X1.500000*%
G04 APERTURE END LIST*
D10*
%TO.C,C3*%
X134500000Y-50500000D03*
X139500000Y-50500000D03*
%TD*%
D11*
%TO.C,U2*%
X102000000Y-66500000D03*
D10*
X102000000Y-69040000D03*
X102000000Y-71580000D03*
X102000000Y-74120000D03*
X109620000Y-74120000D03*
X109620000Y-71580000D03*
X109620000Y-69040000D03*
X109620000Y-66500000D03*
%TD*%
%TO.C,R8*%
X89500000Y-80000000D03*
X99660000Y-80000000D03*
%TD*%
D12*
%TO.C,J1*%
X72500000Y-51500000D03*
D13*
X72500000Y-54040000D03*
X72500000Y-56580000D03*
%TD*%
D10*
%TO.C,R9*%
X102500000Y-6000000D03*
X112660000Y-6000000D03*
%TD*%
D12*
%TO.C,J2*%
X143000000Y-21000000D03*
D13*
X143000000Y-23540000D03*
X143000000Y-26080000D03*
%TD*%
D10*
%TO.C,C4*%
X40500000Y-78000000D03*
X45500000Y-78000000D03*
%TD*%
%TO.C,C16*%
X74000000Y-90000000D03*
X79000000Y-90000000D03*
%TD*%
%TO.C,R7*%
X121500000Y-40500000D03*
X131660000Y-40500000D03*
%TD*%
D11*
%TO.C,D2*%
X139000000Y-34500000D03*
D10*
X146620000Y-34500000D03*
%TD*%
D14*
%TO.C,U3*%
X48000000Y-29500000D03*
D15*
X49270000Y-29500000D03*
X50540000Y-29500000D03*
%TD*%
D10*
%TO.C,R12*%
X68500000Y-37500000D03*
X78660000Y-37500000D03*
%TD*%
%TO.C,R13*%
X25000000Y-39000000D03*
X35160000Y-39000000D03*
%TD*%
D11*
%TO.C,C6*%
X29500000Y-28000000D03*
D10*
X32000000Y-28000000D03*
%TD*%
%TO.C,R10*%
X92000000Y-52500000D03*
X102160000Y-52500000D03*
%TD*%
%TO.C,C1*%
X86500000Y-39000000D03*
X91500000Y-39000000D03*
%TD*%
%TO.C,R1*%
X34500000Y-12000000D03*
X44660000Y-12000000D03*
%TD*%
D11*
%TO.C,U4*%
X41000000Y-45000000D03*
D10*
X41000000Y-47540000D03*
X41000000Y-50080000D03*
X41000000Y-52620000D03*
X48620000Y-52620000D03*
X48620000Y-50080000D03*
X48620000Y-47540000D03*
X48620000Y-45000000D03*
%TD*%
%TO.C,R6*%
X124000000Y-31000000D03*
X134160000Y-31000000D03*
%TD*%
%TO.C,C15*%
X71000000Y-73500000D03*
X76000000Y-73500000D03*
%TD*%
D14*
%TO.C,Q1*%
X54500000Y-41000000D03*
D15*
X55770000Y-41000000D03*
X57040000Y-41000000D03*
%TD*%
D11*
%TO.C,U1*%
X104000000Y-39000000D03*
D10*
X104000000Y-41540000D03*
X104000000Y-44080000D03*
X104000000Y-46620000D03*
X111620000Y-46620000D03*
X111620000Y-44080000D03*
X111620000Y-41540000D03*
X111620000Y-39000000D03*
%TD*%
%TO.C,R15*%
X37000000Y-68000000D03*
X47160000Y-68000000D03*
%TD*%
%TO.C,C14*%
X118000000Y-68500000D03*
X123000000Y-68500000D03*
%TD*%
D11*
%TO.C,D1*%
X19000000Y-11000000D03*
D10*
X26620000Y-11000000D03*
%TD*%
%TO.C,C2*%
X115000000Y-53000000D03*
X120000000Y-53000000D03*
%TD*%
%TO.C,C17*%
X61000000Y-63500000D03*
X66000000Y-63500000D03*
%TD*%
%TO.C,R4*%
X92000000Y-25500000D03*
X102160000Y-25500000D03*
%TD*%
%TO.C,R3*%
X101000000Y-16000000D03*
X111160000Y-16000000D03*
%TD*%
%TO.C,R11*%
X107000000Y-85000000D03*
X117160000Y-85000000D03*
%TD*%
%TO.C,R5*%
X74000000Y-25000000D03*
X84160000Y-25000000D03*
%TD*%
%TO.C,R14*%
X37000000Y-58500000D03*
X47160000Y-58500000D03*
%TD*%
%TO.C,R2*%
X81500000Y-63500000D03*
X91660000Y-63500000D03*
%TD*%
%TO.C,C13*%
X53000000Y-16000000D03*
X58000000Y-16000000D03*
%TD*%
%TO.C,C5*%
X10500000Y-22000000D03*
X15500000Y-22000000D03*
%TD*%
M02*
