%TF.GenerationSoftware,KiCad,Pcbnew,10.0.5*%
%TF.CreationDate,2026-09-24T17:24:27-05:00*%
%TF.ProjectId,hrng,68726e67-2e6b-4696-9361-645f70636258,rev?*%
%TF.SameCoordinates,Original*%
%TF.FileFunction,Copper,L1,Top*%
%TF.FilePolarity,Positive*%
%FSLAX46Y46*%
G04 Gerber Fmt 4.6, Leading zero omitted, Abs format (unit mm)*
G04 Created by KiCad (PCBNEW 10.0.5) date 2026-09-24 17:24:27*
%MOMM*%
%LPD*%
G01*
G04 APERTURE LIST*
G04 Aperture macros list*
%AMRoundRect*
0 Rectangle with rounded corners*
0 $1 Rounding radius*
0 $2 $3 $4 $5 $6 $7 $8 $9 X,Y pos of 4 corners*
0 Add a 4 corners polygon primitive as box body*
4,1,4,$2,$3,$4,$5,$6,$7,$8,$9,$2,$3,0*
0 Add four circle primitives for the rounded corners*
1,1,$1+$1,$2,$3*
1,1,$1+$1,$4,$5*
1,1,$1+$1,$6,$7*
1,1,$1+$1,$8,$9*
0 Add four rect primitives between the rounded corners*
20,1,$1+$1,$2,$3,$4,$5,0*
20,1,$1+$1,$4,$5,$6,$7,0*
20,1,$1+$1,$6,$7,$8,$9,0*
20,1,$1+$1,$8,$9,$2,$3,0*%
G04 Aperture macros list end*
%TA.AperFunction,ComponentPad*%
%ADD10C,1.600000*%
%TD*%
%TA.AperFunction,ComponentPad*%
%ADD11RoundRect,0.250000X-0.550000X-0.550000X0.550000X-0.550000X0.550000X0.550000X-0.550000X0.550000X0*%
%TD*%
%TA.AperFunction,ComponentPad*%
%ADD12R,1.700000X1.700000*%
%TD*%
%TA.AperFunction,ComponentPad*%
%ADD13C,1.700000*%
%TD*%
%TA.AperFunction,ComponentPad*%
%ADD14R,1.050000X1.500000*%
%TD*%
%TA.AperFunction,ComponentPad*%
%ADD15O,1.050000X1.500000*%
%TD*%
%TA.AperFunction,ViaPad*%
%ADD16C,0.600000*%
%TD*%
%TA.AperFunction,Conductor*%
%ADD17C,0.200000*%
%TD*%
G04 APERTURE END LIST*
D10*
%TO.P,C3,1*%
%TO.N,U1B_OUT*%
X134500000Y-50500000D03*
%TO.P,C3,2*%
%TO.N,U2_MINUS*%
X139500000Y-50500000D03*
%TD*%
D11*
%TO.P,U2,1*%
%TO.N,N/C*%
X102000000Y-66500000D03*
D10*
%TO.P,U2,2*%
%TO.N,U2_MINUS*%
X102000000Y-69040000D03*
%TO.P,U2,3*%
%TO.N,U2_PLUS*%
X102000000Y-71580000D03*
%TO.P,U2,4*%
%TO.N,-9V*%
X102000000Y-74120000D03*
%TO.P,U2,5*%
%TO.N,N/C*%
X109620000Y-74120000D03*
%TO.P,U2,6*%
%TO.N,U2_OUT*%
X109620000Y-71580000D03*
%TO.P,U2,7*%
%TO.N,+9V*%
X109620000Y-69040000D03*
%TO.P,U2,8*%
%TO.N,N/C*%
X109620000Y-66500000D03*
%TD*%
%TO.P,R8,1*%
%TO.N,U2_MINUS*%
X89500000Y-80000000D03*
%TO.P,R8,2*%
%TO.N,0V*%
X99660000Y-80000000D03*
%TD*%
D12*
%TO.P,J1,1*%
%TO.N,+9V*%
X72500000Y-51500000D03*
D13*
%TO.P,J1,2*%
%TO.N,0V*%
X72500000Y-54040000D03*
%TO.P,J1,3*%
%TO.N,-9V*%
X72500000Y-56580000D03*
%TD*%
D10*
%TO.P,R9,1*%
%TO.N,U2_PLUS*%
X102500000Y-6000000D03*
%TO.P,R9,2*%
%TO.N,0V*%
X112660000Y-6000000D03*
%TD*%
D12*
%TO.P,J2,1*%
%TO.N,0V*%
X143000000Y-21000000D03*
D13*
%TO.P,J2,2*%
%TO.N,PROG_IN*%
X143000000Y-23540000D03*
%TO.P,J2,3*%
%TO.N,SERIAL_OUT*%
X143000000Y-26080000D03*
%TD*%
D10*
%TO.P,C4,1*%
%TO.N,+9V*%
X40500000Y-78000000D03*
%TO.P,C4,2*%
%TO.N,0V*%
X45500000Y-78000000D03*
%TD*%
%TO.P,C16,1*%
%TO.N,-9V*%
X74000000Y-90000000D03*
%TO.P,C16,2*%
%TO.N,0V*%
X79000000Y-90000000D03*
%TD*%
%TO.P,R7,1*%
%TO.N,U1B_OUT*%
X121500000Y-40500000D03*
%TO.P,R7,2*%
%TO.N,U1B_MINUS*%
X131660000Y-40500000D03*
%TD*%
D11*
%TO.P,D2,1*%
%TO.N,Q1_BASE*%
X139000000Y-34500000D03*
D10*
%TO.P,D2,2*%
%TO.N,D2_ANODE*%
X146620000Y-34500000D03*
%TD*%
D14*
%TO.P,U3,1*%
%TO.N,+5V*%
X48000000Y-29500000D03*
D15*
%TO.P,U3,2*%
%TO.N,0V*%
X49270000Y-29500000D03*
%TO.P,U3,3*%
%TO.N,+9V*%
X50540000Y-29500000D03*
%TD*%
D10*
%TO.P,R12,1*%
%TO.N,Q1_BASE*%
X68500000Y-37500000D03*
%TO.P,R12,2*%
%TO.N,0V*%
X78660000Y-37500000D03*
%TD*%
%TO.P,R13,1*%
%TO.N,+5V*%
X25000000Y-39000000D03*
%TO.P,R13,2*%
%TO.N,RNG_RAW*%
X35160000Y-39000000D03*
%TD*%
D11*
%TO.P,C6,1*%
%TO.N,+5V*%
X29500000Y-28000000D03*
D10*
%TO.P,C6,2*%
%TO.N,0V*%
X32000000Y-28000000D03*
%TD*%
%TO.P,R10,1*%
%TO.N,U2_OUT*%
X92000000Y-52500000D03*
%TO.P,R10,2*%
%TO.N,U2_PLUS*%
X102160000Y-52500000D03*
%TD*%
%TO.P,C1,1*%
%TO.N,NOISE_RAW*%
X86500000Y-39000000D03*
%TO.P,C1,2*%
%TO.N,U1A_PLUS*%
X91500000Y-39000000D03*
%TD*%
%TO.P,R1,1*%
%TO.N,+9V*%
X34500000Y-12000000D03*
%TO.P,R1,2*%
%TO.N,NOISE_RAW*%
X44660000Y-12000000D03*
%TD*%
D11*
%TO.P,U4,1*%
%TO.N,+5V*%
X41000000Y-45000000D03*
D10*
%TO.P,U4,2*%
%TO.N,SERIAL_IN*%
X41000000Y-47540000D03*
%TO.P,U4,3*%
%TO.N,N/C*%
X41000000Y-50080000D03*
%TO.P,U4,4*%
%TO.N,RNG_RAW*%
X41000000Y-52620000D03*
%TO.P,U4,5*%
%TO.N,N/C*%
X48620000Y-52620000D03*
%TO.P,U4,6*%
X48620000Y-50080000D03*
%TO.P,U4,7*%
%TO.N,SERIAL_OUT*%
X48620000Y-47540000D03*
%TO.P,U4,8*%
%TO.N,0V*%
X48620000Y-45000000D03*
%TD*%
%TO.P,R6,1*%
%TO.N,U1B_MINUS*%
X124000000Y-31000000D03*
%TO.P,R6,2*%
%TO.N,0V*%
X134160000Y-31000000D03*
%TD*%
%TO.P,C15,1*%
%TO.N,+9V*%
X71000000Y-73500000D03*
%TO.P,C15,2*%
%TO.N,0V*%
X76000000Y-73500000D03*
%TD*%
D14*
%TO.P,Q1,1*%
%TO.N,RNG_RAW*%
X54500000Y-41000000D03*
D15*
%TO.P,Q1,2*%
%TO.N,Q1_BASE*%
X55770000Y-41000000D03*
%TO.P,Q1,3*%
%TO.N,0V*%
X57040000Y-41000000D03*
%TD*%
D11*
%TO.P,U1,1*%
%TO.N,U1A_OUT*%
X104000000Y-39000000D03*
D10*
%TO.P,U1,2*%
%TO.N,U1A_MINUS*%
X104000000Y-41540000D03*
%TO.P,U1,3*%
%TO.N,U1A_PLUS*%
X104000000Y-44080000D03*
%TO.P,U1,4*%
%TO.N,-9V*%
X104000000Y-46620000D03*
%TO.P,U1,5*%
%TO.N,U1B_PLUS*%
X111620000Y-46620000D03*
%TO.P,U1,6*%
%TO.N,U1B_MINUS*%
X111620000Y-44080000D03*
%TO.P,U1,7*%
%TO.N,U1B_OUT*%
X111620000Y-41540000D03*
%TO.P,U1,8*%
%TO.N,+9V*%
X111620000Y-39000000D03*
%TD*%
%TO.P,R15,1*%
%TO.N,SERIAL_IN*%
X37000000Y-68000000D03*
%TO.P,R15,2*%
%TO.N,0V*%
X47160000Y-68000000D03*
%TD*%
%TO.P,C14,1*%
%TO.N,-9V*%
X118000000Y-68500000D03*
%TO.P,C14,2*%
%TO.N,0V*%
X123000000Y-68500000D03*
%TD*%
D11*
%TO.P,D1,1*%
%TO.N,NOISE_RAW*%
X19000000Y-11000000D03*
D10*
%TO.P,D1,2*%
%TO.N,0V*%
X26620000Y-11000000D03*
%TD*%
%TO.P,C2,1*%
%TO.N,U1A_OUT*%
X115000000Y-53000000D03*
%TO.P,C2,2*%
%TO.N,U1B_PLUS*%
X120000000Y-53000000D03*
%TD*%
%TO.P,C17,1*%
%TO.N,+5V*%
X61000000Y-63500000D03*
%TO.P,C17,2*%
%TO.N,0V*%
X66000000Y-63500000D03*
%TD*%
%TO.P,R4,1*%
%TO.N,U1A_OUT*%
X92000000Y-25500000D03*
%TO.P,R4,2*%
%TO.N,U1A_MINUS*%
X102160000Y-25500000D03*
%TD*%
%TO.P,R3,1*%
%TO.N,U1A_MINUS*%
X101000000Y-16000000D03*
%TO.P,R3,2*%
%TO.N,0V*%
X111160000Y-16000000D03*
%TD*%
%TO.P,R11,1*%
%TO.N,U2_OUT*%
X107000000Y-85000000D03*
%TO.P,R11,2*%
%TO.N,D2_ANODE*%
X117160000Y-85000000D03*
%TD*%
%TO.P,R5,1*%
%TO.N,U1B_PLUS*%
X74000000Y-25000000D03*
%TO.P,R5,2*%
%TO.N,0V*%
X84160000Y-25000000D03*
%TD*%
%TO.P,R14,1*%
%TO.N,PROG_IN*%
X37000000Y-58500000D03*
%TO.P,R14,2*%
%TO.N,SERIAL_IN*%
X47160000Y-58500000D03*
%TD*%
%TO.P,R2,1*%
%TO.N,U1A_PLUS*%
X81500000Y-63500000D03*
%TO.P,R2,2*%
%TO.N,0V*%
X91660000Y-63500000D03*
%TD*%
%TO.P,C13,1*%
%TO.N,+9V*%
X53000000Y-16000000D03*
%TO.P,C13,2*%
%TO.N,0V*%
X58000000Y-16000000D03*
%TD*%
%TO.P,C5,1*%
%TO.N,+5V*%
X10500000Y-22000000D03*
%TO.P,C5,2*%
%TO.N,0V*%
X15500000Y-22000000D03*
%TD*%
D16*
%TO.N,+9V*%
X102130000Y-40333900D03*
%TO.N,U1B_PLUS*%
X100291700Y-42810000D03*
%TD*%
%TO.N,U1B_OUT*%
D17*
X120460000Y-41540000D02*
X111620000Y-41540000D01*
X121500000Y-40500000D02*
X120460000Y-41540000D01*
%TO.N,U2_MINUS*%
X89500000Y-80000000D02*
X100460000Y-69040000D01*
X100460000Y-69040000D02*
X102000000Y-69040000D01*
%TO.N,-9V*%
X116190000Y-70310000D02*
X118000000Y-68500000D01*
X102000000Y-74120000D02*
X105810000Y-70310000D01*
X102000000Y-74120000D02*
X88917200Y-87202800D01*
X76797200Y-87202800D02*
X74000000Y-90000000D01*
X105810000Y-70310000D02*
X116190000Y-70310000D01*
X88917200Y-87202800D02*
X76797200Y-87202800D01*
%TO.N,+9V*%
X76590500Y-67909500D02*
X71000000Y-73500000D01*
X38500000Y-16000000D02*
X53000000Y-16000000D01*
X108489500Y-67909500D02*
X76590500Y-67909500D01*
X109620000Y-69040000D02*
X108489500Y-67909500D01*
X40500000Y-78000000D02*
X45000000Y-73500000D01*
X34500000Y-12000000D02*
X38500000Y-16000000D01*
X45000000Y-73500000D02*
X71000000Y-73500000D01*
X102130000Y-40333900D02*
X110286100Y-40333900D01*
X110286100Y-40333900D02*
X111620000Y-39000000D01*
%TO.N,0V*%
X47160000Y-68000000D02*
X61500000Y-68000000D01*
X57040000Y-41000000D02*
X75160000Y-41000000D01*
X91660000Y-63500000D02*
X90504700Y-64655300D01*
X61500000Y-68000000D02*
X66000000Y-63500000D01*
X67155300Y-64655300D02*
X66000000Y-63500000D01*
X118000000Y-63500000D02*
X91660000Y-63500000D01*
X111160000Y-21000000D02*
X88160000Y-21000000D01*
X111160000Y-21000000D02*
X111160000Y-16000000D01*
X32448300Y-28448300D02*
X32000000Y-28000000D01*
X90504700Y-64655300D02*
X67155300Y-64655300D01*
X75160000Y-41000000D02*
X78660000Y-37500000D01*
X49270000Y-28448300D02*
X32448300Y-28448300D01*
X88160000Y-21000000D02*
X84160000Y-25000000D01*
X49270000Y-29500000D02*
X49270000Y-28448300D01*
X123000000Y-68500000D02*
X118000000Y-63500000D01*
X143000000Y-21000000D02*
X111160000Y-21000000D01*
%TO.N,PROG_IN*%
X144199300Y-31849100D02*
X144199300Y-24739300D01*
X53825700Y-49145000D02*
X126903400Y-49145000D01*
X144199300Y-24739300D02*
X143000000Y-23540000D01*
X126903400Y-49145000D02*
X144199300Y-31849100D01*
X44470700Y-58500000D02*
X53825700Y-49145000D01*
X37000000Y-58500000D02*
X44470700Y-58500000D01*
%TO.N,SERIAL_OUT*%
X83826500Y-36777900D02*
X73064400Y-47540000D01*
X143000000Y-32429900D02*
X138652000Y-36777900D01*
X143000000Y-26080000D02*
X143000000Y-32429900D01*
X73064400Y-47540000D02*
X48620000Y-47540000D01*
X138652000Y-36777900D02*
X83826500Y-36777900D01*
%TO.N,U1B_MINUS*%
X131660000Y-40500000D02*
X128080000Y-44080000D01*
X128080000Y-44080000D02*
X111620000Y-44080000D01*
%TO.N,Q1_BASE*%
X66051700Y-39948300D02*
X55770000Y-39948300D01*
X68500000Y-37500000D02*
X66051700Y-39948300D01*
X68500000Y-37500000D02*
X71500000Y-34500000D01*
X55770000Y-41000000D02*
X55770000Y-39948300D01*
X71500000Y-34500000D02*
X139000000Y-34500000D01*
%TO.N,+5V*%
X29500000Y-28000000D02*
X16500000Y-28000000D01*
X16500000Y-28000000D02*
X10500000Y-22000000D01*
%TO.N,RNG_RAW*%
X35160000Y-39000000D02*
X51673300Y-39000000D01*
X51673300Y-39000000D02*
X53673300Y-41000000D01*
X54500000Y-41000000D02*
X53673300Y-41000000D01*
%TO.N,NOISE_RAW*%
X42542200Y-9882200D02*
X44660000Y-12000000D01*
X20117800Y-9882200D02*
X42542200Y-9882200D01*
X19000000Y-11000000D02*
X20117800Y-9882200D01*
%TO.N,U1A_PLUS*%
X104000000Y-44080000D02*
X96580000Y-44080000D01*
X96580000Y-44080000D02*
X91500000Y-39000000D01*
%TO.N,U1B_PLUS*%
X107810000Y-42810000D02*
X111620000Y-46620000D01*
X100291700Y-42810000D02*
X107810000Y-42810000D01*
%TD*%
M02*
