M48
; DRILL file KiCad 10.0.5 date 2026-09-24T17:24:28
; FORMAT={-:-/ absolute / metric / decimal}
; #@! TF.CreationDate,2026-09-24T17:24:28-05:00
; #@! TF.GenerationSoftware,Kicad,Pcbnew,10.0.5
; #@! TF.FileFunction,MixedPlating,1,2
FMAT,2
METRIC
; #@! TA.AperFunction,Plated,PTH,ViaDrill
T1C0.300
; #@! TA.AperFunction,Plated,PTH,ComponentDrill
T2C0.750
; #@! TA.AperFunction,Plated,PTH,ComponentDrill
T3C0.800
; #@! TA.AperFunction,Plated,PTH,ComponentDrill
T4C1.000
%
G90
G05
T1
X100.292Y-42.81
X102.13Y-40.334
T2
X48.0Y-29.5
X49.27Y-29.5
X50.54Y-29.5
X54.5Y-41.0
X55.77Y-41.0
X57.04Y-41.0
T3
X10.5Y-22.0
X15.5Y-22.0
X19.0Y-11.0
X25.0Y-39.0
X26.62Y-11.0
X29.5Y-28.0
X32.0Y-28.0
X34.5Y-12.0
X35.16Y-39.0
X37.0Y-58.5
X37.0Y-68.0
X40.5Y-78.0
X41.0Y-45.0
X41.0Y-47.54
X41.0Y-50.08
X41.0Y-52.62
X44.66Y-12.0
X45.5Y-78.0
X47.16Y-58.5
X47.16Y-68.0
X48.62Y-45.0
X48.62Y-47.54
X48.62Y-50.08
X48.62Y-52.62
X53.0Y-16.0
X58.0Y-16.0
X61.0Y-63.5
X66.0Y-63.5
X68.5Y-37.5
X71.0Y-73.5
X74.0Y-25.0
X74.0Y-90.0
X76.0Y-73.5
X78.66Y-37.5
X79.0Y-90.0
X81.5Y-63.5
X84.16Y-25.0
X86.5Y-39.0
X89.5Y-80.0
X91.5Y-39.0
X91.66Y-63.5
X92.0Y-25.5
X92.0Y-52.5
X99.66Y-80.0
X101.0Y-16.0
X102.0Y-66.5
X102.0Y-69.04
X102.0Y-71.58
X102.0Y-74.12
X102.16Y-25.5
X102.16Y-52.5
X102.5Y-6.0
X104.0Y-39.0
X104.0Y-41.54
X104.0Y-44.08
X104.0Y-46.62
X107.0Y-85.0
X109.62Y-66.5
X109.62Y-69.04
X109.62Y-71.58
X109.62Y-74.12
X111.16Y-16.0
X111.62Y-39.0
X111.62Y-41.54
X111.62Y-44.08
X111.62Y-46.62
X112.66Y-6.0
X115.0Y-53.0
X117.16Y-85.0
X118.0Y-68.5
X120.0Y-53.0
X121.5Y-40.5
X123.0Y-68.5
X124.0Y-31.0
X131.66Y-40.5
X134.16Y-31.0
X134.5Y-50.5
X139.0Y-34.5
X139.5Y-50.5
X146.62Y-34.5
T4
X72.5Y-51.5
X72.5Y-54.04
X72.5Y-56.58
X143.0Y-21.0
X143.0Y-23.54
X143.0Y-26.08
M30
